<?xml version="1.0" standalone="no"?>
<!DOCTYPE svg PUBLIC "-//W3C//DTD SVG 1.1//EN" "http://www.w3.org/Graphics/SVG/1.1/DTD/svg11.dtd" >
<svg xmlns="http://www.w3.org/2000/svg">
<metadata>
This is a custom SVG webfont generated by Font Squirrel.
Copyright   : 2011 Johannes Erler Henning Skibbe published by FSI FontShop International GmbH
Designer    : Johannes Erler Henning Skibbe
Foundry     : FSI
Foundry URL : httpwwwfontfontcom
</metadata>
<defs>
<font id="ErlerDingbatsRegular" horiz-adv-x="1720" >
<font-face units-per-em="2000" ascent="1500" descent="-500" />
<missing-glyph horiz-adv-x="180" />
<glyph horiz-adv-x="0" />
<glyph horiz-adv-x="0" />
<glyph unicode="&#xd;" horiz-adv-x="180" />
<glyph unicode=" "  horiz-adv-x="180" />
<glyph unicode="&#x09;" horiz-adv-x="180" />
<glyph unicode="&#xa0;" horiz-adv-x="180" />
<glyph unicode="(" horiz-adv-x="890" d="M180 680q0 118 40 221t103.5 188.5t142.5 152.5t156 114l14 8q21 12 28 12q11 0 20 -12l16 -22q6 -9 8 -15t2 -9q0 -9 -14 -20l-18 -14q-59 -46 -119 -107t-108 -136.5t-78.5 -166t-30.5 -194.5t30.5 -194.5t78.5 -166t108 -136.5t119 -107l18 -14q14 -11 14 -20 q0 -3 -2 -9t-8 -15l-16 -22q-9 -12 -20 -12q-7 0 -28 12l-14 8q-77 46 -156 113.5t-142.5 153t-103.5 188.5t-40 221z" />
<glyph unicode="&#x2768;" horiz-adv-x="890" d="M180 680q0 118 40 221t103.5 188.5t142.5 152.5t156 114l14 8q21 12 28 12q11 0 20 -12l16 -22q6 -9 8 -15t2 -9q0 -9 -14 -20l-18 -14q-59 -46 -119 -107t-108 -136.5t-78.5 -166t-30.5 -194.5t30.5 -194.5t78.5 -166t108 -136.5t119 -107l18 -14q14 -11 14 -20 q0 -3 -2 -9t-8 -15l-16 -22q-9 -12 -20 -12q-7 0 -28 12l-14 8q-77 46 -156 113.5t-142.5 153t-103.5 188.5t-40 221z" />
<glyph unicode=")" horiz-adv-x="890" d="M710 680q0 -118 -40 -221t-103.5 -188.5t-142.5 -153t-156 -113.5l-14 -8q-21 -12 -28 -12q-11 0 -20 12l-16 22q-6 9 -8 15t-2 9q0 9 14 20l18 14q59 46 119 107t108 136.5t78.5 166t30.5 194.5t-30.5 194.5t-78.5 166t-108 136.5t-119 107l-18 14q-14 11 -14 20 q0 3 2 9t8 15l16 22q9 12 20 12q7 0 28 -12l14 -8q77 -47 156 -114t142.5 -152.5t103.5 -188.5t40 -221z" />
<glyph unicode="&#x2769;" horiz-adv-x="890" d="M710 680q0 -118 -40 -221t-103.5 -188.5t-142.5 -153t-156 -113.5l-14 -8q-21 -12 -28 -12q-11 0 -20 12l-16 22q-6 9 -8 15t-2 9q0 9 14 20l18 14q59 46 119 107t108 136.5t78.5 166t30.5 194.5t-30.5 194.5t-78.5 166t-108 136.5t-119 107l-18 14q-14 11 -14 20 q0 3 2 9t8 15l16 22q9 12 20 12q7 0 28 -12l14 -8q77 -47 156 -114t142.5 -152.5t103.5 -188.5t40 -221z" />
<glyph unicode="-" horiz-adv-x="766" d="M100 742h566v-80h-566v80z" />
<glyph unicode="{" horiz-adv-x="708" d="M194 686q0 10 7 14t17 7t21.5 6.5t20.5 12.5t14 25t2 45l-32 326q-6 67 2 112.5t30.5 73.5t60.5 40t91 12q57 0 87.5 -8.5t30.5 -23.5q0 -5 -5 -8.5t-17 -3.5h-6q-22 0 -36.5 -4t-23.5 -15t-12.5 -31t-3.5 -52v-394q0 -29 -9 -50.5t-27 -37.5t-46 -27.5t-66 -20.5v-8 q76 -18 112 -48t36 -88v-394q0 -32 3.5 -52t12.5 -31t23.5 -15t36.5 -4h6q12 0 17 -3.5t5 -8.5q0 -15 -30.5 -23.5t-87.5 -8.5q-53 0 -91 12t-60.5 40t-30.5 73.5t-2 112.5l32 326q3 28 -2 44.5t-14 25.5t-20.5 12.5t-21.5 6.5t-17 7t-7 14v12z" />
<glyph unicode="&#x2774;" horiz-adv-x="708" d="M194 686q0 10 7 14t17 7t21.5 6.5t20.5 12.5t14 25t2 45l-32 326q-6 67 2 112.5t30.5 73.5t60.5 40t91 12q57 0 87.5 -8.5t30.5 -23.5q0 -5 -5 -8.5t-17 -3.5h-6q-22 0 -36.5 -4t-23.5 -15t-12.5 -31t-3.5 -52v-394q0 -29 -9 -50.5t-27 -37.5t-46 -27.5t-66 -20.5v-8 q76 -18 112 -48t36 -88v-394q0 -32 3.5 -52t12.5 -31t23.5 -15t36.5 -4h6q12 0 17 -3.5t5 -8.5q0 -15 -30.5 -23.5t-87.5 -8.5q-53 0 -91 12t-60.5 40t-30.5 73.5t-2 112.5l32 326q3 28 -2 44.5t-14 25.5t-20.5 12.5t-21.5 6.5t-17 7t-7 14v12z" />
<glyph unicode="}" horiz-adv-x="708" d="M546 674q0 -10 -7 -14t-17 -7t-21.5 -6.5t-20.5 -12.5t-14 -25.5t-2 -44.5l32 -326q6 -67 -2 -112.5t-30.5 -73.5t-60.5 -40t-91 -12q-57 0 -87.5 8.5t-30.5 23.5q0 5 5 8.5t17 3.5h6q22 0 36.5 4t23.5 15t12.5 31t3.5 52v394q0 58 35.5 88t112.5 48v8q-38 9 -66 20.5 t-46 27.5t-27 37.5t-9 50.5v394q0 32 -3.5 52t-12.5 31t-23.5 15t-36.5 4h-6q-12 0 -17 3.5t-5 8.5q0 15 30.5 23.5t87.5 8.5q53 0 91 -12t60.5 -40t30.5 -73.5t2 -112.5l-32 -326q-3 -29 2 -45t14 -25t20.5 -12.5t21.5 -6.5t17 -7t7 -14v-12z" />
<glyph unicode="&#x2775;" horiz-adv-x="708" d="M546 674q0 -10 -7 -14t-17 -7t-21.5 -6.5t-20.5 -12.5t-14 -25.5t-2 -44.5l32 -326q6 -67 -2 -112.5t-30.5 -73.5t-60.5 -40t-91 -12q-57 0 -87.5 8.5t-30.5 23.5q0 5 5 8.5t17 3.5h6q22 0 36.5 4t23.5 15t12.5 31t3.5 52v394q0 58 35.5 88t112.5 48v8q-38 9 -66 20.5 t-46 27.5t-27 37.5t-9 50.5v394q0 32 -3.5 52t-12.5 31t-23.5 15t-36.5 4h-6q-12 0 -17 3.5t-5 8.5q0 15 30.5 23.5t87.5 8.5q53 0 91 -12t60.5 -40t30.5 -73.5t2 -112.5l-32 -326q-3 -29 2 -45t14 -25t20.5 -12.5t21.5 -6.5t17 -7t7 -14v-12z" />
<glyph unicode="&#xad;" horiz-adv-x="766" d="M100 742h566v-80h-566v80z" />
<glyph unicode="&#xb6;" horiz-adv-x="1154" d="M940 1360q20 0 27 -7.5t7 -24.5v-52q0 -18 -8.5 -25t-25.5 -7h-104v-948q0 -74 -22 -131t-61 -95.5t-91 -58t-112 -19.5q-40 0 -85 8.5t-92 25t-94.5 41.5t-90.5 57l-8 6q-12 9 -16 15.5t-4 12.5q0 9 10 22l34 44q11 14 24 14q9 0 20 -8l16 -12q19 -15 44.5 -30.5 t54.5 -29.5t59.5 -26t59.5 -20v591q-70 9 -130 34.5t-104 65t-69 91.5t-25 114q0 84 34.5 149.5t98.5 110.5t155.5 68.5t205.5 23.5h292zM604 107q58 12 84 56t26 129v946h-66q-21 0 -32.5 -10.5t-11.5 -37.5v-1083z" />
<glyph unicode="&#x2039;" horiz-adv-x="1108" d="M912 180q9 -20 12.5 -29t3.5 -17q0 -12 -7.5 -19.5t-24.5 -16.5l-212 -110q-20 -11 -29 -14.5t-17 -3.5q-12 0 -22 6t-20 20l-390 546q-30 42 -41 75t-11 59t11 59t41 75l390 546q10 14 20 20t22 6q8 0 17 -3.5t29 -14.5l212 -110q17 -9 24.5 -16.5t7.5 -19.5 q0 -8 -3.5 -17t-12.5 -29l-232 -496z" />
<glyph unicode="&#x276e;" horiz-adv-x="1108" d="M912 180q9 -20 12.5 -29t3.5 -17q0 -12 -7.5 -19.5t-24.5 -16.5l-212 -110q-20 -11 -29 -14.5t-17 -3.5q-12 0 -22 6t-20 20l-390 546q-30 42 -41 75t-11 59t11 59t41 75l390 546q10 14 20 20t22 6q8 0 17 -3.5t29 -14.5l212 -110q17 -9 24.5 -16.5t7.5 -19.5 q0 -8 -3.5 -17t-12.5 -29l-232 -496z" />
<glyph unicode="&#x203a;" horiz-adv-x="1108" d="M428 676l-232 496q-9 20 -12.5 29t-3.5 17q0 12 7.5 19.5t24.5 16.5l212 110q20 11 29 14.5t17 3.5q12 0 22 -6t20 -20l390 -546q30 -42 41 -75t11 -59t-11 -59t-41 -75l-390 -546q-10 -14 -20 -20t-22 -6q-8 0 -17 3.5t-29 14.5l-212 110q-17 9 -24.5 16.5t-7.5 19.5 q0 8 3.5 17t12.5 29z" />
<glyph unicode="&#x276f;" horiz-adv-x="1108" d="M428 676l-232 496q-9 20 -12.5 29t-3.5 17q0 12 7.5 19.5t24.5 16.5l212 110q20 11 29 14.5t17 3.5q12 0 22 -6t20 -20l390 -546q30 -42 41 -75t11 -59t-11 -59t-41 -75l-390 -546q-10 -14 -20 -20t-22 -6q-8 0 -17 3.5t-29 14.5l-212 110q-17 9 -24.5 16.5t-7.5 19.5 q0 8 3.5 17t12.5 29z" />
<glyph unicode="&#x2192;" horiz-adv-x="1428" d="M880 250l276 306l-42 -6h-994v88h994l42 -6l-276 306l66 64l362 -408l-362 -408z" />
<glyph unicode="&#x2194;" horiz-adv-x="1828" d="M482 186l-362 408l362 408l66 -64l-276 -306l42 6h1200l42 -6l-276 306l66 64l362 -408l-362 -408l-66 64l276 306l-42 -6h-1200l-42 6l276 -306z" />
<glyph unicode="&#x2195;" horiz-adv-x="1828" d="M506 1086l408 362l408 -362l-64 -66l-306 276l6 -42v-1200l-6 -42l306 276l64 -66l-408 -362l-408 362l64 66l306 -276l-6 42v1200l6 42l-306 -276z" />
<glyph unicode="&#x2460;" horiz-adv-x="2082" d="M1072 1150q46 0 46 -58v-656q0 -39 10 -53.5t42 -18.5l88 -12q18 -2 24 -11t6 -29q0 -18 -6.5 -23t-23.5 -5h-400q-17 0 -23.5 5t-6.5 23q0 21 6 29.5t24 10.5l88 12q31 4 41.5 18.5t10.5 53.5v576q0 38 -38 30l-96 -20q-11 -2 -16 3t-10 17q-5 14 -3.5 20.5t13.5 11.5 q65 26 105.5 41.5t64.5 23t35 9.5t19 2zM296 708q0 -102 26.5 -196.5t75 -177t117 -150.5t151 -116.5t178 -75t198.5 -26.5q102 0 197 26.5t178 75t151 116.5t116.5 150.5t75 177t26.5 196.5q0 103 -26.5 199t-75 179t-116.5 151t-151 117t-178 75.5t-197 26.5 q-103 0 -198.5 -26.5t-178 -75.5t-151 -117t-117 -151t-75 -179t-26.5 -199zM180 708q0 119 30.5 229.5t86.5 206.5t134.5 174.5t174.5 134.5t206 86.5t230 30.5q119 0 229 -30.5t205.5 -86.5t174 -134.5t134.5 -174.5t86.5 -206.5t30.5 -229.5t-30.5 -229t-86.5 -205.5 t-134.5 -174t-174 -134.5t-205.5 -86.5t-229 -30.5q-120 0 -230 30.5t-206 86.5t-174.5 134.5t-134.5 174t-86.5 205.5t-30.5 229z" />
<glyph unicode="&#x2461;" horiz-adv-x="2082" d="M836 284q-21 0 -30.5 9t-9.5 33q0 22 5 37.5t22 37t49.5 56t87.5 93.5q55 61 93.5 109t62.5 90t35 80t11 79q0 32 -7 62.5t-23 54t-42 37.5t-64 14q-35 0 -63.5 -12t-42.5 -25q-10 -9 -11 -17.5t1 -25.5l12 -82q2 -11 0 -14.5t-10 -5.5l-20 -2q-9 -2 -13 0t-7 8l-52 122 q-6 14 -5 21.5t13 18.5q10 9 29.5 24t48 29t64 24.5t76.5 10.5q63 0 109 -18.5t76 -49.5t44.5 -71.5t14.5 -84.5q0 -42 -7 -78.5t-24 -73.5t-45.5 -76t-71 -85.5t-101 -102t-135.5 -124.5h242q33 0 51 10.5t27 27.5l32 60q5 9 12 12.5t22 3.5q8 0 12 -5t2 -17l-32 -158 q-4 -20 -16 -28t-36 -8h-386zM296 708q0 -102 26.5 -196.5t75 -177t117 -150.5t151 -116.5t178 -75t198.5 -26.5q102 0 197 26.5t178 75t151 116.5t116.5 150.5t75 177t26.5 196.5q0 103 -26.5 199t-75 179t-116.5 151t-151 117t-178 75.5t-197 26.5q-103 0 -198.5 -26.5 t-178 -75.5t-151 -117t-117 -151t-75 -179t-26.5 -199zM180 708q0 119 30.5 229.5t86.5 206.5t134.5 174.5t174.5 134.5t206 86.5t230 30.5q119 0 229 -30.5t205.5 -86.5t174 -134.5t134.5 -174.5t86.5 -206.5t30.5 -229.5t-30.5 -229t-86.5 -205.5t-134.5 -174t-174 -134.5 t-205.5 -86.5t-229 -30.5q-120 0 -230 30.5t-206 86.5t-174.5 134.5t-134.5 174t-86.5 205.5t-30.5 229z" />
<glyph unicode="&#x2462;" horiz-adv-x="2082" d="M1066 1150q58 0 97.5 -16.5t63.5 -42t34.5 -58t10.5 -63.5q0 -38 -14.5 -68.5t-40 -54.5t-59 -43t-70.5 -32q45 0 87.5 -14t75.5 -41.5t53 -68t20 -92.5q0 -70 -27 -122.5t-70.5 -88t-99 -53.5t-111.5 -18q-43 0 -78 8.5t-60.5 19.5t-40.5 21.5t-19 14.5q-11 11 -15 22 t-7 32l-16 100q-3 16 10 20l17 5q8 2 13.5 -1t11.5 -18q20 -47 43.5 -77t48.5 -47t51.5 -23.5t52.5 -6.5q34 0 64.5 14.5t53 38.5t35.5 56t13 67q0 42 -10.5 75t-35 56.5t-66 36t-102.5 14.5q-14 0 -19.5 5.5t-7.5 20.5t1 21.5t18 12.5q49 17 82.5 37t54 43.5t29 50.5 t8.5 59q0 54 -31.5 89t-90.5 35q-41 0 -70.5 -13t-43.5 -25q-9 -9 -11 -16t1 -28l12 -80q3 -19 -10 -20l-20 -2q-9 -1 -13.5 0.5t-6.5 7.5l-52 124q-5 12 -4.5 19.5t12.5 18.5q13 12 37 27t57 28.5t72 23t82 9.5zM296 708q0 -102 26.5 -196.5t75 -177t117 -150.5t151 -116.5 t178 -75t198.5 -26.5q102 0 197 26.5t178 75t151 116.5t116.5 150.5t75 177t26.5 196.5q0 103 -26.5 199t-75 179t-116.5 151t-151 117t-178 75.5t-197 26.5q-103 0 -198.5 -26.5t-178 -75.5t-151 -117t-117 -151t-75 -179t-26.5 -199zM180 708q0 119 30.5 229.5t86.5 206.5 t134.5 174.5t174.5 134.5t206 86.5t230 30.5q119 0 229 -30.5t205.5 -86.5t174 -134.5t134.5 -174.5t86.5 -206.5t30.5 -229.5t-30.5 -229t-86.5 -205.5t-134.5 -174t-174 -134.5t-205.5 -86.5t-229 -30.5q-120 0 -230 30.5t-206 86.5t-174.5 134.5t-134.5 174t-86.5 205.5 t-30.5 229z" />
<glyph unicode="&#x2463;" horiz-adv-x="2082" d="M1162 552h96q21 0 27.5 -8.5t6.5 -29.5q0 -20 -6.5 -29t-27.5 -9h-96v-50q0 -25 1.5 -39.5t5.5 -22.5t11.5 -11.5t19.5 -6.5l32 -8q18 -5 23 -8.5t5 -17.5q0 -18 -5.5 -23t-22.5 -5h-282q-17 0 -22.5 5t-5.5 23q0 14 5.5 19t22.5 7l46 6q13 2 22 5.5t14 12.5t7 24t3 40 v50h-262q-46 0 -46 44q0 11 2.5 20t11.5 32l216 546q7 17 15.5 19.5t24.5 2.5h66q14 0 22.5 -9t-4.5 -35l-270 -544h226l4 246q0 23 9.5 30.5t24.5 7.5h52q15 0 21.5 -7t6.5 -31v-246zM296 708q0 -102 26.5 -196.5t75 -177t117 -150.5t151 -116.5t178 -75t198.5 -26.5 q102 0 197 26.5t178 75t151 116.5t116.5 150.5t75 177t26.5 196.5q0 103 -26.5 199t-75 179t-116.5 151t-151 117t-178 75.5t-197 26.5q-103 0 -198.5 -26.5t-178 -75.5t-151 -117t-117 -151t-75 -179t-26.5 -199zM180 708q0 119 30.5 229.5t86.5 206.5t134.5 174.5 t174.5 134.5t206 86.5t230 30.5q119 0 229 -30.5t205.5 -86.5t174 -134.5t134.5 -174.5t86.5 -206.5t30.5 -229.5t-30.5 -229t-86.5 -205.5t-134.5 -174t-174 -134.5t-205.5 -86.5t-229 -30.5q-120 0 -230 30.5t-206 86.5t-174.5 134.5t-134.5 174t-86.5 205.5t-30.5 229z " />
<glyph unicode="&#x2464;" horiz-adv-x="2082" d="M936 816q81 27 147 27q57 0 102 -19t75.5 -53.5t47 -84t16.5 -110.5q0 -80 -27 -137.5t-70.5 -94t-99 -53.5t-111.5 -17q-41 0 -74.5 8.5t-59 19t-41 20.5t-19.5 13q-13 11 -18 23.5t-8 33.5l-14 94q-2 9 0.5 12.5t9.5 5.5l14 4q8 2 16 -1t14 -17q19 -44 41.5 -72.5 t47 -45t51 -22.5t52.5 -6q35 0 65.5 13.5t53 39.5t35 64t12.5 87q0 107 -51.5 157.5t-140.5 50.5q-31 0 -64 -6l-36 -6q-47 -9 -44 42l16 310q2 21 10.5 32.5t29.5 11.5h338q14 0 18 -9.5t-4 -48.5q-6 -33 -13.5 -41.5t-22.5 -8.5h-272zM296 708q0 -102 26.5 -196.5t75 -177 t117 -150.5t151 -116.5t178 -75t198.5 -26.5q102 0 197 26.5t178 75t151 116.5t116.5 150.5t75 177t26.5 196.5q0 103 -26.5 199t-75 179t-116.5 151t-151 117t-178 75.5t-197 26.5q-103 0 -198.5 -26.5t-178 -75.5t-151 -117t-117 -151t-75 -179t-26.5 -199zM180 708 q0 119 30.5 229.5t86.5 206.5t134.5 174.5t174.5 134.5t206 86.5t230 30.5q119 0 229 -30.5t205.5 -86.5t174 -134.5t134.5 -174.5t86.5 -206.5t30.5 -229.5t-30.5 -229t-86.5 -205.5t-134.5 -174t-174 -134.5t-205.5 -86.5t-229 -30.5q-120 0 -230 30.5t-206 86.5 t-174.5 134.5t-134.5 174t-86.5 205.5t-30.5 229z" />
<glyph unicode="&#x2465;" horiz-adv-x="2082" d="M766 654q0 112 23.5 204t67 156.5t106.5 100t143 35.5q38 0 67.5 -7.5t44.5 -16.5q12 -8 20 -17.5t10 -26.5l12 -110q2 -11 -0.5 -15t-9.5 -5l-20 -2q-16 -1 -21 10l-15 38q-16 39 -40 61.5t-68 22.5q-38 0 -72 -21t-60 -66t-43.5 -114t-22.5 -165q18 22 41 41.5 t50.5 34.5t59.5 23.5t69 8.5q47 0 87 -16.5t68.5 -48t44.5 -77.5t16 -104q0 -76 -20.5 -133t-58 -95t-90.5 -57t-117 -19q-50 0 -98.5 15t-87 57t-62.5 116t-24 192zM890 648q-4 -77 7.5 -135.5t34 -97.5t54.5 -59t70 -20q66 0 104 54t38 158q0 37 -8 68.5t-24.5 55 t-42.5 37t-61 13.5q-54 0 -97 -19.5t-75 -54.5zM296 708q0 -102 26.5 -196.5t75 -177t117 -150.5t151 -116.5t178 -75t198.5 -26.5q102 0 197 26.5t178 75t151 116.5t116.5 150.5t75 177t26.5 196.5q0 103 -26.5 199t-75 179t-116.5 151t-151 117t-178 75.5t-197 26.5 q-103 0 -198.5 -26.5t-178 -75.5t-151 -117t-117 -151t-75 -179t-26.5 -199zM180 708q0 119 30.5 229.5t86.5 206.5t134.5 174.5t174.5 134.5t206 86.5t230 30.5q119 0 229 -30.5t205.5 -86.5t174 -134.5t134.5 -174.5t86.5 -206.5t30.5 -229.5t-30.5 -229t-86.5 -205.5 t-134.5 -174t-174 -134.5t-205.5 -86.5t-229 -30.5q-120 0 -230 30.5t-206 86.5t-174.5 134.5t-134.5 174t-86.5 205.5t-30.5 229z" />
<glyph unicode="&#x2466;" horiz-adv-x="2082" d="M1272 1140q21 0 29.5 -9t8.5 -29t-7.5 -42t-18.5 -48l-284 -706q-7 -17 -15 -19.5t-23 -2.5h-68q-17 0 -23.5 9.5t1.5 26.5l336 712h-258q-27 0 -47 -6.5t-31 -27.5l-30 -58q-5 -10 -11.5 -12t-20.5 -2q-11 0 -15.5 4t-2.5 16l32 158q4 20 16.5 28t35.5 8h396zM296 708 q0 -102 26.5 -196.5t75 -177t117 -150.5t151 -116.5t178 -75t198.5 -26.5q102 0 197 26.5t178 75t151 116.5t116.5 150.5t75 177t26.5 196.5q0 103 -26.5 199t-75 179t-116.5 151t-151 117t-178 75.5t-197 26.5q-103 0 -198.5 -26.5t-178 -75.5t-151 -117t-117 -151 t-75 -179t-26.5 -199zM180 708q0 119 30.5 229.5t86.5 206.5t134.5 174.5t174.5 134.5t206 86.5t230 30.5q119 0 229 -30.5t205.5 -86.5t174 -134.5t134.5 -174.5t86.5 -206.5t30.5 -229.5t-30.5 -229t-86.5 -205.5t-134.5 -174t-174 -134.5t-205.5 -86.5t-229 -30.5 q-120 0 -230 30.5t-206 86.5t-174.5 134.5t-134.5 174t-86.5 205.5t-30.5 229z" />
<glyph unicode="&#x2467;" horiz-adv-x="2082" d="M1062 1150q50 0 93.5 -13.5t75 -39t49.5 -62.5t18 -85q0 -45 -13 -80t-33 -61.5t-44.5 -44.5t-47.5 -28q28 -12 59.5 -31.5t58 -46.5t43.5 -63t17 -81q0 -112 -81 -176t-235 -64q-65 0 -116 16.5t-86 46t-53.5 70t-18.5 89.5t17 86t42 65t54 47t53 32q-60 41 -94 92.5 t-34 123.5q0 46 19.5 84.5t55.5 66t87 42.5t114 15zM1042 1084q-30 0 -55 -9.5t-43 -26t-28 -39.5t-10 -51q0 -65 43.5 -110t144.5 -84q18 11 33.5 29.5t26.5 41t17.5 48.5t6.5 53q0 66 -35 107t-101 41zM986 698q-54 -32 -83 -81t-29 -103q0 -36 10 -67.5t31 -54.5 t53 -36.5t76 -13.5q85 0 125.5 40t40.5 100q0 46 -20 79t-52 57.5t-72 43.5t-80 36zM296 708q0 -102 26.5 -196.5t75 -177t117 -150.5t151 -116.5t178 -75t198.5 -26.5q102 0 197 26.5t178 75t151 116.5t116.5 150.5t75 177t26.5 196.5q0 103 -26.5 199t-75 179t-116.5 151 t-151 117t-178 75.5t-197 26.5q-103 0 -198.5 -26.5t-178 -75.5t-151 -117t-117 -151t-75 -179t-26.5 -199zM180 708q0 119 30.5 229.5t86.5 206.5t134.5 174.5t174.5 134.5t206 86.5t230 30.5q119 0 229 -30.5t205.5 -86.5t174 -134.5t134.5 -174.5t86.5 -206.5 t30.5 -229.5t-30.5 -229t-86.5 -205.5t-134.5 -174t-174 -134.5t-205.5 -86.5t-229 -30.5q-120 0 -230 30.5t-206 86.5t-174.5 134.5t-134.5 174t-86.5 205.5t-30.5 229z" />
<glyph unicode="&#x2468;" horiz-adv-x="2082" d="M1324 750q0 -106 -24.5 -193.5t-68 -150.5t-104 -97.5t-133.5 -34.5q-51 0 -92 9.5t-56 20.5q-23 16 -26 44l-14 116q-2 11 1 15t11 5l20 2q9 1 13.5 -0.5t6.5 -7.5l16 -40q20 -54 49 -75t79 -21q81 0 136 88t66 270q-33 -41 -86 -64.5t-112 -23.5q-47 0 -90 15.5 t-76.5 46.5t-53.5 76.5t-20 105.5q0 71 20 126t56.5 92.5t87 56.5t112.5 19q52 0 103 -16t90.5 -59.5t64 -122t24.5 -202.5zM1202 778q3 79 -8 136t-33.5 94t-55.5 54.5t-73 17.5q-66 0 -103 -50t-37 -144q0 -83 35.5 -127.5t110.5 -44.5q25 0 50 5t46.5 14t39 20.5 t28.5 24.5zM296 708q0 -102 26.5 -196.5t75 -177t117 -150.5t151 -116.5t178 -75t198.5 -26.5q102 0 197 26.5t178 75t151 116.5t116.5 150.5t75 177t26.5 196.5q0 103 -26.5 199t-75 179t-116.5 151t-151 117t-178 75.5t-197 26.5q-103 0 -198.5 -26.5t-178 -75.5 t-151 -117t-117 -151t-75 -179t-26.5 -199zM180 708q0 119 30.5 229.5t86.5 206.5t134.5 174.5t174.5 134.5t206 86.5t230 30.5q119 0 229 -30.5t205.5 -86.5t174 -134.5t134.5 -174.5t86.5 -206.5t30.5 -229.5t-30.5 -229t-86.5 -205.5t-134.5 -174t-174 -134.5 t-205.5 -86.5t-229 -30.5q-120 0 -230 30.5t-206 86.5t-174.5 134.5t-134.5 174t-86.5 205.5t-30.5 229z" />
<glyph unicode="&#x2469;" horiz-adv-x="2082" d="M970 702q0 228 77 344t219 116q64 0 116 -25t88.5 -77.5t56 -134t19.5 -193.5q0 -228 -77 -343t-219 -115q-65 0 -116.5 24.5t-88 77t-56 133t-19.5 193.5zM1098 732q0 -90 10 -162t31 -122t52 -77t73 -27q43 0 72.5 24.5t47.5 70.5t26 112.5t8 150.5q0 90 -10 162 t-31 123t-52 78t-73 27q-44 0 -73.5 -25t-47.5 -71.5t-25.5 -113t-7.5 -150.5zM782 1150q46 0 46 -58v-656q0 -20 2.5 -33t8.5 -21t16 -12.5t25 -7.5l48 -10q17 -4 23.5 -11.5t6.5 -28.5q0 -18 -6.5 -23t-23.5 -5h-320q-17 0 -23.5 5t-6.5 23q0 21 6.5 28.5t23.5 11.5l48 10 q15 3 25 7.5t16 12.5t8.5 20t2.5 32v578q0 20 -10 26.5t-28 3.5l-76 -14q-11 -2 -15 3t-9 17q-5 14 -4.5 20.5t12.5 11.5q64 24 101.5 38t57.5 21t28.5 9t16.5 2zM296 708q0 -102 26.5 -196.5t75 -177t117 -150.5t151 -116.5t178 -75t198.5 -26.5q102 0 197 26.5t178 75 t151 116.5t116.5 150.5t75 177t26.5 196.5q0 103 -26.5 199t-75 179t-116.5 151t-151 117t-178 75.5t-197 26.5q-103 0 -198.5 -26.5t-178 -75.5t-151 -117t-117 -151t-75 -179t-26.5 -199zM180 708q0 119 30.5 229.5t86.5 206.5t134.5 174.5t174.5 134.5t206 86.5t230 30.5 q119 0 229 -30.5t205.5 -86.5t174 -134.5t134.5 -174.5t86.5 -206.5t30.5 -229.5t-30.5 -229t-86.5 -205.5t-134.5 -174t-174 -134.5t-205.5 -86.5t-229 -30.5q-120 0 -230 30.5t-206 86.5t-174.5 134.5t-134.5 174t-86.5 205.5t-30.5 229z" />
<glyph unicode="&#x25a0;" d="M180 1360h1360v-1360h-1360v1360z" />
<glyph unicode="&#x25b2;" d="M74 0l786 1364l786 -1364h-1572z" />
<glyph unicode="&#x25bc;" d="M1646 1360l-786 -1364l-786 1364h1572z" />
<glyph unicode="&#x25c6;" d="M860 1364l684 -684l-684 -684l-684 684z" />
<glyph unicode="&#x25cf;" d="M180 680q0 94 24.5 181t68.5 162.5t106 137.5t137.5 106t162.5 68.5t181 24.5t181 -24.5t162.5 -68.5t137.5 -106t106 -137.5t68.5 -162.5t24.5 -181t-24.5 -181t-68.5 -162.5t-106 -137.5t-137.5 -106t-162.5 -68.5t-181 -24.5t-181 24.5t-162.5 68.5t-137.5 106 t-106 137.5t-68.5 162.5t-24.5 181z" />
<glyph unicode="&#x25d7;" d="M860 1360q94 0 181 -24.5t162.5 -68.5t137.5 -106t106 -137.5t68.5 -162.5t24.5 -181t-24.5 -181t-68.5 -162.5t-106 -137.5t-137.5 -106t-162.5 -68.5t-181 -24.5v1360z" />
<glyph unicode="&#x2605;" d="M1126 530l178 -432q12 -30 13.5 -50.5t-19.5 -35.5q-14 -10 -27 -10t-26.5 8t-30.5 22l-354 302l-352 -302q-17 -14 -30 -22t-26 -8q-14 0 -28 10q-21 15 -19.5 35.5t13.5 50.5l176 432l-396 242q-29 17 -41.5 33.5t-4.5 40.5q6 20 20 26.5t37 6.5q7 0 16.5 -0.5 t19.5 -1.5l451 -35l108 452q8 32 19 49t37 17t37 -17t19 -49l108 -452l450 35q11 1 21 1.5t18 0.5q23 0 36 -6.5t19 -26.5q8 -24 -4.5 -40t-41.5 -34z" />
<glyph unicode="&#x260e;" horiz-adv-x="1928" d="M1424 504q11 -10 12 -16t-4 -14q-17 -29 -45 -52t-59.5 -39.5t-61.5 -27t-52 -15.5q-37 7 -88 28t-108.5 54t-118 77.5t-115.5 100.5q-55 55 -99.5 115t-77.5 118t-54.5 109.5t-28.5 89.5q5 22 15.5 52.5t26.5 61.5t38.5 58.5t51.5 43.5q11 6 16.5 5t15.5 -13l182 -222 q15 -19 0 -34q-24 -24 -49.5 -39t-48.5 -29q23 -38 62.5 -85.5t84.5 -92.5q46 -45 95 -85.5t88 -64.5q11 24 26.5 49t39.5 49q16 15 34 0zM180 764q0 108 28 208t79 187t123 159t159 123t187 79t208 28t208 -28t187 -79t159 -123t123 -159t79 -187t28 -208t-28 -208 t-79 -187t-123 -159t-159 -123t-187 -79t-208 -28t-208 28t-187 79t-159 123t-123 159t-79 187t-28 208zM290 766q0 -92 24.5 -178.5t68.5 -161.5t106 -137t137 -106t161 -68.5t179 -24.5q94 0 180.5 24.5t162 68.5t137.5 106t106.5 137t69 161t24.5 179t-24.5 180 t-69 162.5t-106.5 137.5t-137.5 106.5t-162.5 69t-180 24.5q-92 0 -178.5 -24.5t-161.5 -69t-137 -106.5t-106 -137.5t-68.5 -162.5t-24.5 -180z" />
<glyph unicode="&#x261b;" horiz-adv-x="2228" d="M1696 1160l500 -50q7 -62 -1.5 -102t-31 -63.5t-58 -33t-81.5 -9.5h-142l-266 -18l-178 -48l138 -86q59 -36 88.5 -70t29.5 -76q0 -24 -9 -46t-25 -40t-38.5 -30.5t-49.5 -17.5q7 -32 3.5 -63t-20 -56.5t-47 -44.5t-76.5 -28q4 -36 -6.5 -65t-31 -50t-48.5 -32t-58 -11 t-59 6.5t-73 21.5l-118 42q-35 -5 -82.5 -9.5t-91.5 -4.5q-41 0 -85.5 3.5t-89 9.5t-87.5 15t-82 20l-118 -16q-29 -4 -47.5 -4.5t-31 4t-19.5 13.5t-13 25q-23 64 -37.5 134.5t-22.5 142.5t-11.5 142.5t-3.5 134.5q0 21 3.5 35t12 23t22.5 13t36 5l174 8l510 210 q37 15 65.5 25t53.5 15.5t49.5 8t55.5 3.5z" />
<glyph unicode="&#x261e;" horiz-adv-x="2228" d="M1696 1160l500 -50q8 -63 -1.5 -109t-33.5 -76t-61.5 -44.5t-85.5 -14.5q-21 0 -49.5 2t-82.5 10l-258 -10l-186 -48l138 -70q62 -32 90 -68t28 -78q0 -24 -9 -46t-25 -40t-38.5 -30.5t-49.5 -17.5q7 -32 3.5 -63t-20 -56.5t-47 -44.5t-76.5 -28q4 -36 -6.5 -65t-31 -50 t-48.5 -32t-58 -11t-59 6.5t-73 21.5l-118 42q-35 -5 -82.5 -9.5t-91.5 -4.5q-41 0 -85.5 3.5t-89 9.5t-87.5 15t-82 20l-118 -16q-29 -4 -47.5 -4.5t-31 4t-19.5 13.5t-13 25q-23 64 -37.5 134.5t-22.5 142.5t-11.5 142.5t-3.5 134.5q0 21 3.5 35t12 23t22.5 13t36 5l174 8 l510 210q37 15 65.5 25t53.5 15.5t49.5 8t55.5 3.5zM534 296q74 -23 162 -37.5t168 -14.5q54 0 103 6t87 12l148 -58q26 -10 47 -14t41 -4q22 0 39 8.5t27 23.5t13 34.5t-1 41.5l-270 116q-22 9 -31.5 22t-4.5 28q8 21 22.5 22.5t37.5 -8.5l306 -136q51 12 72.5 48.5 t7.5 83.5l-332 156q-18 8 -22 27t10 33q15 15 48 0l340 -162q41 6 60.5 27.5t19.5 50.5q0 24 -20 47.5t-64 44.5l-268 132q-17 8 -21 24t7 30q11 13 24.5 12.5t31.5 -8.5l36 -16l262 68l268 10q58 -8 86 -10t40 -2q59 2 89 28.5t25 85.5l-462 42l-486 -16q-23 -1 -42.5 -3.5 t-41 -9t-49 -17t-67.5 -26.5l-498 -202l-192 -10q-2 -65 0 -128.5t10 -129t22 -134t36 -142.5z" />
<glyph unicode="&#x2660;" d="M860 1360q49 -70 113.5 -131.5t131.5 -120t132 -115t116 -116.5t82 -125.5t31 -139.5q0 -62 -22.5 -115.5t-63 -93t-97 -62.5t-123.5 -23q-64 0 -127.5 25.5t-117.5 83.5l3 -327h306q14 0 20 -5.5t6 -22.5v-44q0 -28 -26 -28h-728q-26 0 -26 28v44q0 17 6 22.5t20 5.5 h306l3 328q-56 -59 -120.5 -84.5t-128.5 -25.5q-67 0 -122.5 23t-95.5 62.5t-62 93t-22 115.5q0 74 31 139.5t82 125.5t116 117t132 115.5t131 120t114 130.5z" />
<glyph unicode="&#x2663;" d="M572 1072q0 60 22.5 113t61.5 92t91.5 62t112.5 23t113 -23t92 -62t62 -92t23 -113q0 -44 -12.5 -83.5t-35.5 -74.5q27 6 58 6q62 0 117 -24t96 -65t65 -96t24 -117t-24 -117t-65 -95.5t-96 -64t-117 -23.5q-77 0 -140.5 34.5t-105.5 92.5l4 -345h306q14 0 20 -5.5 t6 -22.5v-44q0 -28 -26 -28h-728q-26 0 -26 28v44q0 17 6 22.5t20 5.5h306l3 347q-41 -59 -105.5 -94t-141.5 -35q-62 0 -117 23.5t-95.5 64t-64 95.5t-23.5 117t23.5 117t64 96t95.5 65t117 24q30 0 60 -6q-46 67 -46 158z" />
<glyph unicode="&#x2665;" d="M858 -16q-87 111 -168.5 207t-152 182t-128.5 163.5t-99.5 152.5t-64.5 149t-23 152q0 81 23.5 149t65.5 117t100.5 76.5t128.5 27.5q43 0 86 -13.5t83.5 -40.5t78.5 -69t70 -99q63 114 145.5 168t168.5 54q72 0 131.5 -27.5t102.5 -76.5t66.5 -117t23.5 -149 q0 -78 -23 -152t-64.5 -148.5t-100 -152.5t-129.5 -163.5t-152.5 -182t-168.5 -207.5z" />
<glyph unicode="&#x2666;" d="M860 1380l520 -702l-520 -702l-520 702z" />
<glyph unicode="&#x2701;" horiz-adv-x="2650" d="M920 1028q32 0 55 21t23 53q0 31 -16 63.5t-42 59t-59 43t-67 16.5q-30 0 -53 -22.5t-23 -55.5q0 -32 17 -63.5t44 -57t59 -41.5t62 -16zM1446 0q-78 78 -149 153t-127 135q-88 12 -172 29.5t-159 36t-138 36.5t-109 32q17 -18 27.5 -42t10.5 -50q0 -36 -16.5 -64 t-43 -47t-60.5 -29t-68 -10q-50 0 -97 15t-83.5 42t-59 63.5t-22.5 79.5q0 40 15.5 69.5t42.5 49t62.5 29.5t75.5 10q50 0 107 -9t118 -20t123.5 -22t124.5 -15t121 2t112 28q-10 71 -44.5 137t-81.5 128t-99 120.5t-96 113.5t-72.5 107t-28.5 102q0 30 11.5 57t31.5 48 t47.5 33t59.5 12q50 0 98.5 -21t86 -57t60.5 -83.5t23 -100.5q0 -28 -11 -52.5t-30 -42.5t-44.5 -28.5t-54.5 -10.5q-8 0 -16.5 1t-17.5 3q34 -33 81.5 -79t101.5 -102t111.5 -120.5t111.5 -134.5q79 -18 174.5 -40.5t198.5 -50t208 -58t201 -63t178.5 -66.5t141.5 -68 q19 -11 30.5 -22t17.5 -23.5t8 -27t2 -33.5l-1004 200l246 -280h-266zM444 256q19 0 39 5.5t36.5 16.5t27.5 28t11 40q0 27 -17 48.5t-44 36.5t-59 23t-62 8q-23 0 -44 -5t-37 -15.5t-25.5 -26t-9.5 -37.5q0 -31 19 -54t47 -38t60 -22.5t58 -7.5z" />
<glyph unicode="&#x2702;" horiz-adv-x="2650" d="M624 1076q0 21 -14 42.5t-38 38.5t-57.5 28t-72.5 11q-54 0 -84 -24t-30 -62q0 -21 14 -42.5t38 -38.5t57.5 -28t72.5 -11q54 0 84 24t30 62zM2402 304q-11 -36 -35 -49t-69 -13q-68 0 -156 12t-188 32t-205.5 46t-208.5 54t-197.5 56t-170.5 52q-82 -34 -163.5 -61 t-156 -48.5t-138.5 -37.5t-110 -27q41 -14 69.5 -47.5t28.5 -80.5q0 -41 -21.5 -76.5t-57.5 -62t-83 -42t-98 -15.5q-44 0 -79.5 10.5t-61 30.5t-39.5 49t-14 66q0 47 24 82.5t64.5 63t94 50t114 44t123.5 44t122 50.5t110 64t88 84q-37 48 -88 84t-110 64t-122 50.5 t-123.5 44t-114 44t-94 50t-64.5 63t-24 82.5q0 37 14 66t39.5 49t61 30.5t79.5 10.5q51 0 98 -15.5t83 -42t57.5 -62.5t21.5 -76q0 -47 -28.5 -80.5t-69.5 -47.5q46 -11 110 -27t138.5 -37.5t156 -48.5t163.5 -61q76 24 170.5 52t197.5 56t208.5 54t205.5 46t188 32t156 12 q45 0 69 -13t35 -49l-970 -330zM624 192q0 38 -30 62t-84 24q-39 0 -72.5 -11t-57.5 -28t-38 -38.5t-14 -42.5q0 -38 30 -62t84 -24q39 0 72.5 11t57.5 28t38 38.5t14 42.5z" />
<glyph unicode="&#x2703;" horiz-adv-x="2650" d="M920 -88q-30 0 -62 -16t-59 -41.5t-44 -57.5t-17 -63q0 -33 23 -55.5t53 -22.5q34 0 67 16.5t59 43t42 58.5t16 64t-23 53t-55 21zM1712 940l-246 -280l1004 200q0 -19 -2 -33.5t-8 -27t-17.5 -23.5t-30.5 -22q-59 -34 -141.5 -68t-178.5 -66.5t-201 -63t-208 -58 t-199 -50.5t-174 -40q-54 -70 -111.5 -134.5t-111.5 -120.5t-101.5 -102t-81.5 -79q9 2 17.5 3t16.5 1q29 0 54.5 -10.5t44.5 -28.5t30 -42.5t11 -52.5q0 -53 -23 -100.5t-60.5 -83.5t-86 -57t-98.5 -21q-32 0 -59.5 12t-47.5 33t-31.5 48t-11.5 57q0 50 28.5 102t72.5 107 t96 113.5t99 120.5t81.5 128t44.5 137q-53 22 -112 28t-121 2t-124.5 -15t-123.5 -22t-118 -20t-107 -9q-40 0 -75.5 10t-62.5 29.5t-42.5 49t-15.5 69.5q0 43 22.5 79.5t59 63.5t83.5 42t97 15q34 0 68 -10t60.5 -29t43 -47t16.5 -64q0 -26 -10.5 -50t-27.5 -42 q46 13 109 31.5t138 37t159 36t172 29.5q56 60 127 135t149 153h266zM444 684q-26 0 -58 -7.5t-60 -22.5t-47 -38t-19 -54q0 -22 9.5 -37.5t25.5 -26t37 -15.5t44 -5q30 0 62 8t59 23t44 36.5t17 48.5q0 23 -11 40t-27.5 28t-36.5 16.5t-39 5.5z" />
<glyph unicode="&#x2704;" horiz-adv-x="2650" d="M1194 474q-113 -83 -237.5 -123.5t-254.5 -52.5q2 -6 3 -13t1 -15q0 -41 -16 -75.5t-45 -59t-70 -38t-91 -13.5q-51 0 -92.5 13.5t-71.5 38t-46 59t-16 75.5q0 83 63 130.5t175 47.5q81 0 158.5 15.5t146 41t125.5 59t98 68.5q-41 36 -98 70t-126 60t-146.5 42t-157.5 16 q-112 0 -175 47.5t-63 130.5q0 41 16 75.5t46 59t71.5 38t92.5 13.5q50 0 91 -13.5t70 -38t45 -59t16 -75.5q0 -15 -4 -28q129 -12 248.5 -52.5t235.5 -125.5q78 49 171 94t191.5 83.5t199.5 70t196 54t180 34.5t152 12q60 0 88.5 -36t25.5 -126l-986 -340l986 -348 q3 -90 -25.5 -126t-88.5 -36q-67 0 -151.5 12t-178.5 34t-194 53.5t-197.5 70t-190 83t-170.5 93.5zM1128 642q-51 -52 -110 -93t-123.5 -71t-132.5 -49.5t-136 -28.5q14 -6 29 -21t23 -27q97 13 182 35.5t163.5 60.5t154.5 93.5t156 134.5l984 352q0 44 -36 44 q-63 0 -148 -12.5t-182 -35t-200 -54t-201.5 -70.5t-187.5 -84t-157 -94zM1340 592l-88 -72q66 -42 150.5 -82.5t178 -76.5t191 -66t190 -52t175 -34.5t145.5 -12.5q36 0 36 44zM632 998q0 50 -40 82t-108 32q-35 0 -63.5 -9t-48 -24.5t-30 -36.5t-10.5 -44t11 -43.5 t31 -35.5t48 -24t62 -9q68 0 108 32.5t40 79.5zM626 868q67 -6 130.5 -25t120.5 -45t106.5 -56.5t88.5 -59.5q5 4 13 12.5t17 17.5t17 18t13 14q-41 35 -93 64.5t-111 52t-122.5 36.5t-127.5 19q-8 -12 -23 -27t-29 -21zM632 270q0 47 -40 79.5t-108 32.5q-34 0 -62 -9 t-48 -24t-31 -35.5t-11 -43.5t10.5 -44t30 -36.5t48 -24.5t63.5 -9q68 0 108 32t40 82z" />
<glyph unicode="&#x2705;" horiz-adv-x="1760" d="M694 0q-50 0 -96 31.5t-102 106.5l-316 428q-12 17 -20 33.5t-8 34.5q0 23 9.5 42.5t32.5 37.5l64 54q18 15 33.5 21.5t32.5 6.5q18 0 37.5 -8t40.5 -26l276 -234l646 782q21 26 44.5 38t47.5 12q23 0 45.5 -10.5t42.5 -27.5l54 -44q32 -26 43 -49.5t11 -46.5 q0 -18 -7 -35t-25 -43l-656 -928q-35 -49 -64.5 -82.5t-57 -54.5t-54 -30t-54.5 -9zM252 660q-18 -15 -18 -28q0 -11 12 -26l324 -434q23 -31 41.5 -49.5t33.5 -28.5t27 -13t22 -3q16 0 31.5 4.5t32.5 17t37 35.5t47 61l674 952q9 12 12.5 21t3.5 15q0 9 -5.5 17.5 t-14.5 16.5l-64 52q-8 7 -16 9.5t-14 2.5q-17 0 -34 -20l-698 -848l-340 292q-5 5 -10 8.5t-10 3.5q-10 0 -18 -8z" />
<glyph unicode="&#x2706;" horiz-adv-x="1840" d="M834 584q35 -35 73.5 -69.5t76.5 -66t74 -58.5t68 -46q15 33 35 74.5t53 83.5q17 21 35 18.5t35 -16.5l350 -286q26 -20 26 -42q0 -16 -12 -34q-28 -40 -72.5 -75t-94 -63t-98.5 -47.5t-85 -26.5q-60 13 -143.5 48t-177 89t-190.5 126.5t-185 160.5t-160 185t-126 190 t-88.5 176t-47.5 143q7 36 26.5 85t47.5 98.5t63 94t75 72.5q18 12 34 12q22 0 42 -26l286 -350q14 -17 16.5 -35t-18.5 -35q-42 -33 -83.5 -53t-74.5 -35q19 -32 46 -68t58.5 -74t66 -76.5t69.5 -73.5zM658 408q88 -89 182 -158t180.5 -119.5t159.5 -81.5t120 -43 q26 5 63.5 21.5t76 39.5t73.5 50t57 53l-318 262q-14 -14 -29 -48.5t-45 -87.5q-15 -27 -36.5 -31.5t-47.5 9.5q-35 19 -75 48t-81 63.5t-81.5 71.5t-76.5 73t-73 76.5t-71.5 81.5t-63.5 81t-48 75q-14 26 -9.5 47.5t31.5 36.5q53 30 87.5 45t48.5 29l-262 322 q-26 -22 -53 -57.5t-49.5 -75t-38.5 -77.5t-21 -64q12 -47 43 -120t80.5 -159.5t118.5 -180.5t158 -182z" />
<glyph unicode="&#x2707;" horiz-adv-x="2338" d="M2080 1252q45 0 61.5 -18t16.5 -60v-1096q0 -23 -3.5 -38t-12.5 -24t-24 -12.5t-38 -3.5h-1822q-47 0 -62.5 15.5t-15.5 54.5v1104q0 23 3.5 38t11.5 24t21.5 12.5t33.5 3.5h1830zM1740 78l-44 272h-1054l-44 -272h1142zM2080 1174h-1822v-1096h260l48 280q4 21 8 35 t11.5 21.5t19 10.5t29.5 3h1072q16 0 27.5 -3t19.5 -10.5t13 -21.5t8 -35l44 -280h262v1096zM754 506q-56 0 -95 18t-64.5 48t-37 68.5t-11.5 79.5t11.5 80.5t36.5 70t64 49t94 18.5h852q56 0 95.5 -18.5t64.5 -49t36.5 -70t11.5 -80.5t-11.5 -79.5t-36.5 -68.5t-64.5 -48 t-95.5 -18h-850zM770 870q-40 0 -68.5 -13.5t-47 -34.5t-27.5 -48t-9 -54t9 -53t27.5 -47t47 -33.5t68.5 -12.5h818q40 0 69 12.5t47.5 33.5t27 47t8.5 53t-8.5 54t-27 48t-47.5 34.5t-69 13.5h-818zM780 616q-44 0 -73 30t-29 74t29 74t73 30q22 0 41.5 -8t33 -22t21.5 -33 t8 -41t-8 -41t-21.5 -33t-33 -22t-41.5 -8zM778 762q-18 0 -29 -12t-11 -30t11 -29t29 -11t30 11t12 29t-12 30t-30 12zM1578 616q-44 0 -74 30t-30 74t30 74t74 30t74 -30t30 -74t-30 -74t-74 -30zM1576 762q-18 0 -29 -12t-11 -30t11 -29t29 -11t30 11t12 29t-12 30 t-30 12z" />
<glyph unicode="&#x2708;" horiz-adv-x="2382" d="M1114 1594q21 -3 41.5 -13t36.5 -39l424 -762q135 -3 227.5 -13t155.5 -26t101.5 -37.5t65.5 -47.5q30 -30 35 -67t-35 -77q-26 -26 -66 -47.5t-104 -37.5t-156.5 -26.5t-223.5 -13.5l-424 -761q-16 -29 -36.5 -39t-41.5 -13l-150 -24q-43 -6 -66 20q-11 13 -12.5 31.5 t4.5 40.5l217 754q-202 11 -354 29.5t-247 40.5l-106 -232q-11 -23 -25.5 -34t-38.5 -10l-112 2q-21 0 -34 13.5t-6 38.5l98 338l-98 342q-7 25 6 37.5t34 14.5l112 2q25 1 39 -10t25 -34l106 -232q95 21 247 40t354 30l-217 754q-6 22 -4.5 40.5t12.5 31.5q23 26 66 20z M460 546q83 -21 202.5 -37t257.5 -27t286 -16.5t288 -5.5q109 0 192.5 3.5t147 10t109 15.5t78 21t54 26t37.5 30q8 8 8.5 17.5t-8.5 18.5q-16 16 -37.5 30t-54 26t-78 21t-109 15.5t-147 10t-192.5 3.5q-140 0 -288 -5.5t-286 -16.5t-257.5 -27t-202.5 -37l-124 284h-72 l92 -322l-92 -322h72zM968 1542l220 -766q142 6 306 6h34l-410 736zM1494 386q-164 0 -306 6l-220 -766l150 24l410 736h-34z" />
<glyph unicode="&#x2709;" horiz-adv-x="2036" d="M1856 264q0 -41 -13 -54.5t-51 -13.5h-1548q-20 0 -32 3t-19.5 10.5t-10 21t-2.5 33.5v894q0 41 13.5 54.5t54.5 13.5h1540q41 0 54.5 -13.5t13.5 -54.5v-894zM1648 1104l72 46l-124 -2h-1156l-124 2l72 -46l630 -466zM1184 668l-128 -98q-19 -14 -37 -14t-37 14l-128 98 l-466 -352l-74 -48l126 4h1158l124 -2l-72 46zM1246 712l476 -360l60 -48l-2 92v632l2 88l-62 -48zM258 396l-4 -92l60 48l478 360l-476 356l-60 48l2 -92v-628z" />
<glyph unicode="&#x270a;" horiz-adv-x="1600" d="M1086 1300q65 0 100.5 -40.5t39.5 -117.5l6 -128q11 -12 23 -25.5t25.5 -30t30.5 -37t39 -47.5q34 -42 50 -85t16 -81q0 -58 -13.5 -132.5t-38.5 -153.5t-61 -155t-80.5 -136t-96.5 -96.5t-110 -36.5q-25 0 -51.5 9t-53.5 20t-53.5 20t-51.5 9q-17 0 -41 -9t-53 -19.5 t-62 -19t-68 -8.5q-81 0 -141 38.5t-99 99t-58.5 134t-19.5 144.5q0 17 1 39.5t3 42.5q-9 18 -15.5 37t-14.5 55l-46 228q-9 46 -2 86.5t31 72t65 52t100 27.5q30 72 72 105t108 33q31 0 74 -8q30 51 75.5 86.5t96.5 35.5q35 0 65 -12t63 -30q9 4 26.5 9.5t38.5 11t42.5 9.5 t38.5 4zM404 398q-17 0 -36.5 8t-39.5 26q0 -65 17.5 -129.5t50.5 -116t80 -84t106 -32.5q40 0 71.5 8.5t58.5 18.5t52.5 18.5t53.5 8.5q24 0 49 -9t50 -19.5t50 -19t49 -8.5q46 0 88.5 33t79 86.5t66.5 122t51.5 138.5t33 135.5t11.5 114.5q0 30 -13 62t-33 58l-84 110 q-21 28 -46.5 47t-67.5 19q-8 0 -22 -1t-32 -3l-20 -2q-42 -5 -85.5 -11.5t-85.5 -12.5t-81.5 -10t-73.5 -4q-3 -11 -4.5 -22t-1.5 -20q0 -32 18 -55t48 -38.5t69 -23t81 -7.5q26 0 39.5 2t30.5 2q29 0 42 -13.5t16 -36.5l2 -18q2 -20 0.5 -37.5t-10 -36t-25 -40.5 t-43.5 -50q-32 -34 -55 -65.5t-38 -64t-22 -68t-7 -76.5q0 -44 -34 -44q-40 0 -40 44q0 54 10.5 105t39.5 101q-15 5 -32.5 19.5t-23.5 26.5q-8 -48 -42 -82t-88 -34q-36 0 -64 15.5t-48 50.5q-14 -39 -44 -62.5t-72 -23.5zM632 1122q-17 4 -32 6t-29 2q-46 0 -74 -23 t-45 -73l78 -404q9 -45 20 -73t24.5 -44t28 -21.5t29.5 -5.5q42 0 65 31.5t23 88.5q0 11 -2.5 33t-5.5 46.5t-6.5 48.5t-5.5 40q-29 20 -50.5 50.5t-21.5 83.5q0 23 6.5 49t17.5 41zM386 992q-81 -15 -108 -63.5t-12 -120.5l44 -216q8 -41 19.5 -66t24 -38.5t26 -17.5 t26.5 -4q30 0 46 20t16 51q0 14 -1.5 34t-6.5 43zM810 1238q-30 0 -61.5 -23t-54.5 -67l18 -138q25 0 54.5 3t57 7t50.5 8t36 6l-12 180q-39 24 -88 24zM1078 1228q-21 0 -54.5 -6.5t-57.5 -15.5l8 -162q38 8 67 11t43 3q24 0 46 -4t34 -10l-6 82q-5 59 -23.5 80.5 t-56.5 21.5zM780 644q5 -29 13 -48.5t17.5 -31.5t21 -18t24.5 -8q13 18 34 38t40 41t32 42t12 41l-2 22q-23 -2 -49.5 -1.5t-54.5 3.5t-55.5 9t-50.5 15z" />
<glyph unicode="&#x270b;" horiz-adv-x="1600" d="M878 1656q14 26 38.5 39t51.5 13q62 0 98 -43.5t36 -120.5l4 -786l102 88q19 59 42.5 98.5t51 63t58 33t62.5 9.5q47 0 90.5 -15t73.5 -39q-17 -32 -32.5 -66.5t-28.5 -68t-24 -64.5t-19 -55q-14 -41 -41 -92.5t-58.5 -105t-62 -104t-52.5 -88.5q-38 -65 -81 -128.5 t-93 -113t-107.5 -80t-124.5 -30.5q-35 0 -65 8.5t-56 19t-49 19.5t-44 9t-40 -9t-39.5 -20t-45 -20t-55.5 -9q-77 0 -137 42.5t-101.5 115t-63.5 168t-22 202.5q0 45 4 90.5t12 91.5l32 602q4 68 41 107t87 39q41 0 68 -24l2 88q2 71 39.5 113.5t96.5 42.5q27 0 49 -12.5 t33 -33.5q6 60 41 100t95 40t94.5 -32t39.5 -82zM890 931q15 -2 25 -4t23 -5q18 -5 24 -13.5t6 -20.5t-6.5 -20t-23.5 -8t-38 4t-55 9t-84 9t-123 4q-62 0 -112 -15.5t-88.5 -33.5t-65.5 -33.5t-42 -15.5q-14 0 -22 8.5t-8 23.5q0 18 16 28q27 15 64 32l4 430q0 38 -14 58 t-44 20t-46 -20t-18 -58l-30 -594q-8 -50 -12 -97t-4 -93q0 -97 17 -180.5t49.5 -145t79 -97t106.5 -35.5q24 0 46 8.5t43.5 19t43.5 19.5t47 9q32 0 54.5 -8.5t45 -18.5t48.5 -18.5t66 -8.5q57 0 104.5 27t88 69.5t75 94t64.5 101.5q31 51 64.5 105.5t64.5 107t55.5 99.5 t37.5 82q18 51 38 108t44 102q-15 5 -32.5 10.5t-43.5 5.5q-20 0 -39.5 -5.5t-39 -23.5t-37 -50.5t-32.5 -86.5l-130 -114q-20 -17 -35 -26.5t-29 -9.5q-38 0 -38 52l-8 834q-1 44 -20.5 66t-51.5 22q-30 0 -51 -22t-21 -66v-621zM658 950q42 -1 84.5 -3t81.5 -7l-2 656 q0 53 -20 79.5t-58 26.5q-76 0 -78 -106zM444 907q35 14 72 24t74 15l8 574q1 46 -22 67t-50 21q-30 0 -50.5 -20.5t-21.5 -67.5z" />
<glyph unicode="&#x270c;" horiz-adv-x="1600" d="M958 1040l36 540q5 75 45.5 115.5t102.5 40.5q28 0 56.5 -10.5t49.5 -32.5t32.5 -55.5t7.5 -79.5l-50 -536q11 -13 21.5 -25.5t23 -28t28.5 -35.5t37 -47q16 -21 28.5 -45.5t21.5 -48.5t13.5 -46t4.5 -38q0 -58 -13.5 -132.5t-39 -153.5t-61.5 -155t-80.5 -136 t-96.5 -96.5t-109 -36.5q-25 0 -51.5 9t-53.5 20t-53.5 20t-51.5 9q-17 0 -41 -9t-53 -19.5t-62 -19t-68 -8.5q-81 0 -141 38.5t-99 99t-58.5 134t-19.5 144.5q0 17 1 39.5t3 42.5q-9 18 -15.5 37t-14.5 55l-42 210q-21 107 25.5 174t164.5 82q11 29 29 54.5t41.5 44.5 t51.5 30t60 11q24 0 40 -7t28 -21l-20 322q-2 38 -3 62.5t-1 53.5q0 35 9.5 65.5t28.5 53t46.5 35t63.5 12.5q30 0 56 -9.5t46 -31t32.5 -56.5t15.5 -85l30 -552zM972 722q-23 -2 -49.5 -1.5t-54.5 3.5t-55.5 9t-50.5 15l14 -100q2 -19 3 -35.5t1 -29.5q0 -29 -8 -58.5 t-25.5 -53t-46 -38.5t-68.5 -15q-36 0 -64 15.5t-48 50.5q-14 -39 -44 -62.5t-72 -23.5q-17 0 -38.5 8t-41.5 26q0 -65 18.5 -129.5t52 -116t81 -84t106.5 -32.5q40 0 71.5 8.5t58.5 18.5t52 18.5t52 8.5q25 0 50 -9t50.5 -19.5t50.5 -19t49 -8.5q46 0 87.5 33t78 86.5 t66.5 121.5t51.5 138t33 135t11.5 114q0 32 -13 71t-33 65l-82 108q-21 28 -46.5 41t-67.5 13q-13 0 -64 -6l-18 -2q-84 -9 -166.5 -22.5t-151.5 -13.5q-3 -11 -4.5 -22t-1.5 -20q0 -32 18 -55t48 -38.5t69 -23t81 -7.5q26 0 39.5 2t30.5 2q29 0 42 -13.5t16 -36.5l2 -18 q2 -20 0.5 -37.5t-10 -36t-25 -40.5t-43.5 -50q-32 -34 -55.5 -65.5t-38.5 -64t-22.5 -68t-7.5 -76.5q0 -44 -34 -44q-40 0 -40 44q0 92 30.5 161.5t95.5 134.5q38 38 60 66.5t22 55.5v10q0 4 -2 12zM650 1032q-6 56 -24.5 77t-53.5 21q-41 0 -75.5 -28t-48.5 -72l80 -400 q9 -44 20.5 -72t25 -44t28.5 -22t30 -6q86 0 86 114q0 20 -5 66.5t-13 105.5q-14 10 -27 23t-23 29.5t-16 37t-6 46.5q0 23 7.5 50t18.5 44zM760 1702q-35 0 -56.5 -24.5t-21.5 -71.5v-44q0 -22 2 -48l28 -502q25 0 50.5 2t48 4.5t40 5t27.5 4.5l-38 548q-5 70 -23 98 t-57 28zM1220 1558q5 51 -15.5 78.5t-62.5 27.5q-30 0 -52 -19t-26 -67l-40 -524q21 2 39 3t29 1q21 0 43 -2t37 -10zM386 992q-81 -15 -109 -59.5t-11 -124.5l44 -216q8 -41 19.5 -65.5t24 -38t26 -18t26.5 -4.5q30 0 47 20t17 51q0 14 -2.5 34t-7.5 43z" />
<glyph unicode="&#x270d;" horiz-adv-x="2324" d="M316 312l52 58q-38 5 -62 33t-24 69q16 28 33 67l34 78q17 39 35 74t38 57q11 12 40 41t65 66.5t75.5 79t71.5 77.5q12 13 21.5 23t18.5 17.5t17.5 13t18.5 10.5q14 7 39.5 16t57 16.5t66 14t67.5 9.5l184 232q20 26 46 26q8 0 15 -2t17 -10l152 -120q22 -17 22 -38 q0 -11 -5 -22t-13 -20l-40 -52q14 -2 26 -4t24 -10l402 -244l194 8q33 2 50 -7t22 -39q7 -40 11.5 -74.5t7.5 -69.5t4 -74t1 -88q0 -59 -9 -108.5t-21.5 -87t-25.5 -61.5t-20 -31q-12 -12 -26.5 -14t-43.5 -2q-38 0 -92 -11.5t-112 -25.5t-115 -25.5t-101 -11.5 q-61 0 -109.5 7t-89 17.5t-75.5 22.5t-70.5 22.5t-73.5 17.5t-84 7q-20 0 -49.5 -1.5t-62.5 -3t-67.5 -2.5t-64.5 -1q-20 0 -44 1.5t-46.5 3.5t-41 4.5t-28.5 4.5l-102 -122l-340 -170zM1374 1048q-17 11 -37.5 13.5t-32.5 4.5l-234 -282l122 6l18 28q11 15 19 19.5t19 4.5 q15 0 23.5 -9t8.5 -23q0 -6 -2 -13.5t-10 -18.5l-116 -172l68 4q18 2 29 -6t11 -28t-11 -28t-31 -8h-154q-43 0 -78.5 3t-71 7t-73.5 7t-85 3h-86q-83 0 -126.5 -33t-43.5 -95q0 -27 15.5 -50.5t44 -40.5t70 -27t94.5 -10h62q74 0 134.5 4t111.5 4q53 0 94.5 -7t78 -17.5 t70.5 -22.5t73 -22.5t85.5 -17.5t108.5 -7q68 0 118 11.5t96.5 25.5t97 25.5t120.5 11.5q10 18 19.5 44t17 57t11.5 64.5t4 66.5q0 86 -5 157t-17 125l-220 -8zM664 628l188 -4l484 588l-126 100zM784 1020q-27 -23 -58 -53t-63.5 -63.5t-63.5 -67t-57 -62t-44.5 -50 t-26.5 -30.5q-19 -22 -35 -51.5t-30 -59.5t-26 -58t-22 -47q0 -30 18.5 -44t51.5 -12q5 74 42.5 123t103.5 67q14 26 38.5 62t63.5 84l250 304q-16 -2 -35 -7t-38.5 -11t-37.5 -12t-31 -12zM1024 726l-90 -110q14 -2 33 -4.5t38.5 -4t38.5 -2t34 0.5l80 124zM496 200l60 72 q-14 4 -30 13t-31 21t-27 26.5t-18 29.5l-58 -72zM448 158l-92 78l-66 -166z" />
<glyph unicode="&#x270e;" horiz-adv-x="1826" d="M444 1408l620 -622q3 21 12 41t24 35q17 17 39 28t45 16l-622 620zM1100 694q-29 -5 -59.5 -19t-50.5 -35q-11 -11 -23.5 -33.5t-20.5 -46.5l354 -168q6 18 15 34t23 30t30 23t34 15l-168 354q-24 -8 -46.5 -20.5t-33.5 -23.5q-21 -20 -35 -50.5t-19 -59.5zM512 1586 q15 15 27 21.5t23 6.5t22 -5.5t26 -20.5l684 -688l352 -752l-752 352l-688 684q-15 15 -20.5 26t-5.5 22q0 22 28 50zM268 1232l620 -622q5 23 16 45t28 39q12 12 32.5 22.5t43.5 13.5l-622 620z" />
<glyph unicode="&#x270f;" horiz-adv-x="2178" d="M254 830h882q-14 17 -21 38t-7 44t8 47.5t20 42.5h-882v-172zM1228 792q-18 -24 -30 -55.5t-12 -60.5q0 -15 7 -40t19 -48l370 132q-18 33 -18 72t18 72l-370 134q-12 -23 -19 -49t-7 -41q0 -29 12 -60.5t30 -55.5zM178 1006q0 40 16 56q8 8 19.5 12t32.5 4h972l780 -286 l-780 -286h-972q-21 0 -32.5 4t-19.5 12q-16 16 -16 56v428zM254 582h882q-12 18 -20 42.5t-8 47.5q0 18 7 41t21 41h-882v-172z" />
<glyph unicode="&#x2710;" horiz-adv-x="1826" d="M386 234l622 620q-21 3 -41 12t-35 24q-17 17 -28 39t-16 45l-620 -622zM1100 890q5 -29 19 -59.5t35 -50.5q11 -11 33.5 -23.5t46.5 -20.5l168 354q-18 6 -34 15t-30 23t-23 30t-15 34l-354 -168q8 -24 20.5 -46.5t23.5 -33.5q20 -21 50.5 -35t59.5 -19zM208 302 q-15 15 -21.5 27t-6.5 23t5.5 22t20.5 26l688 684l752 352l-352 -752l-684 -688q-15 -15 -26 -20.5t-22 -5.5t-23 6.5t-27 21.5zM562 58l622 620q-23 5 -45 16t-39 28q-12 12 -22.5 32.5t-13.5 43.5l-620 -622z" />
<glyph unicode="&#x2711;" horiz-adv-x="1830" d="M220 360q-18 0 -29 9.5t-11 32.5v592q0 23 11 32.5t29 9.5h170q18 0 28 -9.5t10 -32.5v-30q95 -1 173.5 8.5t138.5 25.5t102.5 37.5t65.5 44.5l6 6q9 9 17 13.5t19 4.5q20 0 38 -18l4 -4q33 -33 81 -70.5t104 -74t116.5 -70t118.5 -59t109.5 -41t90.5 -15.5q32 0 45 -10 t13 -42t-13 -42t-45 -10q-38 0 -90 -15.5t-110 -41t-118.5 -59t-116.5 -70t-104 -74t-81 -70.5l-4 -4q-18 -18 -38 -18q-11 0 -19 4.5t-17 13.5l-6 6q-23 23 -65.5 44t-102.5 36t-138.5 24t-173.5 8v-30q0 -23 -10 -32.5t-28 -9.5h-170zM948 1012q-23 -23 -63 -44.5 t-102.5 -39t-150 -28t-204.5 -10.5v-384q117 0 204.5 -10t150 -26.5t102.5 -38t63 -43.5q38 37 96.5 79.5t124 81.5t132 70t121.5 45l-402 -6q-12 -26 -36 -40t-50 -14q-20 0 -37 7.5t-30.5 21t-21 30.5t-7.5 37q0 19 7.5 36.5t21 31t30.5 21t37 7.5q26 0 50 -14t36 -40 l402 -6q-55 13 -121.5 44.5t-132 70.5t-124 81.5t-96.5 79.5zM252 428h104v540h-104v-540z" />
<glyph unicode="&#x2712;" horiz-adv-x="1830" d="M794 700q0 -21 8 -39.5t22 -32.5t32.5 -22t39.5 -8q27 0 52.5 15t37.5 41l344 10q17 1 27.5 8t10.5 28t-10.5 28.5t-27.5 7.5l-344 8q-12 27 -37.5 41.5t-52.5 14.5q-21 0 -39.5 -8t-32.5 -21.5t-22 -32t-8 -38.5zM240 360q-18 0 -29 9.5t-11 32.5v592q0 23 11 32.5 t29 9.5h110q18 0 28 -9.5t10 -32.5v-30q95 -1 173.5 8.5t138.5 25.5t102.5 37.5t65.5 44.5l6 6q9 9 17 13.5t19 4.5q20 0 38 -18l4 -4q33 -33 78.5 -70.5t99.5 -74t114 -70t122.5 -59t124.5 -41t121 -15.5q32 0 45 -10t13 -42t-13 -42t-45 -10q-59 0 -121 -15.5t-124.5 -41 t-122.5 -59t-114 -70t-99.5 -74t-78.5 -70.5l-4 -4q-18 -18 -38 -18q-11 0 -19 4.5t-17 13.5l-6 6q-23 23 -65.5 44t-102.5 36t-138.5 24t-173.5 8v-30q0 -23 -10 -32.5t-28 -9.5h-110z" />
<glyph unicode="&#x2713;" horiz-adv-x="1760" d="M1466 1334q33 39 74 6l34 -28q20 -15 20.5 -33.5t-14.5 -38.5l-902 -1205q-14 -20 -29 -27.5t-29 -7.5q-17 0 -32 10.5t-28 29.5l-384 572q-15 23 -12 41.5t20 30.5l28 22q35 29 70 -6l330 -336z" />
<glyph unicode="&#x2714;" horiz-adv-x="1760" d="M1394 1336q38 46 88 14l66 -42q27 -18 32 -44t-20 -64l-712 -1076q-23 -34 -42.5 -57.5t-39 -38.5t-40.5 -21.5t-46 -6.5q-39 0 -78.5 24.5t-87.5 89.5l-364 488q-17 23 -11.5 42t21.5 32l78 64q21 18 38 17.5t38 -17.5l354 -280z" />
<glyph unicode="&#x2715;" horiz-adv-x="1772" d="M1382 142q-11 -9 -21 -9q-12 0 -23 11l-452 452l-452 -452q-12 -12 -24 -12q-10 0 -20 10l-40 40q-22 22 0 44l453 453l-435 435q-22 22 0 44l40 40q9 9 20 9q13 0 24 -11l434 -434l436 436q11 11 24 11q11 0 20 -9l40 -40q22 -22 0 -44l-437 -437l453 -453q22 -22 0 -44 z" />
<glyph unicode="&#x2716;" horiz-adv-x="1772" d="M536 110q-13 -12 -24 -18.5t-23 -6.5q-24 0 -55 31l-118 116q-26 26 -27 52t23 50l352 352l-342 342q-26 26 -23 50t27 48l112 112q29 29 50 29q11 0 22 -7t24 -20l342 -342l346 346q23 23 48 23q27 0 54 -27l118 -118q30 -30 29.5 -53.5t-25.5 -48.5l-346 -346l358 -358 q26 -26 28 -47t-28 -51l-112 -112q-26 -26 -52 -26q-24 0 -48 24l-358 358z" />
<glyph unicode="&#x2717;" horiz-adv-x="1760" d="M866 519l-356 -545q-14 -21 -32 -21q-14 0 -32 11l-80 48q-20 12 -23.5 27.5t11.5 36.5l435 610l-269 526q-14 27 -6.5 43t30.5 27l86 38q13 5 22 5q22 0 36 -31l204 -457l356 541q18 28 38 28q15 0 34 -14l76 -54q17 -12 19 -27.5t-13 -36.5l-434 -602l264 -512 q9 -20 4 -34t-28 -28l-82 -44q-14 -8 -25 -8q-22 0 -35 30z" />
<glyph unicode="&#x2718;" horiz-adv-x="1760" d="M727 599l-249 535q-11 23 -8 38t26 26l242 108q16 7 27 7q24 0 37 -31l158 -342l288 438q18 28 38 28q15 0 34 -14l76 -54q17 -12 19 -27.5t-13 -36.5l-363 -504l245 -530q11 -24 7 -38t-25 -24l-236 -112q-7 -3 -13 -5t-12 -2q-24 0 -41 35l-157 335l-297 -455 q-14 -21 -32 -21q-14 0 -32 11l-80 48q-20 12 -23.5 27.5t11.5 36.5z" />
<glyph unicode="&#x2719;" d="M1112 924h426v-492h-426v-432h-504v432h-428v492h428v436h504v-436zM1032 1282h-344v-436h-428v-336h428v-432h344v432h428v336h-428v436zM952 772h428v-184h-428v-432h-184v432h-428v184h428v432h184v-432z" />
<glyph unicode="&#x271a;" d="M1102 916h438v-472h-438v-444h-484v444h-440v472h440v444h484v-444z" />
<glyph unicode="&#x271b;" d="M1014 530v-530h-308v530h-526v300h526v530h308v-530h526v-300h-526zM708 532h304v296h-304v-296z" />
<glyph unicode="&#x271c;" d="M1102 916h438v-472h-438v-444h-484v444h-440v472h440v444h484v-444zM620 446h480v468h-480v-468z" />
<glyph unicode="&#x271d;" horiz-adv-x="1160" d="M690 802v-802h-220v802h-290v216h290v342h220v-342h290v-216h-290z" />
<glyph unicode="&#x271e;" horiz-adv-x="1160" d="M894 812v158h-266v312h-158v-312h-266v-160h266v-732h158v734h266zM802 678v-730h-322l-90 52v678h-174l-92 54v316h266v312h320l92 -52v-260h172l92 -50v-320h-264z" />
<glyph unicode="&#x271f;" horiz-adv-x="1160" d="M620 850v-694h-88v694h-272v82h272v272h88v-272h280v-82h-280zM780 694v-694h-406v694h-274v394h274v272h406v-272h280v-394h-280zM980 772v238h-280v272h-248v-272h-272v-238h272v-694h248v694h280z" />
<glyph unicode="&#x2720;" d="M614 1366l244 -172l246 172l-246 -682zM1544 926l-172 -244l172 -246l-684 246zM1104 -4l-246 172l-244 -172l244 684zM174 436l172 246l-172 244l682 -244z" />
<glyph unicode="&#x2721;" d="M635 1032l223 388l224 -388h448l-224 -389l224 -389h-449l-223 -388l-223 388h-447l223 389l-223 389h447zM682 328h353l181 315l-181 315h-353l-180 -315zM1261 565l-137 -237h274zM1124 958l137 -238l137 238h-274zM322 328h270l-135 236zM457 722l135 236h-270z M858 20l134 234h-268zM724 1032h268l-134 234z" />
<glyph unicode="&#x2722;" d="M1026 1226q0 -38 -10 -83.5t-31 -108.5t-52 -148t-73 -200q-42 115 -73 200t-52 148t-31 108.5t-10 83.5q0 31 12.5 58.5t35 47t53 31t65.5 11.5q34 0 64.5 -11.5t53 -31t35.5 -47t13 -58.5zM1026 142q0 -32 -13 -59t-35.5 -46.5t-53 -31t-64.5 -11.5q-35 0 -65.5 11.5 t-53 31t-35 46.5t-12.5 59q0 37 10 83t31 109t52 147.5t73 200.5q42 -116 73 -200.5t52 -147.5t31 -109t10 -83zM1402 850q31 0 58.5 -13t47 -35.5t31 -53t11.5 -64.5q0 -35 -11.5 -65.5t-31 -53t-47 -35t-58.5 -12.5q-38 0 -83.5 10t-108.5 31t-148 52t-200 73 q115 42 200 73t148 52t108.5 31t83.5 10zM318 850q37 0 83 -10t109 -31t147.5 -52t200.5 -73q-116 -42 -200.5 -73t-147.5 -52t-109 -31t-83 -10q-32 0 -59 12.5t-46.5 35t-31 53t-11.5 65.5q0 34 11.5 64.5t31 53t46.5 35.5t59 13z" />
<glyph unicode="&#x2723;" d="M1012 1226q0 -30 -8.5 -51.5t-20.5 -41t-27 -41t-27 -52t-20.5 -74t-8.5 -106.5q0 -23 -9.5 -32.5t-30.5 -9.5t-30.5 9.5t-9.5 32.5q0 63 -8.5 106.5t-20.5 74t-27 52t-27 41t-20.5 41t-8.5 51.5q0 34 11.5 61t32 46.5t48.5 30t60 10.5q31 0 59 -10.5t48.5 -30 t32.5 -46.5t12 -61zM1012 142q0 -34 -12 -61t-32.5 -46.5t-48.5 -30t-59 -10.5q-32 0 -60 10.5t-48.5 30t-32 46.5t-11.5 61q0 30 8.5 51.5t20.5 41t27 41t27 52t20.5 74t8.5 106.5q0 23 9.5 32.5t30.5 9.5t30.5 -9.5t9.5 -32.5q0 -63 8.5 -106.5t20.5 -74t27 -52t27 -41 t20.5 -41t8.5 -51.5zM1402 532q-30 0 -51.5 8.5t-41 20.5t-41 27t-52 27t-74 20.5t-106.5 8.5q-23 0 -32.5 9.5t-9.5 30.5t9.5 30.5t32.5 9.5q63 0 106.5 8.5t74 20.5t52 27t41 27t41 20.5t51.5 8.5q34 0 61 -11.5t46.5 -32t30 -48.5t10.5 -60t-10.5 -59.5t-30 -48 t-46.5 -32.5t-61 -12zM318 532q-34 0 -61 12t-46.5 32.5t-30 48t-10.5 59.5t10.5 60t30 48.5t46.5 32t61 11.5q30 0 51.5 -8.5t41 -20.5t41 -27t52 -27t74 -20.5t106.5 -8.5q23 0 32.5 -9.5t9.5 -30.5t-9.5 -30.5t-32.5 -9.5q-63 0 -106.5 -8.5t-74 -20.5t-52 -27t-41 -27 t-41 -20.5t-51.5 -8.5zM780 684q0 33 23.5 56.5t56.5 23.5t56.5 -23.5t23.5 -56.5t-23.5 -56.5t-56.5 -23.5t-56.5 23.5t-23.5 56.5z" />
<glyph unicode="&#x2724;" d="M1080 1160q0 -40 -13.5 -70t-33.5 -53.5t-43 -43.5t-43 -40t-33.5 -42.5t-13.5 -50.5q0 -23 -9.5 -32.5t-30.5 -9.5t-30.5 9.5t-9.5 32.5q0 29 -13.5 51t-33.5 42t-43 40t-43 43.5t-33.5 53.5t-13.5 70q0 49 17 88.5t47 67.5t70.5 43t87.5 15q44 0 83.5 -15t69.5 -43 t47.5 -67.5t17.5 -88.5zM1080 208q0 -49 -17.5 -88.5t-47.5 -67.5t-69.5 -43t-83.5 -15q-47 0 -87.5 15t-70.5 43t-47 67.5t-17 88.5q0 40 13.5 70t33.5 53.5t43 43.5t43 40t33.5 42t13.5 51q0 23 9.5 32.5t30.5 9.5t30.5 -9.5t9.5 -32.5q0 -29 13.5 -51t33.5 -42t43 -40 t43 -43.5t33.5 -53.5t13.5 -70zM1336 464q-40 0 -70 13.5t-53.5 33.5t-43.5 43t-40 43t-42.5 33.5t-50.5 13.5q-23 0 -32.5 9.5t-9.5 30.5t9.5 30.5t32.5 9.5q28 0 50.5 13.5t42.5 33.5t40 43t43.5 43t53.5 33.5t70 13.5q49 0 88.5 -17t67.5 -47t43 -70.5t15 -87.5 q0 -44 -15 -83.5t-43 -69.5t-67.5 -47.5t-88.5 -17.5zM384 464q-49 0 -88.5 17.5t-67.5 47.5t-43 69.5t-15 83.5q0 47 15 87.5t43 70.5t67.5 47t88.5 17q40 0 70 -13.5t53.5 -33.5t43.5 -43t40 -43t42 -33.5t51 -13.5q23 0 32.5 -9.5t9.5 -30.5t-9.5 -30.5t-32.5 -9.5 q-28 0 -50.5 -13.5t-42.5 -33.5t-40 -43t-43.5 -43t-53.5 -33.5t-70 -13.5zM780 684q0 33 23.5 56.5t56.5 23.5t56.5 -23.5t23.5 -56.5t-23.5 -56.5t-56.5 -23.5t-56.5 23.5t-23.5 56.5z" />
<glyph unicode="&#x2725;" d="M618 1136q0 31 11.5 58t31.5 47t46.5 31.5t56.5 11.5h8q0 17 7 33t19 28t27.5 19.5t32.5 7.5q19 0 35.5 -7.5t29 -19.5t20 -28t7.5 -33h6q30 0 56.5 -11.5t46.5 -31.5t31.5 -47t11.5 -58q0 -30 -11.5 -56.5t-31.5 -46t-46.5 -30.5t-56.5 -11q-17 0 -30.5 2t-25.5 8v-280 h280q-6 12 -8 25.5t-2 30.5q0 30 11 56.5t30.5 46.5t46 31.5t56.5 11.5q31 0 58 -11.5t47 -31.5t31.5 -46.5t11.5 -56.5v-8q17 0 33 -7t28 -19t19.5 -28.5t7.5 -35.5q0 -17 -7.5 -33t-19.5 -28t-28 -19.5t-33 -7.5v-6q0 -30 -11.5 -56.5t-31.5 -46.5t-47 -31.5t-58 -11.5 q-30 0 -56.5 11.5t-46 31.5t-30.5 46.5t-11 56.5q0 14 2 28t8 28h-280v-282q24 12 56 12q30 0 56.5 -11.5t46.5 -31t31.5 -45.5t11.5 -56q0 -31 -11.5 -58t-31.5 -47t-46.5 -31.5t-56.5 -11.5h-6q0 -17 -7.5 -33t-20 -28t-29 -19.5t-35.5 -7.5q-17 0 -32.5 7.5t-27.5 19.5 t-19 28t-7 33h-8q-30 0 -56.5 11.5t-46.5 31.5t-31.5 47t-11.5 58q0 30 11.5 56t31.5 45.5t46.5 31t56.5 11.5q29 0 56 -12v282h-282q12 -27 12 -56q0 -30 -11.5 -56.5t-31 -46.5t-45.5 -31.5t-56 -11.5q-31 0 -58 11.5t-47 31.5t-31.5 46.5t-11.5 56.5v6q-17 0 -33 7.5 t-28 19.5t-19.5 28t-7.5 33q0 19 7.5 35.5t19.5 28.5t28 19t33 7v8q0 30 11.5 56.5t31.5 46.5t47 31.5t58 11.5q30 0 56 -11.5t45.5 -31.5t31 -46.5t11.5 -56.5q0 -32 -12 -56h282v280q-14 -6 -28 -8t-28 -2q-30 0 -56.5 11t-46.5 30.5t-31.5 46t-11.5 56.5z" />
<glyph unicode="&#x2726;" d="M1580 682q-131 -20 -230 -44.5t-172 -61t-124 -88t-87 -125t-60.5 -173t-44.5 -230.5q-20 131 -44.5 230.5t-61 173t-88 125t-125 88t-173.5 61t-232 44.5q133 20 232.5 44.5t173 60.5t125 87.5t88 125t61 172t44.5 230.5q20 -131 44.5 -230t60.5 -172.5t87 -125 t124 -87.5t171.5 -60.5t230.5 -44.5z" />
<glyph unicode="&#x2727;" d="M1358 682q-102 10 -189 51t-152.5 107t-106 153t-50.5 189q-10 -102 -50.5 -189t-106 -153t-152.5 -107t-189 -51q102 -10 189 -51t152.5 -107t106 -153t50.5 -189q10 102 50.5 189t106 153t152.5 107t189 51zM1540 668q0 -26 -26 -26q-140 0 -253.5 -43.5t-193 -124 t-122.5 -194.5t-43 -254q0 -15 -7 -20.5t-19 -5.5h-32q-12 0 -19 5.5t-7 20.5q0 140 -43 254t-122.5 194.5t-193 124t-253.5 43.5q-26 0 -26 26v28q0 26 26 26q140 0 253.5 43.5t193 124t122.5 194.5t43 254q0 15 7 20.5t19 5.5h32q12 0 19 -5.5t7 -20.5q0 -140 43 -254 t122.5 -194.5t193 -124t253.5 -43.5q26 0 26 -26v-28z" />
<glyph unicode="&#x2728;" d="M24 432q137 0 235 30t161 93.5t92.5 162.5t29.5 236h62q0 -137 29.5 -236t92.5 -162.5t161 -93.5t235 -30v-60q-137 0 -235 -30t-161 -93.5t-92.5 -162.5t-29.5 -236h-62q0 137 -29.5 236t-92.5 162.5t-161 93.5t-235 30v60zM544 1156q102 0 174 22t117 69t66 120t21 175 h58q0 -102 21.5 -175t67.5 -120t118 -69t173 -22v-50q-101 0 -173 -22t-118 -68.5t-67.5 -119t-21.5 -174.5h-58q0 102 -21 174.5t-66 119t-117 68.5t-174 22v50zM172 402q103 -8 175.5 -33.5t120.5 -73.5t72.5 -120.5t31.5 -174.5q7 102 32.5 174.5t73.5 120.5t121 73.5 t175 33.5q-102 8 -175 34t-121 74t-73.5 121t-32.5 177q-7 -104 -31.5 -177t-72.5 -121t-120.5 -74t-175.5 -34zM1052 646q76 0 128.5 15.5t85.5 49.5t47.5 87.5t14.5 129.5h50q0 -76 15.5 -129.5t48.5 -87.5t86 -49.5t128 -15.5v-44q-75 0 -128 -15.5t-86 -49.5t-48.5 -87 t-15.5 -128h-50q0 75 -14.5 128t-47.5 87t-85.5 49.5t-128.5 15.5v44zM654 1132q76 -5 130.5 -24t90 -54.5t54 -89.5t23.5 -130q5 76 24 130t54.5 89.5t89.5 54.5t130 24q-76 6 -130 25t-89.5 55t-54.5 90.5t-24 131.5q-5 -77 -23.5 -131.5t-54 -90.5t-90 -55t-130.5 -25z M1235 642q-38 -13 -92 -18q54 -5 92 -17q39 -12 64 -37t37.5 -64t17.5 -94q4 55 16.5 94t38 64t64.5 37q38 12 92 17q-54 5 -92 18q-39 14 -64.5 39.5t-38 64.5t-16.5 96q-5 -57 -17.5 -96t-37.5 -64.5t-64 -39.5z" />
<glyph unicode="&#x2729;" d="M1000 566l498 238q18 9 24 16t4 12t-15 5q-8 0 -23 -3l-540 -104l-72 548q-6 38 -16 38q-5 0 -9.5 -9t-6.5 -29l-70 -548l-542 104q-18 3 -26 3q-10 0 -12 -5t4 -12t24 -16l500 -238l-264 -482q-6 -11 -9 -19.5t-3 -13.5q0 -6 6 -6q11 0 32 21l376 398l378 -398 q12 -12 19.5 -16.5t12.5 -4.5q4 0 5 2t1 4q0 5 -2.5 12.5t-9.5 20.5zM1126 528l178 -432q12 -30 13.5 -50.5t-19.5 -35.5q-14 -10 -27 -10t-26.5 8t-30.5 22l-354 302l-352 -302q-16 -14 -30 -22t-27 -8t-27 10q-21 15 -19.5 35.5t13.5 50.5l176 432l-396 242 q-28 17 -41 33.5t-5 40.5q6 20 19.5 26.5t36.5 6.5q5 0 16 -0.5t22 -1.5l450 -35l108 452q8 32 19 49t37 17t37 -17t19 -49l108 -452l450 35q11 1 20.5 1.5t17.5 0.5q23 0 36.5 -6.5t19.5 -26.5q8 -24 -5 -40.5t-41 -33.5z" />
<glyph unicode="&#x272a;" d="M180 684q0 94 24.5 181t68.5 162.5t106 137.5t137.5 106t162.5 68.5t181 24.5t181 -24.5t162.5 -68.5t137.5 -106t106 -137.5t68.5 -162.5t24.5 -181t-24.5 -181t-68.5 -162.5t-106 -137.5t-137.5 -106t-162.5 -68.5t-181 -24.5t-181 24.5t-162.5 68.5t-137.5 106 t-106 137.5t-68.5 162.5t-24.5 181zM1388 856q-7 21 -19 30t-34 9q-4 0 -10.5 -0.5t-14.5 -1.5l-328 -37l-66 330q-6 29 -19 42.5t-37 13.5q-26 0 -38 -13.5t-18 -42.5l-68 -330l-325 37q-8 1 -15 1.5t-11 0.5q-22 0 -35 -9t-20 -30q-8 -23 0.5 -38t25.5 -24l304 -174 l-142 -308q-12 -26 -10 -44t22 -32q16 -12 32 -12q22 0 48 24l250 228l248 -228q13 -11 24.5 -17.5t23.5 -6.5q15 0 32 12q20 14 22 32t-10 44l-142 308l302 172q18 11 27 26t1 38z" />
<glyph unicode="&#x272b;" d="M580 614q0 -58 22 -109t60 -89t89 -60t109 -22q57 0 108 22t89 60t60.5 89t22.5 109q0 57 -22.5 108t-60.5 89t-89 60.5t-108 22.5q-59 0 -110.5 -22.5t-89 -60.5t-59 -89t-21.5 -108zM1128 530l176 -432q12 -30 13.5 -50.5t-19.5 -35.5q-14 -10 -27 -10t-26.5 8 t-30.5 22l-354 300l-352 -300q-17 -14 -30.5 -22t-26.5 -8t-27 10q-21 15 -19.5 35.5t13.5 50.5l174 432l-394 242q-28 17 -41 33.5t-5 40.5q6 20 19.5 26.5t36.5 6.5q5 0 16 -0.5t21 -1.5l451 -35l108 452q8 32 19 49t37 17t37 -17t19 -49l108 -452l451 35q10 1 19.5 1.5 t17.5 0.5q23 0 36.5 -6.5t19.5 -26.5q8 -24 -5 -40.5t-41 -33.5z" />
<glyph unicode="&#x272c;" d="M1034 560l468 264l-536 -62l-106 528l-106 -528l-536 62l470 -264l-224 -492l396 366l398 -366zM682 614q0 37 13.5 70t37.5 57.5t56.5 38.5t70.5 14q37 0 70 -14t57.5 -38.5t38.5 -57.5t14 -70q0 -38 -14 -70.5t-38.5 -56.5t-57.5 -37.5t-70 -13.5q-38 0 -70.5 13.5 t-56.5 37.5t-37.5 56.5t-13.5 70.5zM1128 530l176 -432q12 -30 13.5 -50.5t-19.5 -35.5q-14 -10 -27 -10t-26.5 8t-30.5 22l-354 300l-352 -300q-17 -14 -30.5 -22t-26.5 -8t-27 10q-21 15 -19.5 35.5t13.5 50.5l174 432l-394 242q-28 17 -41 33.5t-5 40.5q6 20 19.5 26.5 t36.5 6.5q5 0 16 -0.5t21 -1.5l451 -35l108 452q8 32 19 49t37 17t37 -17t19 -49l108 -452l451 35q10 1 19.5 1.5t17.5 0.5q23 0 36.5 -6.5t19.5 -26.5q8 -24 -5 -40.5t-41 -33.5z" />
<glyph unicode="&#x272d;" d="M1034 560l468 264l-536 -62l-106 528l-106 -528l-536 62l470 -264l-224 -492l396 366l398 -366zM1030 380l-170 158l-170 -158l96 212l-202 114l230 -28l46 228l46 -228l230 28l-200 -114zM1128 530l176 -432q12 -30 13.5 -50.5t-19.5 -35.5q-14 -10 -27 -10t-26.5 8 t-30.5 22l-354 300l-352 -300q-17 -14 -30.5 -22t-26.5 -8t-27 10q-21 15 -19.5 35.5t13.5 50.5l174 432l-394 242q-28 17 -41 33.5t-5 40.5q6 20 19.5 26.5t36.5 6.5q5 0 16 -0.5t21 -1.5l451 -35l108 452q8 32 19 49t37 17t37 -17t19 -49l108 -452l451 35q10 1 19.5 1.5 t17.5 0.5q23 0 36.5 -6.5t19.5 -26.5q8 -24 -5 -40.5t-41 -33.5z" />
<glyph unicode="&#x272e;" d="M774 746l-408 32l352 -212l-162 -370l304 264l308 -264l-160 370l352 212l-404 -32l-96 394zM978 456l-118 108l-116 -108l64 146l-138 78l156 -16l34 156l34 -156l158 16l-138 -78zM1128 530l176 -432q12 -30 13.5 -50.5t-19.5 -35.5q-14 -10 -27 -10t-26.5 8t-30.5 22 l-354 300l-352 -300q-17 -14 -30.5 -22t-26.5 -8t-27 10q-21 15 -19.5 35.5t13.5 50.5l174 432l-394 242q-28 17 -41 33.5t-5 40.5q6 20 19.5 26.5t36.5 6.5q5 0 16 -0.5t21 -1.5l451 -35l108 452q8 32 19 49t37 17t37 -17t19 -49l108 -452l451 35q10 1 19.5 1.5t17.5 0.5 q23 0 36.5 -6.5t19.5 -26.5q8 -24 -5 -40.5t-41 -33.5z" />
<glyph unicode="&#x272f;" d="M1138 528l166 -430q12 -30 13.5 -50.5t-19.5 -35.5q-14 -10 -27 -10t-26.5 8t-30.5 22l-354 294l-352 -294q-17 -14 -30.5 -22t-26.5 -8t-27 10q-21 15 -19 35.5t13 50.5l158 430l-378 244q-27 18 -40.5 34t-5.5 40q6 20 21.5 26.5t39.5 6.5q5 0 16.5 -0.5t26.5 -1.5 l434 -17l114 434q8 32 19 49t37 17t37 -17t19 -49l116 -436l431 19q15 1 27.5 1.5t17.5 0.5q24 0 39 -6.5t21 -26.5q8 -24 -4.5 -40t-41.5 -34zM1472 810l-478 -18l-132 -172zM1232 98l-166 448l-204 72zM478 104l382 302v212zM256 822l396 -264l208 62zM860 1260l-120 -460 l120 -178v638z" />
<glyph unicode="&#x2730;" d="M508 568l-298 184q-40 25 -55.5 55t1.5 81q14 42 42 57.5t70 15.5q6 0 16.5 -0.5t21.5 -1.5l318 -23l78 324q9 47 33.5 76.5t78.5 29.5q36 0 57.5 -8.5t42.5 -31.5l62 -66q15 -17 23.5 -37t16.5 -49l62 -234l248 19q10 1 23.5 2t21.5 1q32 0 53 -10t42 -36l74 -86 q15 -20 23.5 -39.5t8.5 -42.5q0 -30 -19.5 -53t-52.5 -43l-290 -178l132 -314q9 -21 14.5 -40.5t4 -37.5t-12 -35t-32.5 -33q-15 -11 -30 -17.5t-32 -6.5q-21 0 -40 11.5t-44 32.5l-260 220l-254 -224q-23 -20 -46.5 -30t-41.5 -10q-20 0 -40 8t-37 25l-83 85q-20 20 -32 41 t-12 44q0 31 16 69zM1372 804q24 15 34 28t4 34q-5 17 -16 23t-30 6q-8 0 -15.5 -0.5t-18.5 -1.5l-380 -31l-88 382q-8 26 -16.5 41t-31.5 15q-21 0 -30.5 -15t-17.5 -41l-88 -382l-378 31q-11 1 -19.5 1.5t-13.5 0.5q-19 0 -31.5 -6t-17.5 -23q-7 -21 4 -35.5t34 -26.5 l334 -204l-146 -362q-11 -27 -12 -44.5t16 -29.5q12 -8 23 -8q20 0 47 24l296 254l300 -254q14 -11 24.5 -17.5t21.5 -6.5q5 0 11.5 1.5t11.5 6.5q17 13 16.5 30.5t-11.5 43.5l-150 362z" />
<glyph unicode="&#x2731;" d="M1504 918q16 -26 -10 -42l-340 -196l340 -196q12 -6 15 -17t-5 -23l-118 -204q-6 -12 -17 -15t-23 3l-340 196v-394q0 -30 -30 -30h-234q-30 0 -30 30v394l-340 -196q-12 -6 -23 -3t-17 15l-118 204q-16 26 10 42l338 194l-338 196q-25 16 -12 42l118 204q16 26 42 10 l340 -196v394q0 30 30 30h234q30 0 30 -30v-394l340 196q12 8 23 5t17 -15z" />
<glyph unicode="&#x2732;" d="M564 680q0 -59 23.5 -112.5t64 -94t94 -64t112.5 -23.5q60 0 113.5 23.5t93.5 63.5t63.5 93.5t23.5 113.5q0 61 -23.5 114.5t-64 93.5t-94 63t-112.5 23t-112 -23.5t-93.5 -63.5t-64.5 -93.5t-24 -113.5zM1504 918q16 -26 -10 -42l-340 -196l340 -196q12 -6 15 -17 t-5 -23l-118 -204q-6 -12 -17 -15t-23 3l-340 196v-394q0 -30 -30 -30h-234q-30 0 -30 30v394l-340 -196q-12 -6 -23 -3t-17 15l-118 204q-16 26 10 42l338 194l-338 196q-25 16 -12 42l118 204q16 26 42 10l340 -196v394q0 30 30 30h234q30 0 30 -30v-394l340 196 q12 8 23 5t17 -15z" />
<glyph unicode="&#x2733;" d="M176 708q0 30 30 30l544 -14l-392 376q-22 22 0 44l38 38q23 23 42 0l374 -390l-12 538q0 30 30 30h60q30 0 30 -30l-12 -534l370 386q9 11 20 11t22 -11l42 -42q11 -11 11 -22t-11 -20l-388 -374l540 14q30 0 30 -30v-56q0 -30 -30 -30l-546 12l394 -376q23 -19 0 -42 l-38 -38q-22 -22 -44 0l-374 390l14 -538q0 -30 -30 -30h-60q-30 0 -30 30l12 534l-370 -386q-19 -23 -42 0l-42 42q-11 11 -11 22t11 20l388 372l-540 -12q-30 0 -30 30v56z" />
<glyph unicode="&#x2734;" d="M1516 708q12 -2 20 -10t8 -20q0 -11 -8 -19.5t-20 -10.5l-456 -52l284 -360q18 -22 0 -40q-9 -9 -20.5 -9.5t-19.5 5.5l-362 288l-52 -458q-2 -12 -10 -20t-20 -8q-11 0 -19.5 7.5t-10.5 20.5l-52 458l-360 -288q-9 -8 -21 -6.5t-21 10.5t-9 20t7 20l286 360l-456 52 q-14 2 -21 10.5t-7 19.5q0 12 7 20t21 10l456 52l-286 362q-17 21 2 40q9 9 20 8.5t22 -8.5l360 -284l52 458q2 11 10.5 18.5t19.5 7.5q12 0 20 -7.5t10 -18.5l52 -458l362 284q9 8 20 8.5t20 -8.5t8.5 -20t-8.5 -20l-284 -362z" />
<glyph unicode="&#x2735;" d="M980 976l-120 276v-569zM738 974l-280 112l401 -403zM566 802l-276 -120h569zM568 560l-112 -280l403 401zM740 388l120 -276v569zM982 390l280 -112l-401 403zM1154 562l276 120h-569zM1152 804l112 280l-403 -401zM1244 840l282 -132q18 -9 18 -26q0 -19 -18 -28 l-282 -130l106 -294q3 -9 1.5 -18t-7.5 -14q-14 -12 -32 -6l-294 106l-130 -282q-9 -18 -28 -18q-17 0 -26 18l-132 282l-294 -106q-9 -3 -17 -1t-13 7q-13 12 -6 32l106 294l-284 130q-8 3 -13 11t-5 17t5 16t13 10l284 132l-106 294q-7 20 2 31q6 8 15.5 8t18.5 -3 l294 -106l132 284q3 8 10 13t16 5t17 -5t11 -13l130 -284l294 106q9 3 16.5 2.5t15.5 -8.5q12 -12 6 -30z" />
<glyph unicode="&#x2736;" d="M1440 394q16 -16 18 -29t-6 -27q-5 -9 -12.5 -14t-19.5 -5q-8 0 -20 3l-394 104l-104 -392q-6 -23 -16.5 -30.5t-25.5 -7.5t-26 8.5t-16 29.5l-104 392l-394 -104q-11 -3 -19 -3q-22 0 -33 19q-8 14 -6 27t18 29l286 288l-286 288q-16 16 -18 29t6 25q11 21 34 21 q7 0 18 -3l394 -104l104 390q6 23 16.5 31.5t25.5 8.5t26 -8.5t16 -31.5l104 -390l394 104q12 3 19 3q22 0 33 -21q8 -13 6 -25.5t-18 -28.5l-286 -288z" />
<glyph unicode="&#x2737;" d="M632 1326q0 20 7.5 28t18.5 8t18.5 -8t17.5 -32l166 -414l166 414q10 24 17.5 32t18.5 8t18.5 -8t7.5 -28v-418h418q20 0 28 -7.5t8 -18.5t-8 -18.5t-32 -17.5l-414 -166l414 -166q24 -10 32 -17.5t8 -18.5t-8 -18.5t-28 -7.5h-418v-418q0 -20 -7.5 -28t-18.5 -8t-18.5 8 t-17.5 32l-166 414l-166 -414q-10 -24 -17.5 -32t-18.5 -8t-18.5 8t-7.5 28v418h-418q-20 0 -28 7.5t-8 18.5t8 18.5t32 17.5l414 166l-414 166q-24 10 -32 17.5t-8 18.5t8 18.5t28 7.5h418v418z" />
<glyph unicode="&#x2738;" d="M1160 34q0 -20 -7.5 -28t-18.5 -8t-19.5 7t-22.5 29l-232 346l-232 -346q-14 -22 -22.5 -29t-19.5 -7t-18.5 8t-7.5 28v346h-346q-20 0 -28 7.5t-8 18.5t7 19.5t29 22.5l346 232l-346 232q-22 14 -29 22.5t-7 19.5t8 18.5t28 7.5h346v346q0 20 7.5 28t18.5 8t19.5 -7 t22.5 -29l232 -346l232 346q14 22 22.5 29t19.5 7t18.5 -8t7.5 -28v-346h346q20 0 28 -7.5t8 -18.5t-7 -19.5t-29 -22.5l-346 -232l346 -232q22 -14 29 -22.5t7 -19.5t-8 -18.5t-28 -7.5h-346v-346z" />
<glyph unicode="&#x2739;" d="M860 -10q-20 0 -34 28l-92 194l-176 -122q-17 -11 -30 -11q-17 0 -24.5 13t-5.5 32l18 214l-214 -18q-30 -3 -41 15t7 45l122 176l-194 92q-28 14 -28 34t28 34l194 92l-122 176q-18 27 -7 45t41 15l214 -18l-18 214q-2 19 5.5 32t24.5 13q13 0 30 -11l176 -122l92 194 q14 28 34 28t34 -28l92 -194l176 122q16 11 30 11q17 0 24.5 -13t5.5 -32l-18 -214l214 18q30 3 41 -15t-7 -45l-122 -176l194 -92q28 -14 28 -34t-28 -34l-194 -92l122 -176q18 -27 7 -45t-41 -15l-214 18l18 -214q2 -19 -5.5 -32t-24.5 -13q-14 0 -30 11l-176 122 l-92 -194q-14 -28 -34 -28z" />
<glyph unicode="&#x273a;" d="M784 734l-426 410l42 42l406 -424l-232 536l54 24l214 -552l-12 594h60l-14 -594l216 556l56 -22l-238 -544l410 426l42 -42l-422 -406l534 232l24 -54l-552 -216l594 14v-60l-594 12l556 -214l-22 -56l-544 238l426 -410l-42 -42l-406 420l232 -532l-54 -24l-216 552 l14 -594h-60l12 594l-214 -556l-56 22l238 544l-410 -426l-42 42l422 406l-534 -232l-24 54l550 214l-592 -12v60l594 -14l-556 216l22 56z" />
<glyph unicode="&#x273b;" d="M970 1266q0 -39 -8.5 -91.5t-23.5 -123t-35 -161.5t-43 -206q-23 115 -43 206t-35 161.5t-23.5 123t-8.5 91.5q0 21 8.5 39t23.5 31t35 20.5t43 7.5t43 -7.5t35 -20.5t23.5 -31t8.5 -39zM970 96q0 -21 -8.5 -39t-23.5 -31t-35 -20.5t-43 -7.5t-43 7.5t-35 20.5t-23.5 31 t-8.5 39q0 39 8.5 91.5t23.5 123t35 161t43 206.5q23 -116 43 -206.5t35 -161t23.5 -123t8.5 -91.5zM1310 294q-34 19 -75 52.5t-94.5 81.5t-122 111t-156.5 141q112 -38 200.5 -66t156.5 -50.5t117.5 -41.5t83.5 -38q19 -11 30.5 -27t15 -35.5t0 -40.5t-15.5 -41t-28 -34 t-35 -20t-38.5 -4.5t-38.5 12.5zM300 878q-19 10 -30.5 26.5t-15 36t0 40.5t15.5 41t28 34t35 20t38.5 4t38.5 -12q34 -20 75 -53.5t94.5 -81.5t121.5 -110.5t157 -140.5q-112 37 -200.5 65t-156.5 50.5t-117.5 41.5t-83.5 39zM410 294q-19 -11 -38.5 -12.5t-38.5 4.5 t-35 20t-28 34t-15.5 41t0 40.5t15 35.5t30.5 27q34 19 83.5 38t117.5 41.5t156.5 50.5t200.5 66q-89 -78 -157 -141t-121.5 -111t-94.5 -81.5t-75 -52.5zM1420 878q-34 -20 -83.5 -39t-117.5 -41.5t-156.5 -50.5t-200.5 -65q88 78 156.5 140.5t122 110.5t94.5 81.5t75 53.5 q19 10 38.5 12t38.5 -4t35 -20t28 -34t15.5 -41t0 -40.5t-15 -36t-30.5 -26.5z" />
<glyph unicode="&#x273c;" d="M788 682q0 -29 21 -49.5t51 -20.5q29 0 49.5 20.5t20.5 49.5q0 30 -20.5 51t-49.5 21q-30 0 -51 -21t-21 -51zM736 682q0 29 -9 40.5t-29 15.5q-80 16 -139.5 27.5t-105.5 22t-81.5 22.5t-65.5 30q-29 17 -43.5 44.5t-14.5 59.5q0 20 5.5 40t16.5 40q21 35 52.5 54.5 t65.5 19.5q30 0 58 -16q30 -18 59 -42.5t62 -59t72.5 -80t92.5 -104.5q16 -18 32 -18q13 0 34 12q17 11 24.5 20.5t7.5 21.5q0 5 -1 10t-3 10q-26 79 -46 137t-33.5 102.5t-20 80t-6.5 70.5q0 26 10.5 49t29.5 39.5t44.5 26t55.5 9.5t55.5 -9.5t44.5 -26t29.5 -39.5 t10.5 -49q0 -35 -6.5 -70.5t-20 -80t-33.5 -102.5t-46 -137q-2 -5 -3 -10t-1 -10q0 -12 7.5 -21.5t24.5 -20.5q21 -12 34 -12q16 0 32 18q52 59 92 104.5t73 80t62 59t59 42.5q28 16 58 16q34 0 65.5 -19.5t52.5 -54.5q11 -20 16.5 -40t5.5 -40q0 -32 -14.5 -59.5 t-43.5 -44.5q-30 -18 -65.5 -30t-81.5 -22.5t-106 -22t-139 -27.5q-20 -4 -29 -15.5t-9 -40.5t9 -40.5t29 -15.5q79 -16 139 -27.5t106 -22t81.5 -22.5t65.5 -30q29 -17 43.5 -44.5t14.5 -59.5q0 -20 -5.5 -40t-16.5 -40q-21 -35 -52.5 -54.5t-65.5 -19.5q-30 0 -58 16 q-30 18 -59 42.5t-62 59t-73 80t-92 104.5q-16 18 -32 18q-13 0 -34 -12q-17 -11 -24.5 -20.5t-7.5 -21.5q0 -5 1 -10t3 -10q26 -80 46 -137.5t33.5 -102t20 -80t6.5 -70.5q0 -26 -10.5 -49t-29.5 -39.5t-44.5 -26t-55.5 -9.5t-55.5 9.5t-44.5 26t-29.5 39.5t-10.5 49 q0 35 6.5 70.5t20 80t33.5 102t46 137.5q2 5 3 10t1 10q0 12 -7.5 21.5t-24.5 20.5q-21 12 -34 12q-16 0 -32 -18q-53 -59 -92.5 -104.5t-72.5 -80t-62 -59t-59 -42.5q-28 -16 -58 -16q-34 0 -65.5 19.5t-52.5 54.5q-11 20 -16.5 40t-5.5 40q0 32 14.5 59.5t43.5 44.5 q30 18 65.5 30t81.5 22.5t105.5 22t139.5 27.5q20 4 29 15.5t9 40.5z" />
<glyph unicode="&#x273d;" d="M1026 1228q0 -38 -10 -83.5t-31 -108.5t-52 -148t-73 -200q-42 115 -73 200t-52 148t-31 108.5t-10 83.5q0 31 12.5 58.5t35 47t53 31t65.5 11.5q34 0 64.5 -11.5t53 -31t35.5 -47t13 -58.5zM1026 142q0 -32 -13 -59t-35.5 -46.5t-53 -31t-64.5 -11.5q-35 0 -65.5 11.5 t-53 31t-35 46.5t-12.5 59q0 37 10 83t31 109t52 147.5t73 200.5q42 -116 73 -200.5t52 -147.5t31 -109t10 -83zM1246 270q-32 19 -66.5 50.5t-79 81t-102 118.5t-136.5 164q121 -22 210 -37.5t153.5 -29t109.5 -27t77 -32.5q35 -20 52.5 -54t17.5 -73q0 -23 -6 -46t-19 -45 q-25 -42 -63 -65.5t-80 -23.5q-36 0 -68 19zM306 812q-34 20 -51.5 53.5t-17.5 72.5q0 23 6 46t19 46q24 42 62 65.5t80 23.5q36 0 68 -19q33 -19 67.5 -51t79 -81.5t102 -118.5t137.5 -163q-122 21 -211 36.5t-153.5 29t-109.5 27.5t-78 33zM474 270q-32 -19 -68 -19 q-42 0 -80 23.5t-62 65.5q-14 23 -20 46t-6 46q0 39 18 72.5t52 53.5q32 19 77 32.5t109.5 27t153.5 29t210 37.5q-79 -95 -136.5 -164t-102 -118.5t-79 -81t-66.5 -50.5zM1414 812q-33 -19 -78 -33t-109.5 -27.5t-154 -29t-210.5 -36.5q79 94 137 163t102.5 118.5t79 81.5 t67.5 51q32 19 68 19q42 0 80 -23.5t62 -65.5q13 -23 19 -46t6 -46q0 -39 -17.5 -72.5t-51.5 -53.5z" />
<glyph unicode="&#x273e;" d="M678 1150q0 69 43.5 124.5t138.5 87.5q95 -32 138.5 -87.5t43.5 -124.5q0 -47 -15.5 -94.5t-41 -91t-58.5 -82t-67 -66.5q-35 28 -67.5 66.5t-58 82t-41 91t-15.5 94.5zM588 702q-72 0 -131.5 19t-98.5 57.5t-54 95.5t2 134q92 80 178 80q59 0 109 -33.5t88 -85 t63 -113.5t36 -120q-42 -17 -91.5 -25.5t-100.5 -8.5zM678 210q0 47 15.5 94.5t41 91t58 81.5t67.5 67q34 -29 67 -67t58.5 -81.5t41 -91t15.5 -94.5q0 -69 -43.5 -124.5t-138.5 -87.5q-95 32 -138.5 87.5t-43.5 124.5zM1132 702q-51 0 -100.5 8.5t-91.5 25.5 q10 58 35.5 120t63.5 113.5t88 85t109 33.5q86 0 178 -80q16 -77 1 -134t-54 -95.5t-98 -57.5t-131 -19zM588 658q51 0 100.5 -8.5t91.5 -25.5q-14 -65 -41.5 -128t-66 -112.5t-86.5 -79.5t-102 -30q-21 0 -44.5 4.5t-47.5 14t-46 24.5t-40 35q-17 76 -2 133.5t54 96 t98.5 57.5t131.5 19zM738 1150q0 -33 10 -70t26.5 -72t38.5 -65.5t47 -50.5q25 20 47 50.5t38.5 65.5t26.5 72t10 70q0 53 -30 94t-92 56q-62 -15 -92 -56t-30 -94zM592 604q-49 0 -95.5 -11.5t-81 -37.5t-51 -68.5t-4.5 -104.5q32 -30 62.5 -41t63.5 -11q37 0 72.5 21 t65.5 56t53 81.5t37 97.5q-21 8 -52 13t-70 5zM1132 658q72 0 131 -19t98 -57.5t54 -96t-1 -133.5q-18 -20 -40 -35t-46 -24.5t-47.5 -14t-44.5 -4.5q-54 0 -102 30t-86.5 79.5t-66.5 112.5t-41 128q42 17 91.5 25.5t100.5 8.5zM1128 604q-39 0 -70 -5t-52 -13 q13 -51 36.5 -97.5t53.5 -81.5t65 -56t73 -21q33 0 63.5 11t62.5 41q12 62 -4.5 104.5t-51 68.5t-81 37.5t-95.5 11.5zM780 682q0 33 23.5 56.5t56.5 23.5t56.5 -23.5t23.5 -56.5t-23.5 -56.5t-56.5 -23.5t-56.5 23.5t-23.5 56.5z" />
<glyph unicode="&#x273f;" d="M678 1150q0 69 43.5 124.5t138.5 87.5q95 -32 138.5 -87.5t43.5 -124.5q0 -47 -15.5 -94.5t-41 -91t-58.5 -82t-67 -66.5q-35 28 -67.5 66.5t-58 82t-41 91t-15.5 94.5zM1132 702q-51 0 -100.5 8.5t-91.5 25.5q10 58 35.5 120t63.5 113.5t88 85t109 33.5q86 0 178 -80 q16 -77 1 -134t-54 -95.5t-98 -57.5t-131 -19zM678 214q0 47 15.5 94.5t41 91t58 81.5t67.5 67q34 -29 67 -67t58.5 -81.5t41 -91t15.5 -94.5q0 -69 -43.5 -124.5t-138.5 -87.5q-95 32 -138.5 87.5t-43.5 124.5zM826 1060q0 -21 3 -53.5t8 -62.5t11 -52t12 -22t12 22t11 52 t8 62.5t3 53.5q0 27 -8.5 45t-25.5 35q-17 -17 -25.5 -35t-8.5 -45zM894 304q0 21 -3 53.5t-8 62.5t-11 52t-12 22t-12 -22t-11 -52t-8 -62.5t-3 -53.5q0 -27 8.5 -45t25.5 -35q17 17 25.5 35t8.5 45zM1170 830q23 14 34.5 30.5t17.5 39.5q-20 5 -35 5q-26 0 -51 -15 q-18 -10 -43.5 -28t-48.5 -37t-39.5 -35.5t-16.5 -23.5q0 -4 6 -4q10 0 32.5 7t48.5 17.5t52 22.5t43 21zM780 682q0 33 23.5 56.5t56.5 23.5t56.5 -23.5t23.5 -56.5t-23.5 -56.5t-56.5 -23.5t-56.5 23.5t-23.5 56.5zM588 702q-72 0 -131.5 19t-98.5 57.5t-54 95.5t2 134 q92 80 178 80q59 0 109 -33.5t88 -85t63 -113.5t36 -120q-42 -17 -91.5 -25.5t-100.5 -8.5zM550 830q17 -9 42.5 -21t52 -22.5t49 -17.5t32.5 -7q6 0 6 4q0 7 -16.5 23.5t-39.5 35.5t-48.5 37t-43.5 28q-25 15 -51 15q-15 0 -35 -5q6 -23 17.5 -39.5t34.5 -30.5zM1132 662 q72 0 131 -19t98 -57.5t54 -96t-1 -133.5q-92 -80 -178 -80q-59 0 -109 33.5t-88 85t-63.5 113.5t-35.5 120q42 17 91.5 25.5t100.5 8.5zM1170 534q-17 9 -43 21t-52 22.5t-48.5 17.5t-32.5 7q-6 0 -6 -4q0 -7 16.5 -23.5t39.5 -35.5t48.5 -37t43.5 -28q25 -15 51 -15 q15 0 35 5q-6 23 -17.5 39.5t-34.5 30.5zM588 662q51 0 100.5 -8.5t91.5 -25.5q-11 -58 -36 -120t-63 -113.5t-88 -85t-109 -33.5q-86 0 -178 80q-17 76 -2 133.5t54 96t98.5 57.5t131.5 19zM550 534q-23 -14 -34.5 -30.5t-17.5 -39.5q20 -5 35 -5q26 0 51 15q18 10 43.5 28 t48.5 37t39.5 35.5t16.5 23.5q0 4 -6 4q-10 0 -32.5 -7t-49 -17.5t-52 -22.5t-42.5 -21z" />
<glyph unicode="&#x2740;" d="M678 1150q0 69 43.5 124.5t138.5 87.5q95 -32 138.5 -87.5t43.5 -124.5q0 -47 -15.5 -94.5t-41 -91t-58.5 -82t-67 -66.5q-35 28 -67.5 66.5t-58 82t-41 91t-15.5 94.5zM678 214q0 47 15.5 94.5t41 91t58 81.5t67.5 67q34 -29 67 -67t58.5 -81.5t41 -91t15.5 -94.5 q0 -69 -43.5 -124.5t-138.5 -87.5q-95 32 -138.5 87.5t-43.5 124.5zM1132 702q-51 0 -100.5 8.5t-91.5 25.5q10 58 35.5 120t63.5 113.5t88 85t109 33.5q86 0 178 -80q16 -77 1 -134t-54 -95.5t-98 -57.5t-131 -19zM738 1150q0 -31 8.5 -66.5t23 -70t34 -66t42.5 -53.5 q-5 16 -8.5 38t-6 45t-4 45t-1.5 38q0 27 8.5 45t25.5 35q17 -17 25.5 -35t8.5 -45q0 -16 -2 -38t-5 -45t-7 -45t-8 -38q22 22 42 53.5t35 66t24 70t9 66.5q0 53 -30 94t-92 56q-62 -15 -92 -56t-30 -94zM738 214q0 -53 30 -94t92 -56q62 15 92 56t30 94q0 31 -9 66 t-24 69.5t-35 65.5t-42 53q4 -15 8 -37t7 -45t5 -45t2 -37q0 -27 -8.5 -45t-25.5 -35q-17 17 -25.5 35t-8.5 45q0 15 1.5 37t4 45t6 45t8.5 37q-23 -22 -42.5 -53t-34 -65.5t-23 -69.5t-8.5 -66zM1128 760q49 0 95.5 11.5t81 37.5t51 68.5t4.5 104.5q-32 30 -62.5 41 t-63.5 11q-35 0 -69.5 -20t-64.5 -53t-54.5 -77t-39.5 -92q12 12 29 26t35 27.5t35.5 25t30.5 19.5q25 15 51 15q15 0 35 -5q-6 -23 -17.5 -39.5t-34.5 -30.5q-14 -8 -33.5 -17t-40.5 -18t-41.5 -17t-36.5 -12q21 -5 49.5 -5.5t60.5 -0.5zM780 682q0 33 23.5 56.5t56.5 23.5 t56.5 -23.5t23.5 -56.5t-23.5 -56.5t-56.5 -23.5t-56.5 23.5t-23.5 56.5zM588 702q-72 0 -131.5 19t-98.5 57.5t-54 95.5t2 134q92 80 178 80q59 0 109 -33.5t88 -85t63 -113.5t36 -120q-42 -17 -91.5 -25.5t-100.5 -8.5zM592 760q32 0 60.5 0.5t49.5 5.5q-16 4 -36.5 12 t-41.5 17t-41 18t-33 17q-23 14 -34.5 30.5t-17.5 39.5q20 5 35 5q26 0 51 -15q13 -8 30.5 -19.5t35.5 -25t35 -27.5t29 -26q-15 48 -39.5 92t-54.5 77t-64.5 53t-69.5 20q-33 0 -63.5 -11t-62.5 -41q-12 -62 4.5 -104.5t51 -68.5t81 -37.5t95.5 -11.5zM1132 662 q72 0 131 -19t98 -57.5t54 -96t-1 -133.5q-92 -80 -178 -80q-59 0 -109 33.5t-88 85t-63.5 113.5t-35.5 120q42 17 91.5 25.5t100.5 8.5zM1128 604q-32 0 -60.5 -0.5t-49.5 -5.5q16 -5 36.5 -12.5t41.5 -16.5t40.5 -18.5t33.5 -16.5q23 -14 34.5 -30.5t17.5 -39.5 q-20 -5 -35 -5q-26 0 -51 15q-13 7 -30.5 19t-35.5 25.5t-35 27.5t-29 26q15 -48 39.5 -92t54.5 -77t64.5 -53t69.5 -20q33 0 63.5 11t62.5 41q12 62 -4.5 104.5t-51 68.5t-81 37.5t-95.5 11.5zM588 662q51 0 100.5 -8.5t91.5 -25.5q-11 -58 -36 -120t-63 -113.5t-88 -85 t-109 -33.5q-86 0 -178 80q-17 76 -2 133.5t54 96t98.5 57.5t131.5 19zM592 604q-49 0 -95.5 -11.5t-81 -37.5t-51 -68.5t-4.5 -104.5q32 -30 62.5 -41t63.5 -11q35 0 69.5 20t64.5 53t54.5 77t39.5 92q-12 -12 -29 -26t-35 -27.5t-35.5 -25.5t-30.5 -19q-25 -15 -51 -15 q-15 0 -35 5q6 23 17.5 39.5t34.5 30.5q13 7 33 16.5t41 18.5t41.5 16.5t36.5 12.5q-21 5 -49.5 5.5t-60.5 0.5z" />
<glyph unicode="&#x2741;" d="M1002 1144q0 -32 -13 -72.5t-31.5 -85.5t-39 -92.5t-34.5 -91.5h-48q-15 44 -35.5 91.5t-38.5 92.5t-31 85.5t-13 72.5q0 27 11 50t30 40t45 26.5t56 9.5q29 0 55 -9.5t45.5 -26.5t30.5 -40t11 -50zM394 490q-23 -24 -35.5 -54.5t-12.5 -63.5q0 -39 16 -76t46 -66 q32 -30 69 -45t73 -15q33 0 62.5 12.5t55.5 35.5q0 -38 15 -69.5t40.5 -55t60.5 -36.5t76 -13q40 0 75 13t60.5 36.5t40.5 55t16 69.5q24 -23 55.5 -35.5t64.5 -12.5q38 0 74 15t66 47q29 30 44.5 67.5t15.5 72.5q0 70 -48 118q37 1 69 16t55.5 41t36.5 60.5t13 74.5 t-13 75.5t-36.5 61.5t-55.5 41t-69 16q24 24 36 54.5t12 63.5q0 39 -15 75t-45 65q-32 31 -69 46.5t-73 15.5q-35 0 -64.5 -12.5t-53.5 -33.5q-2 36 -17 67.5t-40.5 54.5t-60 36.5t-74.5 13.5q-41 0 -76.5 -13.5t-61 -37t-40 -55t-14.5 -68.5q-26 24 -56 36t-62 12 q-39 0 -76.5 -15t-67.5 -47q-29 -30 -44.5 -68t-15.5 -74q0 -67 46 -116q-37 -2 -68.5 -17.5t-54.5 -41.5t-36 -60.5t-13 -74.5q0 -41 13.5 -75.5t37 -60t55 -40.5t68.5 -16zM1424 994q0 -21 -5 -42.5t-13 -41.5q65 -27 104.5 -87.5t39.5 -140.5q0 -39 -10.5 -74 t-29.5 -64.5t-45.5 -52t-58.5 -35.5q8 -20 13 -40.5t5 -43.5q0 -44 -20 -90.5t-56 -85.5q-36 -38 -82 -58t-94 -20q-18 0 -41.5 4.5t-44.5 13.5q-27 -65 -86.5 -104.5t-139.5 -39.5q-39 0 -74.5 10.5t-65 29.5t-51.5 45.5t-35 58.5q-42 -18 -84 -18q-45 0 -91 20t-87 58 q-38 36 -57 81t-19 95q0 21 3.5 42.5t12.5 41.5q-32 13 -58 35t-44.5 51.5t-29 65t-10.5 74.5t10.5 74.5t29 65t44.5 52t58 36.5q-9 20 -12.5 40.5t-3.5 41.5q0 45 19.5 92t54.5 84q37 40 84.5 59t95.5 19q20 0 41.5 -3t42.5 -11q26 62 86 101t140 39q38 0 73 -10.5 t64.5 -29t52 -45t36.5 -57.5q20 8 40.5 12t43.5 4q45 0 91 -19t87 -57q38 -36 57 -81t19 -95zM1002 222q0 -27 -11 -50t-30.5 -40t-45.5 -26.5t-55 -9.5q-30 0 -56 9.5t-45 26.5t-30 40t-11 50q0 31 13 72t31 86t38.5 92.5t35.5 91.5h48q14 -44 34.5 -91.5t39 -92.5 t31.5 -86t13 -72zM1322 540q-32 0 -72.5 13t-85.5 31.5t-92.5 39t-91.5 34.5v48q44 15 91.5 35.5t92.5 38.5t85.5 31t72.5 13q27 0 50 -11t40 -30t26.5 -45t9.5 -56q0 -29 -9.5 -55t-26.5 -45.5t-40 -30.5t-50 -11zM400 540q-27 0 -50 11t-40 30.5t-26.5 45.5t-9.5 55 q0 30 9.5 56t26.5 45t40 30t50 11q31 0 72 -13t86 -31t92.5 -38.5t91.5 -35.5v-48q-44 -14 -91.5 -34.5t-92.5 -39t-86 -31.5t-72 -13zM1288 908q-23 -23 -61 -42.5t-83 -38t-93 -37.5t-89 -40l-34 34q21 42 39.5 90t37.5 93t38.5 83t42.5 60q35 34 84 34q28 0 55.5 -11.5 t50.5 -34.5t34 -50.5t11 -55.5q0 -23 -8 -44.5t-25 -39.5zM434 906q-17 18 -25.5 40t-8.5 45q0 28 11.5 55t34.5 50q48 46 106 46q23 0 45 -8t39 -26q22 -23 41.5 -61t38.5 -83t38 -92.5t40 -89.5l-34 -34q-41 22 -89 41t-93 38t-83.5 38t-60.5 41zM1288 456 q17 -18 25 -39.5t8 -44.5q0 -28 -11 -55.5t-34 -50.5t-50.5 -34.5t-55.5 -11.5q-49 0 -84 34q-23 22 -42.5 60t-38.5 83t-37.5 93t-39.5 90l34 34q41 -21 89 -40t93 -37.5t83 -38.5t61 -42zM434 458q22 22 60.5 41t83.5 38t93 38t89 41l34 -34q-21 -42 -40 -90t-38 -93 t-38.5 -83t-41.5 -60q-17 -18 -39 -26t-45 -8q-58 0 -106 46q-23 23 -34.5 50t-11.5 55q0 23 8.5 45t25.5 40z" />
<glyph unicode="&#x2742;" d="M1266 828q24 -69 24 -146q0 -41 -6 -76t-18 -70l292 145q0 -146 -55 -272.5t-152 -222.5l-101 312q-32 -68 -84.5 -121t-123.5 -85l307 -107q-95 -94 -220.5 -147.5t-269.5 -53.5l147 292q-36 -12 -71.5 -19t-74.5 -7q-41 0 -76 7t-70 19l143 -292q-145 0 -272 54.5 t-221 150.5l312 99q-71 35 -124 89t-86 125l-103 -312q-94 95 -147.5 220.5t-53.5 270.5l292 -145q-14 35 -21 71t-7 75q0 41 7 76t21 70l-292 -145q0 146 54 271.5t149 220.5l103 -309q32 69 86 122t122 88l-308 102q96 94 221.5 148t271.5 54l-147 -292q35 12 70 19t76 7 q39 0 74.5 -7t71.5 -19l-143 292q146 0 272 -54.5t221 -150.5l-314 -99q69 -35 122.5 -88t85.5 -122l107 308q94 -95 147.5 -220.5t53.5 -270.5zM490 682q0 -77 29 -144t79.5 -117.5t117.5 -79.5t144 -29q76 0 143.5 29t118 79.5t79.5 117.5t29 144q0 76 -29 143.5 t-79.5 118t-118 79.5t-143.5 29q-77 0 -144 -29t-117.5 -79.5t-79.5 -118t-29 -143.5z" />
<glyph unicode="&#x2743;" d="M694 1226q0 31 13 58.5t35.5 47t52.5 31t65 11.5t65.5 -11.5t53 -31t35 -47t12.5 -58.5q0 -38 -10 -84t-31 -109t-52 -148.5t-73 -200.5q-42 115 -73 200.5t-52 148.5t-31 109t-10 84zM276 834q-20 20 -31 45t-11 57t13 64.5t35.5 58t53.5 41.5t66 16q36 0 71.5 -19 t85 -68t121 -133t178.5 -214q-143 26 -242 43.5t-166 33t-108 32.5t-66 43zM1444 834q-17 -17 -40.5 -30t-56.5 -24t-77 -21t-103 -21.5t-134.5 -25t-170.5 -30.5q107 130 178.5 214t121 133t85 68t71.5 19q35 0 66 -16t53.5 -41.5t35.5 -58t13 -64.5t-11 -57t-31 -45z M694 136q0 37 10 83.5t31 109.5t52 148t73 201q42 -116 73 -201t52 -148t31 -109.5t10 -83.5q0 -32 -12.5 -59t-35 -46.5t-53 -31t-65.5 -11.5t-65 11.5t-52.5 31t-35.5 46.5t-13 59zM276 528q25 25 66 42.5t108 33t166 33t242 43.5q-107 -130 -178.5 -214t-121 -133 t-85 -68t-71.5 -19q-35 0 -66 16t-53.5 41.5t-35.5 58t-13 64.5t11 57t31 45zM1444 528q20 -20 31 -45t11 -57t-13 -64.5t-35.5 -58t-53.5 -41.5t-66 -16q-36 0 -71.5 19t-85 68t-121 133t-178.5 214q142 -26 241.5 -43.5t166.5 -33t107.5 -33t66.5 -42.5zM860 1316 q-47 0 -76.5 -27t-29.5 -69q0 -25 7.5 -59.5t21.5 -81.5t33.5 -108t43.5 -137v482zM860 46q47 0 76.5 27t29.5 69q0 25 -7.5 59.5t-21.5 81.5t-33.5 107.5t-43.5 137.5v-482zM1410 364q18 30 18 60q0 52 -48 80q-42 24 -136 45t-250 57zM312 1000q-17 -28 -17 -59 q0 -25 12 -46t35 -35q21 -12 55 -23t81.5 -23t109.5 -25.5t140 -30.5zM310 364q15 -28 38.5 -42.5t49.5 -14.5q24 0 49 14q21 12 47 36t59.5 59.5t76 82t96.5 105.5zM1408 998q-16 28 -39 42.5t-49 14.5q-25 0 -48 -13q-42 -24 -107 -95t-173 -189z" />
<glyph unicode="&#x2744;" d="M904 603l8 -329l200 -180q13 -11 12 -20t-10 -18l-34 -34q-11 -11 -20 -10t-18 10l-134 140l4 -140q1 -17 -8 -25.5t-20 -8.5h-52q-12 0 -20.5 8.5t-7.5 25.5l4 140l-134 -140q-9 -9 -18 -10t-20 10l-34 34q-9 9 -10 18t12 20l200 180l8 328l-280 -171l-56 -263 q-4 -17 -11.5 -20.5t-20.5 -0.5l-46 13q-15 5 -19 12.5t0 19.5l54 186l-119 -73q-14 -9 -26.5 -5.5t-17.5 12.5l-26 45q-6 11 -2.5 22t18.5 19l123 67l-188 46q-13 3 -19 10t-1 23l13 46q3 13 10 18t24 0l256 -83l288 157l-287 157l-256 -83q-17 -5 -24 0t-10 18l-13 46 q-5 16 1 23t19 10l188 46l-123 67q-15 8 -18 20t2 21l26 45q6 11 18 13.5t26 -6.5l119 -73l-54 186q-4 12 -0.5 19.5t19.5 12.5l46 13q13 3 20.5 -0.5t11.5 -20.5l56 -263l279 -171l-8 328l-200 180q-13 11 -12 20t10 18l34 34q11 11 20 10t18 -10l134 -140l-4 140 q-1 17 7.5 25.5t20.5 8.5h52q11 0 20 -8.5t8 -25.5l-4 -140l134 140q9 9 18 10t20 -10l34 -34q9 -9 10 -18t-12 -20l-200 -180l-8 -329l280 172l56 263q4 17 11.5 20.5t20.5 0.5l46 -13q16 -5 19.5 -12.5t-0.5 -19.5l-54 -186l119 73q14 9 26 6.5t18 -13.5l26 -45 q5 -9 2 -21t-18 -20l-123 -67l188 -46q13 -3 19 -10t1 -23l-13 -46q-3 -13 -10 -18t-24 0l-256 83l-288 -157l289 -157l256 83q17 5 24 0t10 -18l13 -46q5 -16 -1 -23t-19 -10l-188 -46l123 -67q15 -8 18.5 -19t-2.5 -22l-26 -45q-5 -9 -17.5 -12.5t-26.5 5.5l-119 73 l54 -186q4 -12 0 -19.5t-19 -12.5l-46 -13q-13 -3 -20.5 0.5t-11.5 20.5l-56 263z" />
<glyph unicode="&#x2745;" d="M578 950h234v222l-170 28q-24 4 -24 30v34q0 25 22 20l172 -35v117q0 26 24 26h48q12 0 18 -5.5t6 -20.5v-117l172 35q22 5 22 -20v-34q0 -26 -24 -30l-170 -28v-222h231l-49 132q-4 11 -1.5 20t15.5 16l30 16q21 12 28 -8l58 -175l204 123q22 14 34 -8l24 -42 q6 -11 4.5 -19t-14.5 -15l-206 -113l-1 -1l117 -132q13 -16 -6 -28l-30 -18q-22 -13 -38 6l-84 101l-117 -202l194 -112l109 133q16 19 38 6l30 -18q19 -12 6 -28l-116 -132l102 -58q22 -14 10 -34l-24 -42q-12 -21 -34 -8l-102 59l-56 -167q-7 -20 -28 -8l-30 16 q-13 7 -15.5 16t1.5 20l60 162l-193 111l-115 -199l134 -22q24 -5 24 -30v-34q0 -25 -22 -20l-177 35v-1l5 -234q0 -15 -6 -20.5t-18 -5.5h-48q-24 0 -24 26l5 235h-1l-176 -35q-22 -5 -22 20v34q0 25 24 30l134 22l-115 199l-194 -112l61 -161q4 -11 1.5 -20t-15.5 -16 l-30 -16q-21 -12 -28 8l-56 166l-102 -58q-22 -13 -34 8l-24 42q-12 20 10 34l101 58l-115 132q-13 16 6 28l30 18q22 13 38 -6l109 -133l193 112l-116 201l-88 -106q-16 -19 -38 -6l-30 18q-19 12 -6 28l121 137l-207 113q-13 7 -14.5 15t4.5 19l24 42q12 22 34 8l201 -122 l57 170q7 20 28 8l30 -16q24 -13 14 -36zM908 866v-148l127 -73l127 221h-254zM812 718v148h-254l127 -221zM733 561l127 -221l127 221l-127 73z" />
<glyph unicode="&#x2746;" d="M905 603l6 -254l99 -29q12 -3 17 -11t5 -25v-40q0 -32 -30 -20l-89 35l1 -63l186 -74q12 -5 17 -14.5t5 -21.5v-50q0 -17 -8 -20.5t-22 2.5l-180 84l2 -80q0 -17 -8.5 -25.5t-19.5 -8.5h-52q-12 0 -20 8.5t-8 25.5l2 80l-180 -84q-14 -6 -22 -2.5t-8 20.5v50q0 12 5 21.5 t17 14.5l186 74l1 63l-87 -35q-30 -12 -30 20v40q0 17 5 24.5t17 11.5l97 29l5 254l-217 -132l24 -100q3 -12 -1.5 -20.5t-18.5 -16.5l-34 -20q-28 -16 -33 16l-14 95l-54 -33l29 -198q2 -13 -3.5 -22t-16.5 -15l-44 -25q-14 -8 -21 -2.5t-9 19.5l-17 198l-69 -42 q-14 -8 -26 -5t-17 13l-26 45q-6 11 -2.5 22t17.5 19l71 38l-163 114q-12 8 -13 17.5t14 17.5l43 25q11 6 21.5 6.5t20.5 -7.5l157 -124l55 30l-74 58q-24 20 3 36l34 20q14 8 23.5 8t18.5 -9l74 -69l223 122l-221 122l-76 -71q-9 -8 -18.5 -8.5t-23.5 7.5l-34 20 q-29 16 -3 36l76 59l-56 31l-157 -124q-10 -8 -20.5 -7.5t-21.5 6.5l-43 25q-15 8 -14 17.5t13 17.5l163 114l-71 38q-14 8 -17 20t2 21l26 45q6 11 17.5 13.5t25.5 -5.5l69 -42l17 198q2 14 9 19.5t21 -2.5l44 -25q11 -6 16.5 -15t3.5 -22l-29 -198l54 -33l13 93 q5 32 33 16l34 -20q14 -8 18.5 -16.5t1.5 -20.5l-23 -98l216 -132l-5 254l-97 29q-12 4 -17 11.5t-5 24.5v40q0 32 30 20l87 -35l-1 63l-186 74q-12 5 -17 14.5t-5 21.5v50q0 17 8 20.5t22 -2.5l180 -84l-2 80q0 17 8 25.5t20 8.5h52q11 0 19.5 -8.5t8.5 -25.5l-2 -80 l180 84q14 6 22 2.5t8 -20.5v-50q0 -12 -5 -21.5t-17 -14.5l-186 -74l-1 -64l89 36q30 12 30 -20v-40q0 -17 -5 -24.5t-17 -11.5l-99 -30l-6 -253l218 132l-23 98q-3 12 1.5 20.5t18.5 16.5l34 20q28 16 33 -16l13 -93l54 33l-29 198q-2 13 3.5 22t16.5 15l44 25 q14 8 21 2.5t9 -19.5l17 -198l69 42q14 8 25.5 5.5t17.5 -13.5l26 -45q5 -9 2 -21t-17 -20l-71 -38l163 -114q12 -8 13 -17.5t-14 -17.5l-43 -25q-11 -6 -21.5 -6.5t-20.5 7.5l-157 124l-56 -31l76 -59q25 -20 -3 -36l-34 -20q-14 -8 -23.5 -7.5t-18.5 8.5l-76 71l-222 -122 l224 -122l74 69q9 9 18.5 9t23.5 -8l34 -20q27 -16 3 -36l-74 -58l55 -30l157 124q10 8 20.5 7.5t21.5 -6.5l43 -25q15 -8 14 -17.5t-13 -17.5l-163 -114l71 -38q14 -8 17.5 -19t-2.5 -22l-26 -45q-5 -10 -17 -13t-26 5l-69 42l-17 -198q-2 -14 -9 -19.5t-21 2.5l-44 25 q-11 6 -16.5 15t-3.5 22l29 198l-54 33l-14 -95q-5 -32 -33 -16l-34 20q-14 8 -18.5 16.5t-1.5 20.5l24 100z" />
<glyph unicode="&#x2747;" d="M938 1290q0 -20 -4 -62t-10.5 -100.5t-15 -130.5t-18.5 -151q-6 -32 -32 -32q-24 0 -30 32q-9 79 -17.5 151t-15.5 130.5t-11 100.5t-4 62q0 35 23 55.5t55 20.5q33 0 56.5 -20.5t23.5 -55.5zM1290 1164q17 17 27.5 16.5t24.5 -12.5q12 -14 12.5 -24.5t-16.5 -27.5 q-78 -79 -136.5 -135.5t-101 -95t-70 -61.5t-44.5 -35t-25 -14t-11 1t-1 11t14 25t35 44.5t61.5 70t95 100.5t135.5 137zM378 252q78 78 136.5 135t101 95.5t70 61.5t44.5 35t25 14t11 -1t1 -11t-14 -25t-35 -44.5t-61.5 -70t-95.5 -101t-135 -136.5q-17 -17 -27.5 -16.5 t-24.5 12.5q-12 14 -12.5 24.5t16.5 27.5zM378 1116q-17 17 -16.5 27.5t12.5 24.5q14 12 24.5 12.5t27.5 -16.5q78 -78 135 -136.5t95.5 -101t61.5 -70t35 -44.5t14 -25t-1 -11t-11 -1t-25 14t-44.5 35t-70 61.5t-101 95t-136.5 135.5zM1290 204q-79 78 -135.5 136.5 t-95 101t-61.5 70t-35 44.5t-14 25t1 11t11 1t25 -14t44.5 -35t70 -61.5t100.5 -95.5t137 -135q17 -17 16.5 -27.5t-12.5 -24.5q-14 -12 -24.5 -12.5t-27.5 16.5zM938 76q0 -35 -23.5 -55.5t-56.5 -20.5q-32 0 -55 20.5t-23 55.5q0 19 3.5 61.5t9.5 101t15 130.5t20 151 q6 32 30 32q26 0 32 -32q12 -79 21 -151t15 -130.5t9 -101t3 -61.5zM1466 602q-20 0 -62 3t-100.5 9t-130.5 15t-151 21q-32 6 -32 32q0 24 32 30q79 11 151 20t130.5 15t100.5 9.5t62 3.5q35 0 55.5 -23t20.5 -55q0 -33 -20.5 -56.5t-55.5 -23.5zM252 602q-35 0 -55.5 23.5 t-20.5 56.5q0 32 20.5 55t55.5 23q19 0 61.5 -3.5t101 -9.5t130.5 -15t151 -20q32 -6 32 -30q0 -26 -32 -32q-79 -12 -151 -21t-130.5 -15t-101 -9t-61.5 -3zM778 682q0 33 23.5 56.5t56.5 23.5t56.5 -23.5t23.5 -56.5t-23.5 -56.5t-56.5 -23.5t-56.5 23.5t-23.5 56.5z" />
<glyph unicode="&#x2748;" d="M982 1246q0 -60 -21.5 -153t-62.5 -227q-6 -21 -14.5 -31.5t-25.5 -10.5t-25.5 10.5t-14.5 31.5q-41 134 -61.5 227t-20.5 153q0 27 9.5 49t26 38t38.5 24.5t48 8.5q25 0 48 -8.5t39.5 -24.5t26.5 -38t10 -49zM982 120q0 -27 -10 -49t-26.5 -38t-39.5 -24.5t-48 -8.5 q-26 0 -48 8.5t-38.5 24.5t-26 38t-9.5 49q0 60 20.5 153t61.5 227q6 21 14.5 31.5t25.5 10.5t25.5 -10.5t14.5 -31.5q41 -134 62.5 -227t21.5 -153zM1422 558q-60 0 -153 21.5t-227 62.5q-21 6 -31.5 14.5t-10.5 25.5t10.5 25.5t31.5 14.5q134 41 227 61.5t153 20.5 q27 0 49 -9.5t38 -26t24.5 -39t8.5 -47.5q0 -26 -8.5 -48.5t-24.5 -39t-38 -26.5t-49 -10zM296 558q-27 0 -49 10t-38 26.5t-24.5 39t-8.5 48.5q0 25 8.5 47.5t24.5 39t38 26t49 9.5q60 0 153 -20.5t227 -61.5q21 -6 31.5 -14.5t10.5 -25.5t-10.5 -25.5t-31.5 -14.5 q-134 -41 -227 -62.5t-153 -21.5zM1290 1164q17 17 27.5 16.5t24.5 -12.5q12 -14 12.5 -24.5t-16.5 -27.5q-78 -79 -136.5 -135.5t-101 -95t-70 -61.5t-44.5 -35t-25 -14t-11 1t-1 11t14 25t35 44.5t61.5 70t95 100.5t135.5 137zM378 252q78 78 136.5 135t101 95.5t70 61.5 t44.5 35t25 14t11 -1t1 -11t-14 -25t-35 -44.5t-61.5 -70t-95.5 -101t-135 -136.5q-17 -17 -27.5 -16.5t-24.5 12.5q-12 14 -12.5 24.5t16.5 27.5zM378 1116q-17 17 -16.5 27.5t12.5 24.5q14 12 24.5 12.5t27.5 -16.5q78 -78 135 -136.5t95.5 -101t61.5 -70t35 -44.5t14 -25 t-1 -11t-11 -1t-25 14t-44.5 35t-70 61.5t-101 95t-136.5 135.5zM1290 204q-79 78 -135.5 136.5t-95 101t-61.5 70t-35 44.5t-14 25t1 11t11 1t25 -14t44.5 -35t70 -61.5t100.5 -95.5t137 -135q17 -17 16.5 -27.5t-12.5 -24.5q-14 -12 -24.5 -12.5t-27.5 16.5zM778 682 q0 33 23.5 56.5t56.5 23.5t56.5 -23.5t23.5 -56.5t-23.5 -56.5t-56.5 -23.5t-56.5 23.5t-23.5 56.5z" />
<glyph unicode="&#x2749;" d="M524 1102q0 -14 -4 -25.5t-10 -22.5l332 -328v468q-30 6 -48 28t-18 54q0 35 24 59.5t60 24.5q35 0 59.5 -24.5t24.5 -59.5q0 -32 -18.5 -54t-47.5 -28v-468l330 328q-12 21 -12 48q0 35 24 59.5t60 24.5q35 0 59.5 -24.5t24.5 -59.5q0 -36 -24.5 -60t-59.5 -24 q-27 0 -48 12l-328 -330h470q6 29 28 47.5t54 18.5q35 0 59.5 -24.5t24.5 -59.5q0 -36 -24.5 -60t-59.5 -24q-32 0 -54 18t-28 48h-470l328 -332q11 6 22.5 10t25.5 4q35 0 59.5 -24t24.5 -60q0 -35 -24.5 -59.5t-59.5 -24.5q-36 0 -60 24.5t-24 59.5q0 28 12 46l-330 330 v-468q29 -6 47.5 -28t18.5 -54q0 -35 -24.5 -59.5t-59.5 -24.5q-36 0 -60 24.5t-24 59.5q0 32 18 54t48 28v468l-332 -330q6 -9 10 -20.5t4 -25.5q0 -35 -24 -59.5t-60 -24.5q-35 0 -59.5 24.5t-24.5 59.5q0 36 24.5 60t59.5 24q14 0 25.5 -4t20.5 -10l330 332h-470 q-6 -30 -28 -48t-54 -18q-35 0 -59.5 24t-24.5 60q0 35 24.5 59.5t59.5 24.5q32 0 54 -18.5t28 -47.5h470l-330 330q-18 -12 -46 -12q-35 0 -59.5 24t-24.5 60q0 35 24.5 59.5t59.5 24.5q36 0 60 -24.5t24 -59.5z" />
<glyph unicode="&#x274a;" d="M942 1288q0 -35 -8 -81.5t-20 -104t-26.5 -126.5t-27.5 -148q-16 79 -31 148t-27 126.5t-19 104t-7 81.5q0 47 23 68.5t61 21.5q36 0 59 -21.5t23 -68.5zM942 82q0 -47 -23 -68.5t-59 -21.5q-38 0 -61 21.5t-23 68.5q0 35 7 81.5t19 104t27 126t31 148.5 q13 -80 27.5 -148.5t26.5 -126t20 -104t8 -81.5zM1462 600q-35 0 -81.5 7.5t-104 19.5t-126.5 26.5t-148 28.5q79 16 148 31t126.5 27t104 19t81.5 7q47 0 68.5 -23t21.5 -61q0 -36 -21.5 -59t-68.5 -23zM256 600q-47 0 -68.5 23t-21.5 59q0 38 21.5 61t68.5 23 q35 0 81.5 -7t104 -19t126 -27t148.5 -31q-80 -14 -148.5 -28.5t-126 -26.5t-104 -19.5t-81.5 -7.5zM1344 1052q-25 -25 -63 -52.5t-87.5 -60t-108 -71t-123.5 -84.5q90 135 152.5 235t113.5 151q32 32 63.5 31t58.5 -27q26 -26 26.5 -57.5t-32.5 -64.5zM492 198 q-33 -32 -64.5 -31t-57.5 27q-27 26 -28 57.5t32 64.5q25 25 63 52.5t87.5 60t108.5 70.5t127 83q-47 -66 -85.5 -124.5t-71 -108t-59.5 -88t-52 -63.5zM1226 198q-25 25 -52.5 63t-60 87.5t-71 108t-84.5 123.5q135 -90 235 -152.5t151 -113.5q32 -32 31 -63.5t-27 -58.5 q-26 -26 -57.5 -26.5t-64.5 32.5zM372 1050q-32 33 -31 64.5t27 57.5q26 27 57.5 28t64.5 -32q25 -25 52.5 -63t60 -87.5t70.5 -109t83 -126.5q-66 47 -124.5 85.5t-108 71t-88 59.5t-63.5 52zM780 684q0 33 23.5 56.5t56.5 23.5t56.5 -23.5t23.5 -56.5t-23.5 -56.5 t-56.5 -23.5t-56.5 23.5t-23.5 56.5z" />
<glyph unicode="&#x274b;" d="M1544 682q0 -65 -38.5 -100.5t-119.5 -35.5q-41 0 -89.5 14.5t-101 33t-107 36.5t-106.5 26l-14 2q-12 2 -17.5 0t-8.5 -10t-2 -13t12 -13l14 -10q43 -31 94.5 -56t101 -48.5t93.5 -48t73 -53.5q57 -57 59 -110t-43 -98q-45 -43 -93 -43q-56 0 -115 59q-29 29 -53 72.5 t-47.5 93t-49 100t-56.5 94.5l-10 14q-8 11 -14 13t-14 -1t-10 -8.5t0 -17.5l2 -14q7 -53 25.5 -107t38 -106.5t34 -101t14.5 -89.5q0 -81 -36.5 -119.5t-99.5 -38.5q-65 0 -100.5 38.5t-35.5 119.5q0 41 14.5 89.5t34 101t37.5 106.5t26 107l2 14q2 12 0 17.5t-10 8.5 t-14 1t-14 -13l-10 -14q-32 -44 -57 -94.5t-48.5 -100t-47.5 -93t-53 -72.5q-59 -59 -115 -59q-48 0 -93 43q-45 45 -43 98t59 110q29 29 73.5 53.5t94 48t100.5 48.5t94 56l14 10q11 8 12 13t-2 13t-8.5 10t-17.5 0l-14 -2q-53 -8 -107.5 -26t-106.5 -36.5t-100.5 -33 t-89.5 -14.5q-81 0 -119.5 35.5t-38.5 100.5t38.5 100.5t119.5 35.5q41 0 89.5 -14.5t100.5 -33t106.5 -37t107.5 -25.5l14 -2q12 -2 17.5 0t8.5 10t2 13t-12 13l-14 10q-43 31 -94 56t-100.5 48.5t-94 48t-73.5 53.5q-57 57 -59 110t43 98q45 43 93 43q56 0 115 -59 q29 -29 53 -72.5t47.5 -93t48.5 -100.5t57 -94l10 -14q8 -11 14 -13t14 1t10 8.5t0 17.5l-2 14q-8 52 -26 106.5t-37.5 107t-34 101t-14.5 89.5q0 81 35.5 119.5t100.5 38.5q63 0 99.5 -38.5t36.5 -119.5q0 -41 -14.5 -89.5t-34 -101t-38 -107t-25.5 -106.5l-2 -14 q-2 -12 0 -17.5t10 -8.5t14 -1t14 13l10 14q31 43 56.5 94t49 100.5t47.5 93t53 72.5q59 59 115 59q48 0 93 -43q45 -45 43 -98t-59 -110q-29 -29 -73 -53.5t-93.5 -48t-101 -48.5t-94.5 -56l-14 -10q-11 -8 -12 -13t2 -13t8.5 -10t17.5 0l14 2q52 7 106.5 25.5t107 37 t101 33t89.5 14.5q81 0 119.5 -35.5t38.5 -100.5z" />
<glyph unicode="&#x274c;" horiz-adv-x="1450" d="M724 846l358 376l184 -184l-378 -356l382 -362l-184 -184l-362 382l-358 -376l-184 184l378 356l-380 362l184 184z" />
<glyph unicode="&#x274d;" horiz-adv-x="1274" d="M136 708q0 91 34.5 170.5t94 139t139 94t170.5 34.5q110 0 202 -49.5t152 -132.5q41 -29 74.5 -68t57.5 -84.5t37 -97t13 -106.5q0 -91 -34 -170.5t-93 -138.5t-138.5 -93t-170.5 -34q-56 0 -107.5 13t-97 37t-84.5 57.5t-69 74.5q-83 59 -131.5 151.5t-48.5 202.5z M216 708q0 -74 28.5 -138.5t77 -113t113.5 -76.5t139 -28t139 28t113 76.5t76 113t28 138.5t-28 139.5t-76 114t-113 76.5t-139 28t-139 -28t-113.5 -76.5t-77 -114t-28.5 -139.5z" />
<glyph unicode="&#x274e;" horiz-adv-x="1708" d="M494 1228l-184 -184l360 -362l-358 -356l184 -184l358 356l362 -362l184 184l-362 362l358 356l-184 184l-358 -356zM180 1360h1348v-1360h-1348v1360z" />
<glyph unicode="&#x274f;" horiz-adv-x="1274" d="M1094 184h-784v130h-130v788h784v-130h130v-788zM884 1022h-624v-628h624v628z" />
<glyph unicode="&#x2750;" horiz-adv-x="1274" d="M1094 314h-130v-130h-784v788h130v130h784v-788zM884 892h-624v-628h624v628z" />
<glyph unicode="&#x2751;" horiz-adv-x="1274" d="M1090 966v-776h-772l-136 124v788h784zM886 1022h-624v-628h624v628z" />
<glyph unicode="&#x2752;" horiz-adv-x="1274" d="M966 190h-784v788l136 124h772v-776zM886 898h-624v-628h624v628z" />
<glyph unicode="&#x2753;" horiz-adv-x="1040" d="M520 1360q84 0 152.5 -28.5t117.5 -79.5t75.5 -121t26.5 -153q0 -66 -19.5 -116.5t-49.5 -90.5t-66 -72t-68 -61.5t-56.5 -59.5t-30.5 -66l-8 -44q-5 -24 -12.5 -33t-31.5 -9h-152q-24 0 -34 9t-10 35v60q0 53 18 93.5t44.5 74t57.5 62t57.5 57t44.5 60t18 71.5 q0 33 -12 57.5t-31.5 41t-45 25t-51.5 8.5q-42 0 -91 -12t-111 -30l-20 -6q-21 -6 -36.5 -1t-25.5 31l-38 102q-9 24 -3.5 42.5t35.5 35.5l28 16q34 19 71.5 37.5t79 33t86 23t91.5 8.5zM308 154q0 36 13 67.5t35.5 54.5t53.5 36.5t66 13.5q36 0 67.5 -13.5t54.5 -36.5 t36.5 -54.5t13.5 -67.5q0 -35 -13.5 -66t-36.5 -53.5t-54.5 -35.5t-67.5 -13q-35 0 -66 13t-53.5 35.5t-35.5 53.5t-13 66z" />
<glyph unicode="&#x2754;" horiz-adv-x="1040" d="M518 1363q88 0 160 -29t123 -79.5t79 -118.5t28 -145q0 -51 -10 -91.5t-31 -78t-53 -75t-76 -81.5q-23 -23 -37.5 -40t-23.5 -32t-13 -29.5t-6 -32.5l-4 -26q-6 -45 -28.5 -64.5t-73.5 -19.5h-152q-48 0 -71 19t-23 63v74q0 32 6 59t21 54t40 56t63 67q33 33 55.5 64 t22.5 64q0 23 -16 34.5t-36 11.5q-26 0 -58 -6t-74 -18l-38 -10q-31 -8 -53 -9t-38.5 6.5t-28 23.5t-20.5 41l-34 90q-8 21 -11 41t3 38t21 35t43 32l26 14q32 17 69 34.5t77.5 31.5t83.5 23t88 9zM518 1287q-80 0 -151.5 -26.5t-128.5 -59.5l-24 -14q-20 -12 -24 -25t2 -31 l32 -88q5 -12 16 -18.5t28 -1.5l62 16q35 9 69 16.5t63 7.5q28 0 52 -7.5t42 -22.5t28 -38t10 -54q0 -28 -8.5 -52t-22.5 -45t-32 -40.5t-37 -38.5q-31 -31 -51.5 -55t-33 -45.5t-18 -42.5t-5.5 -45v-50q0 -17 6 -23.5t20 -6.5h124q18 0 26.5 6.5t11.5 23.5l8 36q4 17 9 32 t16 33t31 40.5t54 54.5q62 59 100 124t38 142q0 61 -22.5 115.5t-63 95t-98.5 64t-128 23.5zM378 162q0 -41 28.5 -69.5t69.5 -28.5t69.5 28.5t28.5 69.5t-28.5 69.5t-69.5 28.5t-69.5 -28.5t-28.5 -69.5zM298 162q0 37 14 68.5t38 55t56.5 37t69.5 13.5t69.5 -13.5 t56.5 -37t38 -55t14 -68.5t-14 -68.5t-38 -54.5t-56.5 -36t-69.5 -13t-69.5 13t-56.5 36t-38 54.5t-14 68.5z" />
<glyph unicode="&#x2755;" horiz-adv-x="1040" d="M572 478q17 0 23 6.5t9 27.5l64 512q3 21 4.5 47.5t1.5 44.5q-1 40 -9 71t-26 52.5t-47 33t-72 11.5t-72 -11.5t-47 -33t-26 -52.5t-9 -71q0 -18 1.5 -44.5t4.5 -47.5l64 -512q3 -21 9 -27.5t23 -6.5h104zM422 160q0 -41 28.5 -69.5t69.5 -28.5t69.5 28.5t28.5 69.5 t-28.5 69.5t-69.5 28.5t-69.5 -28.5t-28.5 -69.5zM342 160q0 37 14 68.5t38 55t56.5 37t69.5 13.5t69.5 -13.5t56.5 -37t38 -55t14 -68.5t-14 -68.5t-38 -54.5t-56.5 -36t-69.5 -13t-69.5 13t-56.5 36t-38 54.5t-14 68.5zM468 402q-54 0 -77.5 22t-30.5 76l-66 516 q-3 26 -5.5 51t-2.5 49q1 57 14 102t41.5 76.5t72.5 48.5t106 17t106 -17t72.5 -48.5t41.5 -76.5t14 -102q0 -24 -2.5 -49t-5.5 -51l-66 -516q-4 -27 -11 -45.5t-19.5 -30.5t-31.5 -17t-46 -5h-104z" />
<glyph unicode="&#x2756;" d="M1268 388l-296 294l296 294l296 -294zM1154 1090l-294 -296l-294 296l294 296zM566 274l294 294l294 -296l-294 -294zM156 682l294 294l296 -294l-294 -294z" />
<glyph unicode="&#x2757;" horiz-adv-x="1040" d="M638 468q-3 -24 -11.5 -33t-32.5 -9h-152q-24 0 -32.5 9t-11.5 35l-70 600q-3 23 -5.5 51.5t-2.5 48.5q2 89 52 139.5t148 50.5q95 0 147.5 -50.5t52.5 -139.5q0 -46 -6 -100zM352 154q0 36 13 67.5t35.5 54.5t53.5 36.5t66 13.5q36 0 67.5 -13.5t54.5 -36.5t36.5 -54.5 t13.5 -67.5q0 -35 -13.5 -66t-36.5 -53.5t-54.5 -35.5t-67.5 -13q-35 0 -66 13t-53.5 35.5t-35.5 53.5t-13 66z" />
<glyph unicode="&#x2758;" horiz-adv-x="560" d="M180 1360h200v-1360h-200v1360z" />
<glyph unicode="&#x2759;" horiz-adv-x="760" d="M180 1360h400v-1360h-400v1360z" />
<glyph unicode="&#x275a;" horiz-adv-x="960" d="M180 1360h600v-1360h-600v1360z" />
<glyph unicode="&#x275b;" horiz-adv-x="1010" d="M506 402q-65 0 -125.5 24t-107 70t-74 112.5t-27.5 151.5q0 65 13 130t46 138.5t88.5 161t140.5 198.5l26 34q12 15 28 15q10 0 22 -7q14 -9 17 -19.5t-9 -28.5l-16 -24q-50 -75 -81.5 -126t-49.5 -84.5t-24.5 -53t-6.5 -30.5q0 -20 22 -20q7 0 18.5 2.5t26 5.5t30.5 5.5 t31 2.5q69 0 131 -21t109 -61.5t74.5 -101.5t27.5 -140q0 -72 -26.5 -133t-71.5 -106t-105 -70t-127 -25z" />
<glyph unicode="&#x275c;" horiz-adv-x="1010" d="M504 1360q65 0 125.5 -24t107 -70t74 -112.5t27.5 -151.5q0 -65 -13 -130t-46 -138.5t-88.5 -161t-140.5 -198.5l-26 -34q-12 -15 -28 -15q-10 0 -22 7q-14 9 -17 19.5t9 28.5l16 24q50 75 81.5 126t49.5 84.5t24.5 53t6.5 30.5q0 20 -22 20q-7 0 -18.5 -2.5t-26 -5.5 t-30.5 -5.5t-31 -2.5q-69 0 -131 21t-109 61.5t-74.5 101t-27.5 140.5q0 72 26 133t71 106t105 70t128 25z" />
<glyph unicode="&#x275d;" horiz-adv-x="1590" d="M506 342q-65 0 -125.5 24t-107 70t-74 112.5t-27.5 151.5q0 65 13 130t46 138.5t88.5 161t140.5 198.5l26 34q12 15 28 15q10 0 22 -7q14 -9 17 -19.5t-9 -28.5l-16 -24q-50 -75 -81.5 -126t-49.5 -84.5t-24.5 -53t-6.5 -30.5q0 -20 22 -20q7 0 18.5 2.5t26 5.5t30.5 5.5 t31 2.5q79 0 148 -26.5t117 -79.5q8 53 27 109t52 120.5t83 139t119 165.5l26 34q12 15 28 15q10 0 22 -7q14 -9 17 -19.5t-9 -28.5l-16 -24q-50 -75 -81.5 -126t-49.5 -84.5t-24.5 -53t-6.5 -30.5q0 -20 22 -20q7 0 18.5 2.5t26 5.5t30.5 5.5t31 2.5q69 0 131 -21 t109 -61.5t74.5 -101.5t27.5 -140q0 -72 -26.5 -133t-71.5 -106t-105 -70t-127 -25q-78 0 -147.5 34t-117.5 99q-16 -52 -46.5 -95t-71.5 -73.5t-91.5 -47.5t-105.5 -17z" />
<glyph unicode="&#x275e;" horiz-adv-x="1590" d="M1084 1400q65 0 125.5 -24t107 -70t74 -112.5t27.5 -151.5q0 -65 -13 -130t-46 -138.5t-88.5 -161t-140.5 -198.5l-26 -34q-12 -15 -28 -15q-10 0 -22 7q-14 9 -17 19.5t9 28.5l16 24q50 75 81.5 126t49.5 84.5t24.5 53t6.5 30.5q0 20 -22 20q-7 0 -18.5 -2.5t-26 -5.5 t-30.5 -5.5t-31 -2.5q-79 0 -148 26.5t-117 79.5q-8 -53 -27 -109t-52 -120.5t-83 -139t-119 -165.5l-26 -34q-12 -15 -28 -15q-10 0 -22 7q-14 9 -17 19.5t9 28.5l16 24q50 75 81.5 126t49.5 84.5t24.5 53t6.5 30.5q0 20 -22 20q-7 0 -18.5 -2.5t-26 -5.5t-30.5 -5.5 t-31 -2.5q-69 0 -131 21t-109 61.5t-74.5 101t-27.5 140.5q0 72 26 133t71 106t105 70t128 25q78 0 147.5 -34t117.5 -99q16 52 46.5 95t71.5 73.5t91.5 47.5t105.5 17z" />
<glyph unicode="&#x275f;" horiz-adv-x="1010" d="M504 644q65 0 125.5 -24t107 -70t74 -112.5t27.5 -151.5q0 -65 -13 -130t-46 -138.5t-88.5 -161t-140.5 -198.5l-26 -34q-12 -15 -28 -15q-10 0 -22 7q-14 9 -17 19.5t9 28.5l16 24q50 75 81.5 126t49.5 84.5t24.5 53t6.5 30.5q0 20 -22 20q-7 0 -18.5 -2.5t-26 -5.5 t-30.5 -5.5t-31 -2.5q-69 0 -131 21t-109 61.5t-74.5 101t-27.5 140.5q0 72 26 133t71 106t105 70t128 25z" />
<glyph unicode="&#x2760;" horiz-adv-x="1590" d="M1084 678q65 0 125.5 -24t107 -70t74 -112.5t27.5 -151.5q0 -65 -13 -130t-46 -138.5t-88.5 -161t-140.5 -198.5l-26 -34q-12 -15 -28 -15q-10 0 -22 7q-14 9 -17 19.5t9 28.5l16 24q50 75 81.5 126t49.5 84.5t24.5 53t6.5 30.5q0 20 -22 20q-7 0 -18.5 -2.5t-26 -5.5 t-30.5 -5.5t-31 -2.5q-79 0 -148 26.5t-117 79.5q-8 -53 -27 -109t-52 -120.5t-83 -139t-119 -165.5l-26 -34q-12 -15 -28 -15q-10 0 -22 7q-14 9 -17 19.5t9 28.5l16 24q50 75 81.5 126t49.5 84.5t24.5 53t6.5 30.5q0 20 -22 20q-7 0 -18.5 -2.5t-26 -5.5t-30.5 -5.5 t-31 -2.5q-69 0 -131 21t-109 61.5t-74.5 101t-27.5 140.5q0 72 26 133t71 106t105 70t128 25q78 0 147.5 -34t117.5 -99q16 52 46.5 95t71.5 73.5t91.5 47.5t105.5 17z" />
<glyph unicode="&#x2761;" horiz-adv-x="1154" d="M940 1360q20 0 27 -7.5t7 -24.5v-52q0 -18 -8.5 -25t-25.5 -7h-104v-948q0 -74 -22 -131t-61 -95.5t-91 -58t-112 -19.5q-40 0 -85 8.5t-92 25t-94.5 41.5t-90.5 57l-8 6q-12 9 -16 15.5t-4 12.5q0 9 10 22l34 44q11 14 24 14q9 0 20 -8l16 -12q19 -15 44.5 -30.5 t54.5 -29.5t59.5 -26t59.5 -20v591q-70 9 -130 34.5t-104 65t-69 91.5t-25 114q0 84 34.5 149.5t98.5 110.5t155.5 68.5t205.5 23.5h292zM604 107q58 12 84 56t26 129v946h-66q-21 0 -32.5 -10.5t-11.5 -37.5v-1083z" />
<glyph unicode="&#x2762;" horiz-adv-x="1040" d="M318 186q0 42 16 79t43 64t64 43t79 16t79 -16t64 -43t43 -64t16 -79t-16 -79t-43 -64t-64 -43t-79 -16t-79 16t-64 43t-43 64t-16 79zM520 1360q63 0 116 -19.5t92 -57t60.5 -91t21.5 -120.5q0 -65 -19.5 -121.5t-49 -106.5t-63.5 -96t-63.5 -90.5t-49 -90.5t-19.5 -95 q0 -17 -6 -23.5t-20 -6.5t-20 6.5t-6 23.5q0 50 -19.5 95t-49 90t-63.5 91t-63.5 96t-49 106t-19.5 122q0 67 21.5 120.5t60.5 91t92 57t116 19.5z" />
<glyph unicode="&#x2763;" horiz-adv-x="1040" d="M316 186q0 42 16 79t43 64t64 43t79 16t79 -16t64 -43t43 -64t16 -79t-16 -79t-43 -64t-64 -43t-79 -16t-79 16t-64 43t-43 64t-16 79zM518 442q-14 0 -20 6.5t-6 23.5q0 58 -27 111t-67.5 104.5t-87.5 103t-87.5 107.5t-67.5 117.5t-27 132.5q0 43 15.5 81.5t42.5 67.5 t63 46t77 17q39 0 71 -11.5t56 -27.5t40.5 -33.5t24.5 -29.5q8 12 25 29.5t41 33.5t56 27.5t70 11.5q42 0 78.5 -17t63.5 -46t42.5 -67.5t15.5 -81.5q0 -71 -27 -132.5t-68 -117.5t-88 -108t-88 -103.5t-68 -104.5t-27 -110q0 -17 -6 -23.5t-20 -6.5z" />
<glyph unicode="&#x2764;" horiz-adv-x="1960" d="M978 -16q-110 91 -212 172t-190.5 158t-161.5 152.5t-125 154.5t-80.5 165t-28.5 184q0 81 29.5 152t82 124t126 83.5t162.5 30.5q53 0 107 -13.5t105 -43t99 -75.5t89 -110q39 64 85.5 110t97.5 75.5t104.5 43t106.5 13.5q90 0 164.5 -30.5t128.5 -83.5t83.5 -124 t29.5 -152q0 -98 -28.5 -183.5t-81 -165t-126 -154.5t-162.5 -152t-191.5 -158.5t-212.5 -172.5z" />
<glyph unicode="&#x2765;" horiz-adv-x="1312" d="M1172 682q-98 -119 -181.5 -224t-165.5 -183t-170 -123.5t-195 -45.5q-59 0 -110 21t-88.5 59t-59.5 91t-22 117q0 38 10 77t31.5 76t54.5 71.5t80 63.5q-93 57 -134.5 133t-41.5 151q0 65 22 119t59.5 93t88.5 60.5t110 21.5q107 0 194.5 -45.5t169.5 -124t165.5 -184 t182.5 -224.5z" />
<glyph unicode="&#x2766;" horiz-adv-x="1284" d="M812 1082q-51 0 -107.5 15.5t-113.5 33.5q32 -39 53.5 -102.5t24.5 -159.5q33 27 79 49t106 22q54 0 100.5 -22t80.5 -63.5t53.5 -101t19.5 -133.5q0 -64 -21.5 -132.5t-60.5 -133.5t-94 -123t-123 -102t-146.5 -69.5t-164.5 -25.5q-69 0 -141.5 20.5t-132.5 65.5l-12 9 q-19 14 -18 27t16 28l20 20q11 11 19.5 12t19.5 -7l13 -9q48 -34 101.5 -54t98.5 -20q42 0 65 17t23 49q0 35 -28.5 63.5t-71.5 56.5t-93 59.5t-93 72.5t-71.5 95.5t-28.5 128.5q0 47 17 89.5t47 74.5t70 51t86 19q60 0 103.5 -15.5t70.5 -36.5q-3 90 -22.5 153t-49 103.5 t-65.5 59t-71 18.5q-29 0 -54.5 -8.5t-44.5 -25.5t-30 -43t-11 -61v-6q0 -14 -5.5 -19t-20.5 -5h-40q-15 0 -22.5 3.5t-7.5 20.5v9q0 46 16.5 87.5t48.5 72.5t79 49t108 18q45 0 100 -16t112 -35t112 -35t100 -16q60 0 100 33.5t40 104.5v8q0 24 26 24h42q14 0 21 -4.5 t7 -19.5v-10q0 -47 -16 -88t-46 -72.5t-73.5 -49.5t-98.5 -18z" />
</font>
</defs>
</svg>
