<?xml version="1.0" standalone="no"?>
<!DOCTYPE svg PUBLIC "-//W3C//DTD SVG 1.1//EN" "http://www.w3.org/Graphics/SVG/1.1/DTD/svg11.dtd" >
<svg xmlns="http://www.w3.org/2000/svg">
<metadata>
This is a custom SVG webfont generated by Font Squirrel.
Copyright   : Created by RCA Workshop Read the Fucking Manual with FontForge  20 httpfontforgesfnet and Fonzie
</metadata>
<defs>
<font id="SansGuiltMBMedium" horiz-adv-x="868" >
<font-face units-per-em="2048" ascent="1638" descent="-410" />
<missing-glyph horiz-adv-x="385" />
<glyph unicode=" "  horiz-adv-x="385" />
<glyph unicode="&#x09;" horiz-adv-x="385" />
<glyph unicode="&#xa0;" horiz-adv-x="385" />
<glyph unicode="!" horiz-adv-x="468" d="M135 50q16 -44 64 -58q17 -4 33 -5q21 0 42 8q37 13 54 44q14 27 14 52q0 33 -25 65q-33 43 -79 42q-14 0 -29 -3q-49 -12 -70 -57q-11 -24 -11 -49q0 -19 7 -39zM142 990q-2 -37 -2 -78q0 -151 32 -361q36 -209 68 -209q3 0 6 2q29 25 60 265q25 191 25 314q0 32 -1 58 q-4 117 -36 172q-23 40 -56 40q-12 0 -25 -5q-60 -27 -71 -198z" />
<glyph unicode="&#x22;" horiz-adv-x="612" d="M80 1130q0 -111 18 -221l19 -110h51h49l21 125q18 133 18 221v94h-88h-88v-109zM358 1135q0 -106 21 -222l18 -114h49l50 2l20 117q18 113 19 219v102h-89h-88v-104z" />
<glyph unicode="#" horiz-adv-x="1015" d="M4 315h82h84q0 -8 -33 -163q-35 -150 -35 -166q0 -8 54 -9h53l35 170l37 168h174q174 0 174 -4q0 -10 -33 -164l-17 -77l-14 -64l-4 -20q0 -8 53 -9h54l30 152l37 168l4 18h138h135v56v53h-125q-125 4 -125 10q0 4 10 52l25 119q14 71 22 106l4 24h95h94v53v56h-82 q-82 4 -82 10q0 4 35 160q6 35 15 75.5t13 61t4 23.5q4 6 -6 6q-3 1 -14 1t-31 -1h-55l-35 -168q-37 -162 -37 -168q-12 -2 -89 -2t-167 3t-90 5q0 8 33 164l17 78l14 63l4 21q0 4 -51 5h-19q-33 0 -35 -3l-39 -168l-34 -166h-140h-137v-56v-53l127 -2h127l-31 -153 l-32 -154h-97l-94 -2v-53v-56zM301 430l6 21l14 61l15 74l31 149h174q174 0 174 -6l-31 -154l-31 -149h-176q-44 -1 -77 -1q-99 0 -99 5z" />
<glyph unicode="$" horiz-adv-x="937" d="M88 211l2 -109l45 -22q117 -66 264 -94q10 -2 11.5 -14.5t1.5 -82.5v-92h73h76v94l2 93l35 8q172 37 236 170q38 75 37 146q0 67 -33 130q-70 131 -250 193l-25 8l-2 168q0 168 2 168q31 0 110 -42t120 -81q18 -18 22 -18q2 45 2 100v98l-22 17q-31 23 -97.5 48 t-115.5 33q-16 2 -18.5 6.5t-2.5 26.5v31h-76h-73v-29v-30l-35 -9q-158 -33 -235 -142q-52 -75 -52 -155q0 -38 11 -76q36 -122 175 -188q63 -29 80 -33l54 -22v-182q2 -73 1 -117q0 -66 -3 -66q-33 0 -125 43q-57 25 -152 101l-41 33q-2 0 -2 -111zM268 867q20 65 97 96 q24 10 34 10q4 0 7 -2q6 -8 6 -140q0 -141 -4 -141q-10 0 -52.5 24.5t-56.5 39.5q-37 35 -37 78q0 17 6 35zM561 145v152q0 150 2 149q8 0 39 -20q55 -37 76 -65q19 -25 19 -62q0 -98 -117 -145z" />
<glyph unicode="%" horiz-adv-x="1167" d="M55 854q29 -94 105 -143q73 -47 149 -48q3 0 6 1q80 2 152 56t96 150q8 31 8 62q0 56 -26 109q-41 83 -123 125q-55 28 -113 29q-28 0 -57 -7q-113 -25 -172 -125q-37 -63 -38 -130q0 -39 13 -79zM125 -12h68h69l383 598q387 600 387 606q2 4 -4 6q-6 1 -21 1t-38 -1h-68 l-340 -532q-381 -594 -389 -605zM182 977q39 85 113 84q26 0 57 -10q84 -29 84 -121q0 -85 -78 -121q-29 -12 -55 -13q-48 0 -90 41q-43 41 -43 88q0 25 12 52zM604 190q20 -76 73.5 -127t119.5 -63q33 -6 65 -6l66 6q66 12 118 63.5t72 126.5q8 34 9 66q0 100 -83 182 q-80 80 -175 80q-34 0 -70 -10q-106 -29 -164 -123q-39 -64 -39 -132q0 -31 8 -63zM748 311q25 47 73 64q20 7 40 6l59 -14q73 -33 73 -112q0 -5 -1 -10q-5 -87 -87 -118q-26 -10 -49 -10q-53 0 -93 48q-34 40 -34 82q1 31 19 64z" />
<glyph unicode="&#x26;" horiz-adv-x="1081" d="M68 360q-19 -53 -20 -103q0 -83 54 -155q86 -115 244 -114q170 0 338 139l37 29l16 -21l14.5 -15t26 -30.5t25.5 -30.5l49 -57l111 -2l112 2q0 2 -119 139l-118 138l24 30q102 125 160 260l6 17h-86h-88l-12 -21q-39 -76 -97 -147l-16 -17l-67 78q-74 86 -80 92l-13 15 l43 32q125 102 159 211q12 38 12 75q0 69 -42 132q-43 68 -133 101q-60 22 -120 21l-60 -5q-195 -39 -231 -219q-4 -23 -5 -47q0 -117 109 -248q12 -14 13 -20.5t-3 -10.5t-20 -14q-80 -49 -142.5 -114t-80.5 -120zM260 190q-37 35 -37 77q0 84 152 194q37 27 44 30t13 -6 q12 -8 94 -108l86 -98l-24 -23q-90 -82 -181 -99q-23 -4 -44 -5q-62 0 -103 38zM377 848q-9 27 -9 50q0 52 44 86q35 28 75 28q33 0 70 -19q62 -34 62 -102q0 -6 -1 -12q-10 -88 -145 -172q-1 -1 -2 -1q-7 0 -25 21q-20 25 -41.5 60.5t-27.5 60.5z" />
<glyph unicode="'" horiz-adv-x="329" d="M78 1128q0 -176 33 -319q2 -10 51 -10q51 0 53 10q37 170 37 328v102h-86h-88v-111z" />
<glyph unicode="(" horiz-adv-x="561" d="M111 397q2 -387 278 -731l49 -61h51q47 2 47.5 6t-30.5 47q-100 152 -159.5 370t-51.5 414q6 211 56 376t157 325l12 18q8 12 10 17l11 16h-52h-51l-43 -57q-154 -205 -219 -375t-65 -365z" />
<glyph unicode=")" horiz-adv-x="559" d="M20 -393q0 -2 50 -2h51l53 73q139 184 199.5 334t72.5 346q1 19 2 41q0 80 -19 183q-24 129 -64 231q-66 162 -201 326l-45 55h-49q-49 0 -49.5 -2t16.5 -27q172 -242 216 -572q13 -101 13 -200q0 -226 -69 -442q-39 -123 -146 -291q-31 -49 -31 -53z" />
<glyph unicode="*" horiz-adv-x="720" d="M37 725q-8 -15 -8 -30q0 -16 10 -30q18 -28 53 -24q37 6 152 109q72 68 73 67q10 0 19.5 -9t7.5 -17q-4 -8 -22 -107q-19 -89 -19 -135q0 -14 1 -24q7 -44 50 -50q5 -1 10 -1q40 0 50 46q3 15 3 37q0 53 -18 145l-20 99l16 8q10 6 20.5 -1t63.5 -58q94 -94 133 -107 q13 -4 24 -4q33 0 50 33q8 15 8 29q0 26 -26 49q-18 16 -156 67q-66 25 -77 31t-9 20.5t15.5 21.5t97.5 36q92 33 113.5 44t31.5 34q8 17 8 33q0 15 -7 29q-15 30 -48 30q-27 0 -58.5 -23.5t-113.5 -103.5q-53 -49 -55 -47h-4q-2 2 -5.5 4t-7.5 2l-14 6l20 100 q20 106 20 155q0 26 -5 36q-16 32 -46 32q-12 0 -26 -6q-14 -2 -27 -22q-14 -27 -12 -52.5t21 -121.5q20 -100 20 -111.5t-12 -17.5q-10 -6 -21.5 1t-68.5 60q-88 84 -125 103q-14 7 -28 7q-20 0 -36 -18q-22 -24 -22 -45q0 -28 35 -53q14 -12 127 -55q82 -29 95 -36 t13 -21.5t-11 -20.5t-79 -29q-92 -33 -127 -51t-47 -43z" />
<glyph unicode="+" horiz-adv-x="1011" d="M96 537h170h168v-168v-170h74h76v170v168h166h168v75v74h-168h-166v166v168h-76h-74v-168v-166h-168h-170v-74v-75z" />
<glyph unicode="," horiz-adv-x="376" d="M65 112q0 -82 72 -108q12 -4 13.5 -11t-5.5 -42q-10 -55 -43 -94q-23 -35 -23 -54q0 -6 3 -10q16 0 62 28.5t71 53.5q61 61 71 153q2 17 1 32q0 70 -33 119q-31 46 -80 46q-15 0 -31 -4q-78 -19 -78 -109z" />
<glyph unicode="-" horiz-adv-x="561" d="M70 299h211h213v84v86h-213h-211v-86v-84z" />
<glyph unicode="." horiz-adv-x="382" d="M92 55q20 -66 94 -68.5t101 62.5q27 59 -21.5 108.5t-111.5 26.5q-39 -16 -56.5 -52t-5.5 -77z" />
<glyph unicode="/" horiz-adv-x="485" d="M4 -10q0 -6 63.5 -6t63.5 2l82 293l165 592q85 302 89 321q2 4 -6 6q-10 2 -55 2q-47 0 -56.5 -2t-11.5 -14q-10 -33 -172 -612.5t-162 -581.5z" />
<glyph unicode="0" horiz-adv-x="862" d="M53 584.5q0 -234.5 86 -404.5q55 -109 168 -162q65 -31 126 -30q45 0 87 16q139 51 216 207q75 152 75 373v12q0 279 -119 448q-105 150 -257 151q-20 0 -42 -3q-72 -10 -144.5 -68.5t-111.5 -136.5q-84 -168 -84 -402.5zM227 670q12 182 70 270q37 59 90 81q25 10 48 10 q27 0 52 -13q109 -55 140 -285q11 -80 10 -154q0 -85 -13 -165q-26 -150 -89 -215q-51 -51 -104 -51q-29 0 -58 15q-84 42 -119 175q-30 114 -30 246q0 42 3 86z" />
<glyph unicode="1" horiz-adv-x="876" d="M354 0h86h86v592v590h-86h-86v-590v-592z" />
<glyph unicode="2" horiz-adv-x="866" d="M59 8q0 -8 375 -8h373v84v84h-221h-221l49 57q238 285 293 477q19 65 18 127q0 120 -72 226q-53 78 -156 115q-67 25 -131 25q-34 0 -67 -7q-90 -18 -182 -80l-35 -23v-110q0 -109 4 -109q12 12 25 29q84 100 188 123q29 6 55 6q70 0 123 -43q74 -59 74 -178 q0 -78 -35 -154q-37 -80 -160 -254t-252 -327q-45 -54 -45 -60z" />
<glyph unicode="3" horiz-adv-x="864" d="M111 51l22 -12q101 -51 219 -52q9 0 18 1q128 4 218 65q90 59 127 174q20 64 20 125q0 50 -13 99q-30 109 -116 153q-20 10 -25.5 14.5t-2 8.5t17.5 12q23 14 53.5 46t38.5 50q29 57 29 130q0 31 -5 64q-17 112 -83 175q-51 51 -141 76q-63 17 -126 17q-26 0 -53 -3 q-76 -6 -139 -35l-31 -12v-82q-2 -33 -1 -52q0 -29 3.5 -29.5t36.5 13.5q93 39 168 40q62 0 113 -27q47 -27 70 -77q15 -33 16 -67q0 -18 -4 -37q-27 -125 -193 -137l-39 -4v-78v-80l60 -10q84 -12 116 -37q57 -43 68 -118q2 -15 2 -30q0 -58 -33 -108q-45 -66 -145 -68h-10 q-97 0 -211 58l-45 23v-95v-94z" />
<glyph unicode="4" horiz-adv-x="866" d="M20 389h248h248v-194v-195h84h86v195v194h66h65v74v74h-65h-66v329v328h-37h-39l-37 -43l-294 -365l-259 -319v-39v-39zM254 539l129 161l129 164l2 -162v-163q-2 -2 -35 -2t-96 2h-129z" />
<glyph unicode="5" d="M86 55l33 -14q118 -53 237 -53q48 0 97 9q168 30 243 148q64 100 64 215v21q-6 127 -86 227q-45 53 -135 90t-179 37h-26v148v145h184h187v76v78h-265h-264v-310q2 -305 10 -307q39 12 104 15h21q50 0 80 -9q143 -35 183 -148q12 -33 12 -65q0 -75 -68 -139 q-73 -68 -172 -68q-93 0 -211 60q-41 23 -45 22v-12q-2 -10 -3 -30.5t-1 -45.5v-90z" />
<glyph unicode="6" horiz-adv-x="866" d="M82 477q-4 -35 -4 -68q0 -103 38 -196q50 -123 144 -174q92 -51 190.5 -51t172 44t127 116.5t56.5 164.5v13q0 86 -40 178q-57 115 -172 158q-56 21 -116 21q-63 0 -130 -24q-45 -16 -47 -10q0 6 29 66q92 188 293 327q31 18 30.5 22.5t-50.5 66t-54 63.5q-6 0 -37 -23 q-387 -286 -430 -694zM252 412q2 39 9 47t50 30q64 34 125 34q38 0 76 -13q121 -47 121 -178q0 -117 -97 -166q-42 -21 -84 -21q-56 0 -112 37q-47 33 -72 96q-18 47 -18 98q0 18 2 36z" />
<glyph unicode="7" horiz-adv-x="866" d="M84 1014h254l254 -2l-213 -477l-105 -235l-84 -185l-26 -62q0 -4 71.5 -35.5t77.5 -29.5q4 2 270.5 591.5t266.5 598.5q0 4 -383 4h-383v-84v-84z" />
<glyph unicode="8" horiz-adv-x="862" d="M56 347q-1 -14 -1 -27q0 -129 99 -226q106 -106 279 -106t280 104q95 96 94 224q0 16 -1 32q-13 147 -134 238l-21 14l35 35q104 102 105 236q0 127 -97 223q-63 61 -159 87q-53 14 -104 14q-40 0 -79 -9q-150 -39 -223 -156q-49 -78 -49 -165q0 -43 12 -89 q18 -68 82 -131l41 -45l-27 -18q-121 -89 -132 -235zM250 250q-23 46 -23 88q0 61 47 113q59 65 146 65q30 0 63 -8q84 -20 125 -87q26 -43 27 -92q0 -27 -8 -55q-23 -72 -101 -104q-47 -20 -96 -20q-32 0 -64 9q-83 21 -116 91zM270 788q-19 41 -19 79q0 60 49 109 q55 57 129 56q32 0 67 -10q104 -33 119 -140q2 -15 3 -30q0 -86 -79 -137q-46 -30 -99 -30q-26 0 -53 7q-82 22 -117 96z" />
<glyph unicode="9" horiz-adv-x="862" d="M84 721q53 -139 182 -195q63 -27 130 -27q69 0 141 29q29 12 34 13q4 0 -8 -29t-31.5 -66.5l-33.5 -62.5q-86 -133 -242 -246q-37 -23 -37 -28q0 -4 50 -62.5t55 -58.5q14 0 89.5 62.5t123.5 111.5q160 178 223 379q39 121 38 226q0 124 -53 227q-98 191 -319 198 q-12 1 -23 0q-33 0 -59 -4q-162 -37 -239 -176q-45 -81 -44 -166q0 -62 23 -125zM236 835q0 8 -1 15q0 55 27 98q31 49 90 74q31 13 64 13q30 0 63 -11q137 -43 137 -223q-2 -53 -7 -67.5t-27 -28.5q-77 -42 -152 -43q-5 0 -10 1q-80 3 -131 56q-49 51 -53 116z" />
<glyph unicode=":" horiz-adv-x="380" d="M83 116q-4 -16 -4 -31q0 -41 32 -71q29 -27 72 -27q6 0 12 1q51 4 73 39q20 30 21 60q0 31 -22 61q-32 46 -82 47q-15 0 -31 -5q-56 -14 -71 -74zM154 594q23 -9 43 -9q33 0 62 21q41 30 41 78q0 8 -1 16q-6 55 -54 81q-25 13 -49 13q-23 0 -46 -12q-55 -30 -56 -93 q1 -72 60 -95z" />
<glyph unicode=";" horiz-adv-x="393" d="M92 70q16 -47 66 -66q13 -5 13 -27q0 -15 -6 -39q-15 -58 -50 -92q-12 -14 -12.5 -32.5t4 -18.5t42.5 19q129 63 154 198q5 28 6 53q0 61 -32 108q-34 52 -82 52q-13 0 -27 -4q-49 -12 -71 -58q-12 -26 -12 -53q0 -20 7 -40zM105 718q-4 -16 -4 -30q0 -33 21 -61 q30 -41 87 -41q41 0 70.5 29.5t29.5 72.5q0 53 -43 85q-27 20 -57 20q-18 0 -37 -7q-54 -18 -67 -68z" />
<glyph unicode="&#x3c;" horiz-adv-x="1015" d="M94 539l406 -172l199 -86l157 -68q53 -23 55 -23h2q5 0 6 10q1 11 1 66l-2 78l-314 131l-155 65l-123 51q-41 17 -43 17t1 2t11 6.5t21.5 9.5t31.5 13l43 18l56 24l68 29l83 33l322 134v77l-2 78q-4 0 -412 -172l-408 -174l-2 -74z" />
<glyph unicode="=" horiz-adv-x="1011" d="M96 352h410h412v72v72h-412h-410v-72v-72zM96 727h410h412v72v71h-412h-410v-71v-72z" />
<glyph unicode="&#x3e;" horiz-adv-x="1015" d="M94 1032l2 -80l2 -78l316 -131q297 -119 321 -131q2 0 -39 -17l-119 -50l-159 -66l-322 -133v-78q2 -76 6 -75q6 2 414 174l404 172v73v72l-21 10l-400 169l-386 163z" />
<glyph unicode="?" horiz-adv-x="575" d="M113 1010l6 2q4 2 12 5t16 5q34 13 64 13q23 0 43 -8q47 -17 63 -69q5 -14 5 -31q0 -78 -95 -231q-59 -94 -77 -148q-13 -38 -13 -77q0 -17 2 -35q10 -74 70 -114q27 -18 32 -17.5t5 27.5q0 70 92 221l55 90q107 172 107 301q0 62 -25 115q-59 119 -229 137l-25 4 l-53 -88l-48 -86q-9 -16 -7 -16zM165 101q-1 -10 -2 -19q0 -52 44 -80q24 -16 54 -16q9 0 19 2q42 6 64 32q28 33 28 68q0 30 -21 60q-31 48 -78 48q-19 0 -40 -8q-59 -20 -68 -87z" />
<glyph unicode="@" horiz-adv-x="1736" d="M111 585q-20 -98 -20 -189q0 -186 81 -349q76 -150 186.5 -234.5t296.5 -131.5q157 -40 304 -40q110 0 216 22q245 52 406 214q103 103 103 131q0 9 -47 8q-22 0 -54 -2q-51 -2 -55 -10q-23 -33 -77 -77t-112 -74q-158 -84 -364 -89h-23q-194 0 -363 67q-179 71 -259 196 q-109 166 -112 373v13q0 201 95 373q98 178 269 265q169 85 342 84h30q188 -8 346 -115q158 -104 204 -297q16 -65 16 -128q0 -122 -60 -235q-68 -127 -182 -194q-51 -29 -84 -29q-31 0 -45 27q-6 16 -6 28q0 23 56 296q58 284 85 391q2 8 -7 9t-67 1h-77l-13 -58 q-12 -61 -14 -63q0 -6 -16 16l-5 4q-72 98 -179 117q-29 5 -57 5q-77 0 -150 -37q-99 -50 -178 -164.5t-101 -262.5q-5 -34 -5 -67q0 -83 29 -163q41 -112 121 -165q78 -51 156 -51l229 111l27 26l4 -22q10 -78 70 -101q39 -15 84 -15q52 0 113 19q116 37 202 121 q188 186 198 442v25q0 240 -167 432q-102 119 -299 181q-134 42 -263 41q-60 0 -118 -9q-266 -43 -424 -184q-207 -186 -266 -482zM571 373q0 129 60.5 242.5t150.5 154.5q42 18 85 18q20 0 40 -4q113 -27 141 -164q8 -38 7 -77q0 -104 -54 -217q-39 -84 -97 -135.5 t-115 -60.5q-17 -3 -34 -3q-38 0 -72 14q-50 20 -81 82t-31 150z" />
<glyph unicode="A" horiz-adv-x="1157" d="M0 2q41 -2 88 -2h90l74 174l74 174h247h250l76 -172l78 -172l90 -2l90 -2l-53 119l-264 592l-209 475h-64q-47 0 -56 -2t-13 -13l-252 -591q-246 -574 -246 -578zM393 504l86 207l86 209l92 -207l91 -209q-2 -2 -179 -2z" />
<glyph unicode="B" horiz-adv-x="976" d="M131 0l250 2q254 2 289 10q258 72 270 293q1 10 1 20q0 96 -56 170q-61 81 -180 117l-37 13l30 18q139 77 140 238q0 154 -133 241q-53 35 -119 45.5t-254 12.5l-201 2v-590v-592zM307 154v184v186h74q86 0 139 -6q133 -8 191 -63q51 -49 51 -111q0 -29 -11 -61 q-36 -100 -143 -121q-49 -6 -166 -6zM307 676v176v178l94 -4q86 0 123 -8q84 -23 118 -91q17 -34 17 -70q0 -37 -18 -75q-27 -57 -80 -78.5t-168 -25.5z" />
<glyph unicode="C" horiz-adv-x="1222" d="M99 445q50 -214 235 -349q135 -100 350 -108q19 -1 37 -1q195 0 381 79l43 18v96q0 96 -2 96q-16 -10 -35 -20q-190 -108 -373 -108q-49 0 -98 8q-229 37 -324 225q-50 102 -49 205q0 67 21 135q53 172 209 250q113 57 241 56q168 0 361 -97q33 -14 37 -14.5t4 92.5v92 l-56 20q-205 73 -369 74q-37 0 -73 -4q-154 -16 -287 -105.5t-198 -216.5q-71 -141 -71 -284q0 -70 16 -139z" />
<glyph unicode="D" horiz-adv-x="1296" d="M131 0h246q272 2 358 14.5t183 65.5q186 106 260 299q41 106 40 213q0 88 -27 177q-60 198 -241 316q-84 55 -195.5 74t-371.5 21l-252 2v-590v-592zM303 154v436v438h109q100 0 186 -4q94 -4 153.5 -24.5t125.5 -67.5q106 -78 142 -212q16 -61 16 -122q0 -73 -23 -147 q-43 -135 -154 -213q-63 -47 -140 -62.5t-253 -19.5z" />
<glyph unicode="E" horiz-adv-x="870" d="M131 0h344h346v78v76h-260h-258v180v180h240h241v80v78h-241h-240v178v178h250h250v76v78h-336h-336v-590v-592z" />
<glyph unicode="F" horiz-adv-x="813" d="M131 0h86h86v274v273h229h230v78v80h-230h-229v161v162h229h230v76v78h-316h-315v-590v-592z" />
<glyph unicode="G" horiz-adv-x="1282" d="M90 623q-2 -24 -2 -49q0 -118 57 -243q70 -151 185 -229q175 -116 399 -116q178 0 387 73l51 19v252v252h-200h-201v-76v-78h113h112v-121v-121l-49 -14q-110 -31 -207 -31q-166 0 -295 90q-111 78 -152 224q-19 67 -20 132q0 77 27 152q90 250 367 295q37 7 77 7 q158 0 365 -103l37 -18q2 0 2 88l-2 90l-70 26q-188 70 -346 70q-41 0 -80 -4q-98 -10 -203.5 -58.5t-173.5 -113.5q-151 -141 -178 -395z" />
<glyph unicode="H" horiz-adv-x="1259" d="M129 0h86h86v256v254h330h327v-254v-256h86h86v592v590h-86h-86v-254v-256h-327h-330v256v254h-86h-86v-590v-592z" />
<glyph unicode="I" horiz-adv-x="438" d="M133 0h86h86v592v590h-86h-86v-590v-592z" />
<glyph unicode="J" horiz-adv-x="436" d="M-106 -237.5q0 -4.5 14 -79.5l14 -78l31 -2q17 -2 34 -2q94 0 173 49q92 57 119 153q16 57 19 152.5t5 597.5v629h-88h-86l-2 -633q-2 -504 -5 -588t-20 -119q-39 -76 -184 -75q-24 0 -24 -4.5z" />
<glyph unicode="K" horiz-adv-x="1142" d="M133 0h88h88v287l2 286l295 -286l297 -287h121h121l-23 23l-282 272q-246 242 -297 289l-37 37l252 276l256 279q2 6 -107 6h-106l-246 -267l-244 -266l-2 266v267h-88h-88v-590v-592z" />
<glyph unicode="L" horiz-adv-x="849" d="M131 0h350h353v80v78h-265h-262v512v512h-88h-88v-590v-592z" />
<glyph unicode="M" horiz-adv-x="1353" d="M127 0h86h86v455l2 452l180 -223q135 -168 160 -195.5t39 -27.5q12 0 36.5 27.5t157.5 195.5l179 223l2 -452v-455h88h88v592v590h-82h-82l-195 -242l-170.5 -212t-29.5 -19q-2 2 -195 241l-186 230h-82l-82 2v-590v-592z" />
<glyph unicode="N" horiz-adv-x="1351" d="M135 0h82h80l2 449v448l389 -448l389 -449h76h78v592v590h-84h-84v-453l-2 -453l-393 453l-394 453h-69h-70v-590v-592z" />
<glyph unicode="O" horiz-adv-x="1419" d="M77 629l-2 -43q0 -156 75 -291q84 -154 237 -232q147 -74 314 -74q54 0 109 8q228 32 372 177q158 162 161 397q0 6 1 13q0 228 -150 407q-82 100 -239 159q-126 47 -245 47q-29 0 -59 -3q-139 -12 -263 -76.5t-193 -161.5q-107 -147 -118 -327zM258 610q8 137 90 252 q72 98 211 144q79 25 154 25q58 0 114 -15q283 -74 336 -369q5 -28 5 -56q0 -73 -30 -154q-42 -112 -122 -181q-128 -108 -296 -108q-39 0 -80 6q-218 31 -318 200q-64 107 -65 228q0 14 1 28z" />
<glyph unicode="P" horiz-adv-x="884" d="M121 0h88h88v256v254h88q168 0 255 24.5t148 90.5q81 86 81 208q0 30 -5 62q-25 164 -149 233q-63 35 -128 44.5t-257 9.5h-209v-590v-592zM297 662v184v182h102q102 0 133 -6q102 -23 142 -107q14 -29 14 -72.5t-16 -76.5q-29 -59 -79 -78.5t-181 -23.5z" />
<glyph unicode="Q" horiz-adv-x="1417" d="M76 591q0 -182 102 -341q53 -84 151.5 -150.5t207.5 -93.5q33 -8 94 -49q272 -180 485 -193l37 -2l82 80q84 82 82 84q-10 0 -37 -6q-46 -12 -83 -12q-8 0 -16 1q-44 3 -134 30q-160 47 -177 63q6 2 35 10q88 23 180.5 87.5t143.5 136.5q102 145 112 320l2 39 q0 153 -73 288q-59 106 -138 170.5t-198 105.5q-51 16 -125 29q-63 11 -93 10h-9.5t-53.5 -4q-141 -10 -271 -80t-196 -168q-110 -165 -110 -355zM260 524q-6 32 -6 65q0 75 30 153q42 114 124 184q76 63 189 91q63 15 121 15q48 0 93 -10q164 -39 259 -155.5t95 -278.5 q0 -113 -54 -209t-142 -152.5t-198 -75.5q-34 -6 -68 -7q-76 0 -154 30q-244 88 -289 350z" />
<glyph unicode="R" horiz-adv-x="1044" d="M135 0h86h86v256v254h45q98 0 169 -58.5t173 -226.5l103 -162l43 -61l102 -2l102 2q0 4 -36 55q-45 59 -150 228q-125 197 -209 260q-10 8 -13 9t-2 5t3 6t14 8q113 53 153 169q19 55 19 110q0 60 -23 121q-44 115 -157 164q-66 29 -129 37t-215 8h-164v-590v-592z M307 666v184v182h60q68 0 106 -6q80 -10 121 -53q49 -47 49 -123t-49 -123q-33 -35 -69 -45t-130 -12z" />
<glyph unicode="S" horiz-adv-x="792" d="M72 897q-8 -104 52 -183t222 -175q147 -88 198.5 -162t16.5 -146q-53 -102 -185 -89.5t-257 130.5l-43 41v-110v-111l33 -20q176 -111 359 -78t245 184q111 279 -240 486q-139 84 -178 120q-98 90 -49 174q43 76 160 80q74 0 147 -32q55 -23 115 -70q20 -16 22 -16t2 98 l-2 98l-22 12q-70 41 -168.5 57.5t-169.5 0.5q-242 -58 -258 -289z" />
<glyph unicode="T" horiz-adv-x="1050" d="M31 1028h202h203v-514v-514h86h88v514v514h205h207v76v78h-496h-495v-78v-76z" />
<glyph unicode="U" horiz-adv-x="1228" d="M106 1182l3 -391q2 -342 7 -414t34 -139q51 -117 176 -183.5t295 -66.5q180 0 310 82t171 221q14 49 17 118.5t5 372.5l2 400h-86h-86l-2 -381q-2 -344 -10 -419t-49 -128q-92 -111 -268 -115h-13q-167 0 -262 103q-47 53 -57 137t-10 440v363h-88h-89z" />
<glyph unicode="V" horiz-adv-x="1042" d="M0 1174q4 -6 254 -594l252 -586l20 -2q18 0 23 6l31 72l98 232l119 286q248 582 247 590q0 4 -86 4h-84l-169 -400l-85 -197l-69 -159q-23 -53 -23 -55q-2 -4 -8 8q-23 39 -172 391l-176 412h-88q-61 0 -73.5 -1t-10.5 -7z" />
<glyph unicode="W" horiz-adv-x="1685" d="M0 1176l236 -590l235 -588h21h20l188 467l93 228l76 189q24 58 26 60l10 -14q18 -39 185 -453l192 -477h21h18l182 451l183 450v139v140h-29h-29l-67 -170l-160 -404l-47 -116l-35 -86q-12 -30 -12 -27q-2 0 -164 401l-162 402h-82h-82l-160 -400q-152 -385 -161 -403 l-21 49q-23 49 -59 140l-84 208l-162 406h-86z" />
<glyph unicode="X" horiz-adv-x="1515" d="M4 1040l4 -127q104 258 105 261q0 4 -56 4h-53v-138zM293 2q47 -2 104 -2h107l201 242l200 241l31 -37l197 -239q170 -203 172 -205h106l100 2l-247 299q-248 301 -248 305q-4 4 229 285l232 285q0 4 -103 4h-104l-180 -221q-170 -209 -185 -224l-184 221l-182 224h-107 h-36q-17 0 -29.5 -1t-20.5 -1h-12l-4 -2q0 -4 227 -277q227 -276 231 -280q8 -10 -243 -314q-252 -301 -252 -305z" />
<glyph unicode="Y" horiz-adv-x="1044" d="M0 1180q0 -6 219 -281l217 -278v-310v-311h88h88v311v312l217 276q215 274 215 278t-37 4q-25 0 -67 -1h-102l-158 -201q-154 -199 -158 -199q-2 0 -157 201l-156 201h-105z" />
<glyph unicode="Z" horiz-adv-x="1120" d="M20 2q242 -2 535 -2h535v78v76l-375 2h-375l371 508q367 504 374 512l-141 4q-119 2 -366 2h-512v-78v-76l352 -2h352l-375 -510l-183 -252l-144 -198z" />
<glyph unicode="[" horiz-adv-x="579" d="M150 -383h202h203v74v71h-117h-116v637v637h116h117v74v72h-203h-202v-783v-782z" />
<glyph unicode="\" horiz-adv-x="487" d="M20 1192q0 -8 168 -608l168 -598l66 -2q61 0 61 4q0 2 -20 75l-68 241l-82 292l-168 604h-63q-62 0 -62 -8z" />
<glyph unicode="]" horiz-adv-x="581" d="M27 -238v-71v-74h202h203v782v783h-203h-202v-72v-74h116h117v-637v-637h-117h-116z" />
<glyph unicode="^" horiz-adv-x="811" d="M45 508q-2 -4 9.5 -5t68.5 -1h82l98 248l100 247q2 0 105 -247l102 -248h80q55 0 66.5 1t9.5 7q-4 8 -150 340l-147 332h-63h-64l-147 -332l-73 -165l-57 -131q-20 -44 -20 -46z" />
<glyph unicode="_" horiz-adv-x="956" d="M-25 -229v-56v-57h504h506v57v56h-506h-504z" />
<glyph unicode="`" horiz-adv-x="577" d="M104 1196q0 -6 97 -129l94 -125h51q47 0 47 4q0 2 -2 6q-8 27 -57 127l-53 119h-91z" />
<glyph unicode="a" horiz-adv-x="737" d="M47 172q0 -127 112 -170q40 -15 82 -15q79 0 169 52l28.5 16t7.5 -6q25 -53 93 -60q10 -1 19 -1q59 0 122 37l31 16v49q0 51 -2 51l-29 -16q-37 -24 -57 -24q-5 0 -9 1q-10 4 -13 46t-5 219q0 197 -4 236.5t-31 78.5q-39 59 -125 90q-59 21 -120 21q-29 0 -58 -5 q-94 -12 -172 -73l-27 -23l-2 -90v-88l23 18q63 55 104 76q68 36 123 36q29 0 54 -10q73 -30 81 -130l4 -33l-75 -27q-168 -57 -199 -77q-125 -72 -125 -195zM212 244q22 45 85 75q25 14 81 37t64 23q2 -49 2 -111v-112l-18 -15q-59 -43 -117 -43h-5q-60 2 -85 49 q-16 29 -16 57q0 21 9 40z" />
<glyph unicode="b" horiz-adv-x="864" d="M102 41l17 -6q70 -29 182 -42q54 -6 98 -7q47 0 82 8q158 33 232 125q88 102 92 264v16q0 152 -76 263q-70 102 -197 125q-33 6 -64 7q-92 0 -177 -51l-31 -16v227v228h-80h-78v-572v-569zM260 156v209l2 210l31 21q71 49 145 49q21 0 43 -4q106 -25 149 -146 q17 -50 17 -101q0 -71 -35 -140q-59 -119 -209 -119q-49 0 -108 12z" />
<glyph unicode="c" horiz-adv-x="757" d="M68 350q12 -184 129 -278q82 -66 207 -80q34 -4 68 -4q92 0 185 28l35 13v77q-4 76 -8 76q-110 -47 -201 -47q-63 0 -116 23q-131 55 -142 217v16q0 67 31 129q35 70 94 99q50 24 107 23q85 0 184 -54l31 -15q2 0 2 84l-2 84l-37 15q-90 38 -180 38q-34 0 -68 -6 q-66 -8 -131.5 -43.5t-99.5 -80.5q-89 -115 -90 -274z" />
<glyph unicode="d" horiz-adv-x="882" d="M77 408v-11q0 -149 81 -264q57 -84 186 -119q35 -10 238 -12l202 -2v590v592h-79h-78v-209q-2 -205 -11 -205q-2 0 -18 4t-29 8q-52 14 -104 14q-58 0 -118 -17q-114 -32 -179 -109q-88 -104 -91 -260zM245 300q-10 42 -11 83q0 61 23 121q38 100 124 133q53 20 102 20 q26 0 52 -6q35 -8 63 -18l29 -10v-244v-244h-92q-141 0 -183 21q-81 41 -107 144z" />
<glyph unicode="e" horiz-adv-x="829" d="M86 268q41 -156 166 -233q61 -39 174 -46l44 -2q86 0 157 23q29 10 78 35t51 31q2 2 2 80l-2 75l-27 -18q-63 -43 -157 -65q-56 -13 -99 -12q-29 0 -53 5q-158 39 -191 219l-2 15h273h274l-4 49q-10 166 -96 263t-230 106q-47 0 -79 -7q-88 -16 -156 -70t-100 -134 q-39 -96 -39 -191q0 -62 16 -123zM231 469l5 20q23 94 102 140q46 26 95 26q36 0 73 -14q78 -29 100 -125q6 -22 7 -31q0 -6 -3 -8q-10 -8 -186 -8h-193z" />
<glyph unicode="f" horiz-adv-x="434" d="M14 637h56h53v-318v-319h80h78v319v318h69h70v72v71h-70h-69l2 54q8 100 24 135q16 39 66 58q30 12 62 12q20 0 40 -5q6 0 13.5 -1t11.5 -2t8 -3h4q4 0 4 76v76l-24 6q-33 8 -84.5 8t-71.5 -8q-102 -33 -151.5 -116t-59.5 -234l-2 -56h-53h-56v-71v-72z" />
<glyph unicode="g" horiz-adv-x="737" d="M6 -103q-8 -28 -8 -56q0 -77 65 -142q94 -94 299 -95h5q201 0 294 93q64 65 64 149q0 11 -1 22q-9 97 -93 155q-41 25 -189 59q-94 23 -127.5 37t-44.5 33q-14 29 10.5 46t100.5 31q88 18 130 38t77 59q41 45 55 105q7 30 7 59t-7 57q-6 31 -43 80l-22 26h75h74v64v63 h-168q-164 0 -205 -4q-188 -18 -254 -143q-33 -62 -32 -124q0 -35 10 -69q29 -96 127 -159l26 -17l-26 -10q-74 -27 -86 -78q-2 -10 -3 -19q0 -41 44 -81l26 -25l-26 -8q-123 -36 -154 -146zM160 -111q25 43 94 64q21 7 67 6h24q65 -2 99 -12q78 -20 110 -62q18 -23 18 -46 q0 -18 -11 -37q-25 -42 -98 -60q-33 -8 -100.5 -8t-98.5 8q-72 18 -100 61q-15 23 -16 47q1 19 12 39zM211 502q2 78 70 116q37 21 75 22q32 0 66 -15q84 -36 84 -123q0 -81 -76 -119q-37 -18 -73 -18q-38 0 -74 20q-72 39 -72 117z" />
<glyph unicode="h" d="M106 0h78h80v276v279l39 35q61 59 117 72q111 23 160 -70q18 -37 22 -86t4 -254v-252h80h78v250q0 236 -7 306.5t-36 117.5q-68 111 -198 119t-236 -91l-23 -22v250v252h-80h-78v-590v-592z" />
<glyph unicode="i" horiz-adv-x="385" d="M101 1024q-1 -7 -1 -14q0 -45 41 -74q24 -17 49 -17q24 0 51 16q45 27 45 74q0 7 -1 15q-6 43 -46 68q-24 15 -48 14q-16 0 -31 -6q-52 -21 -59 -76zM111 0h82h79v391v389h-79h-82v-389v-391z" />
<glyph unicode="j" horiz-adv-x="376" d="M-8 -279q0 -4 23 -30q26 -29 54.5 -57.5t32.5 -28.5q16 0 57.5 43t59.5 80q29 59 33 117.5t4 457.5l2 477h-80h-78l-2 -467q0 -350 -2 -411.5t-10 -83.5q-3 -6 -48.5 -49t-45.5 -48zM86 1025q-1 -8 -1 -16q0 -43 38 -71q27 -20 55 -20l51 18q41 28 41 72q0 13 -4 28 q-10 37 -48 58q-22 12 -43 12q-15 0 -30 -6q-51 -21 -59 -75z" />
<glyph unicode="k" horiz-adv-x="831" d="M109 0h79h78l2 199v196l195 -196l194 -199h107h104l-196 199q-197 193 -197 198q0 4 164 191l164 190q0 2 -94 2h-95l-172 -190l-172 -191l-2 392l-2 391h-78h-79v-590v-592z" />
<glyph unicode="l" horiz-adv-x="387" d="M115 0h80h77v592v590h-77h-80v-590v-592z" />
<glyph unicode="m" horiz-adv-x="1335" d="M102 0h80h78v283v280l33 31q72 68 144 68q38 0 75 -19q37 -18 51.5 -48t18.5 -96.5t6 -244.5l2 -254h78h80v283v280l20 21q78 72 156 72l24 -2q90 -13 117 -115q8 -35 10 -285l2 -254h78h80l-2 266q-2 209 -6 257t-23 106q-45 125 -172 157q-31 8 -61 9q-115 0 -232 -115 q-25 -23 -26 -21l-4 5q-2 4 -5.5 9t-7.5 9q-41 57 -114 89q-53 23 -100 23q-18 0 -36 -3q-76 -16 -151 -80l-33 -25l-2 47v47h-80h-78v-389v-391z" />
<glyph unicode="n" d="M106 0h80h82v276v277l25 27q63 70 152 77q10 1 21 1q73 0 107 -54q23 -35 27 -85t6 -261v-258h80h78v248q0 293 -16 356q-25 98 -113 152q-62 37 -131 37q-29 0 -60 -7q-86 -18 -155 -84l-21 -18v49v47h-82h-80v-389v-391z" />
<glyph unicode="o" horiz-adv-x="950" d="M92 236q66 -174 253 -230q67 -20 132 -20q119 0 234 65q145 84 174 259q6 37 6 72q0 134 -86 249q-57 78 -168 120q-80 30 -158 30q-31 0 -61 -5q-201 -31 -298 -192q-57 -94 -57 -197q0 -73 29 -151zM344 602q59 35 127 35q28 0 57 -6q125 -25 179 -136q26 -55 26 -111 q0 -58 -28 -116q-47 -96 -159 -125q-36 -9 -71 -9q-72 0 -139 40q-112 68 -112 208q0 151 120 220z" />
<glyph unicode="p" d="M98 193v-588h82h82v205q0 205 2 204l43 -12q58 -16 115 -16q77 0 150 29q128 50 186 163q52 102 52 209q0 53 -13 107q-39 162 -170 227q-63 33 -134 44t-227 13l-168 2v-587zM262 395v238l88 -2q88 -4 123 -10q176 -39 176 -234q0 -145 -101 -219q-62 -45 -138 -45 q-49 0 -103 18l-43 15z" />
<glyph unicode="q" d="M210 62q102 -77 235 -76q57 0 120 14q41 10 45 10q2 -92 2 -203v-202h78h80v588v587h-154q-147 0 -188 -4q-172 -16 -270 -124q-96 -105 -97 -270q0 -209 149 -320zM223 341q-4 25 -3 48q0 108 77 182q39 37 82 48.5t153 11.5h80v-240v-239l-47 -17q-48 -15 -93 -15 q-59 0 -114 25q-115 56 -135 196z" />
<glyph unicode="r" horiz-adv-x="688" d="M121 0h78h80v213q0 184 4 228t26 89q43 90 114 106q14 3 28 3q59 0 127 -51q31 -18 32 -17q4 4 43 69q37 61 37 66q0 2 -26 21q-80 67 -152 67q-21 0 -41 -6q-78 -20 -164 -137l-26 -39l-2 84l-3 84h-77h-78v-389v-391z" />
<glyph unicode="s" horiz-adv-x="669" d="M72 141q0 -86 2 -86q6 -6 59 -27.5t78 -27.5q39 -10 114.5 -10t108.5 10q106 37 144 109q23 46 23 90q0 141 -230 272q-84 47 -110 76q-18 20 -18 42q0 9 3 17q16 48 83 48h3q70 -1 172 -52l57 -29v80v78l-20 10q-59 29 -141 43q-47 8 -84 9q-26 0 -48 -5 q-113 -20 -163 -99q-29 -45 -28 -97q0 -38 15 -78q20 -47 64.5 -86t142.5 -98q100 -59 125 -91q13 -17 13 -34q0 -16 -11 -33q-35 -50 -100 -50q-85 0 -224 85l-28 18z" />
<glyph unicode="t" horiz-adv-x="577" d="M0 645q0 -8 68 -8h67l2 -231q2 -209 10.5 -259.5t47.5 -89.5q59 -57 155 -67t195 30l33 13v73q0 74 -5 74q-12 -4 -26 -12q-190 -96 -242 31q-10 25 -12 231v207h123h125v72v71h-123h-125v80q0 78 -4 78t-146 -141q-143 -142 -143 -152z" />
<glyph unicode="u" horiz-adv-x="872" d="M106 563q0 -287 13.5 -368.5t68.5 -135.5q73 -73 180 -72h3q109 1 202 76l33 27v-45v-45h80h78v391v389h-78h-80v-278v-281l-28 -28q-70 -72 -162 -75h-8q-86 0 -115 64q-16 41 -20.5 91.5t-6.5 252.5l-2 254h-80h-78v-217z" />
<glyph unicode="v" horiz-adv-x="757" d="M4 776q0 -2 176 -395l174 -393h29h31l170 391l170 397q0 4 -86 4h-84l-99 -237l-100 -236l-102 236l-105 235h-86q-35 2 -56 2q-32 0 -32 -4z" />
<glyph unicode="w" horiz-adv-x="1243" d="M0 776l172 -395l172 -393h29h26l105 250l112 268q4 10 17 -14q14 -29 102 -236l115 -266l27 -2h26l170 391q170 387 170 395q0 6 -82 6h-84l-98 -229q-98 -229 -100 -231.5t-16 28.5l-36 84l-47 115l-98 231l-57 2h-60l-96 -229q-96 -229 -100 -229l-101 227l-100 229 h-84q-34 2 -54 2q-30 0 -30 -4z" />
<glyph unicode="x" d="M0 776l162 -192l83 -99l48 -57q18 -23 22 -30t2 -9q-8 -12 -87 -107l-152 -185q-74 -89 -74 -91q-4 -4 25 -4q11 -1 29 -1t42 1h101l110 133q106 135 112.5 135t123.5 -135l117 -135h104h102l-172 197q-170 197 -166 204l158 189q152 180 152 186q0 4 -99 4h-98 l-110 -133l-111 -133l-113 133l-114 133h-99q-98 0 -98 -4z" />
<glyph unicode="y" horiz-adv-x="755" d="M0 776q0 -6 129 -264q129 -264 150 -303l18 -43l-127 -272q-131 -276 -131 -281q-2 -6 6 -6q10 -2 80 -2l88 2l268 573l132 286l107 225q36 75 36 77q4 10 -8 10q-12 2 -76 2h-88l-99 -215q-100 -215 -102 -215q0 2 -104 215l-101 213h-90q-35 2 -56 2q-32 0 -32 -4z" />
<glyph unicode="z" horiz-adv-x="724" d="M20 0h342h343v74v71h-203q-203 0 -203 2l201 312q203 311 202 315q2 4 -53 5t-278 1h-334v-73v-76h194l193 -2l-188 -293l-203 -313z" />
<glyph unicode="{" horiz-adv-x="581" d="M49 449q2 -53 4 -62.5t15 -11.5q51 -2 88 -34t53 -83q16 -61 16 -199q0 -254 49.5 -333.5t206.5 -87.5l64 -3v70v70l-45 2q-84 4 -105.5 43t-21.5 194q0 195 -31 283t-115 135l-24 17q0 2 28 18q82 47 112 134t30 284q0 154 21.5 192.5t105.5 44.5l45 2v70v68h-29 q-8 0 -26.5 -1t-26.5 -1q-82 -4 -127 -30t-76 -85q-35 -76 -35 -316q0 -164 -32.5 -230.5t-120.5 -76.5l-23 -4v-69z" />
<glyph unicode="|" horiz-adv-x="456" d="M162 391v-790h67h68v790v791h-68h-67v-791z" />
<glyph unicode="}" horiz-adv-x="579" d="M41 1124l41 -2q86 -4 105.5 -45t23.5 -223q4 -195 29.5 -267.5t107.5 -121.5l31 -16l-27 -17q-84 -53 -110.5 -124.5t-30.5 -270.5q-4 -164 -16.5 -203t-61.5 -51q-33 -8 -59 -8h-33v-70v-70l57 3q94 4 137.5 23.5t73.5 70.5q27 45 34 93t11 214q4 154 14.5 203t41.5 84 q33 41 94 47l24 4l2 72v69l-20 4q-131 18 -145 164q-4 57 -9 193q-6 193 -26 243q-31 76 -78 104.5t-152 33.5l-59 4v-70v-70z" />
<glyph unicode="~" horiz-adv-x="1013" d="M74 539q0 -88 2 -88t33 26q94 80 164 84h9q71 0 220 -59q119 -48 209 -48q10 0 20 1q96 6 189 75l22 19v90q0 92 -4 92q-10 -8 -18 -16q-61 -63 -154 -90q-19 -5 -41 -5q-64 0 -156 39q-154 63 -255 67h-10q-95 0 -175 -54q-43 -29 -49 -44t-6 -89z" />
<glyph unicode="&#xa2;" horiz-adv-x="1165" d="M421 449q-5 -39 -5 -76q0 -130 65 -230q14 -23 47 -57.5t52 -44.5q14 -8 14 -12l-29 -78l-57 -162q-31 -86 -41 -111q-4 -6 8 -8h33h45l57 162q45 123 54.5 143.5t19.5 16.5q52 -8 104 -8q105 0 211 32l39 13l2 77v78l-30 -14q-86 -39 -169 -39q-42 0 -83 10 q-33 8 -33 12.5t86 239.5q84 233 94 234q33 -4 86 -37l29 -19q2 0 2 84v84l-29 13q-29 14 -35 14q-10 0 3 37l40 119q53 145 54 147q-18 2 -43 2h-41l-39 -104q-43 -119 -49 -142l-13 -34h-65q-147 -4 -250 -82q-110 -82 -134 -260zM581 435q22 134 119 181q20 10 48 18.5 t47 9.5h6q12 0 14 -3q0 -2 -79 -221t-81 -223q-2 0 -20 18q-59 67 -59 163q0 27 5 57z" />
<glyph unicode="&#xa3;" horiz-adv-x="1712" d="M469 -14q10 0 45 6q111 18 217 18q86 0 170 -12q76 -12 141 -12q59 0 109 10q59 10 64.5 18.5t5.5 81.5v84q-6 0 -23 -10q-47 -20 -123 -25q-17 -1 -33 -1q-58 0 -114 12q-59 12 -148 14l-98 2l43 158l41 159h88h88v78v76h-65q-63 2 -64 8q8 14 21 58q72 201 161 274 q57 47 128 47q41 0 87 -16l27 -8q2 0 -11 25l-36 67q-33 66 -42 78t-22 14q-20 4 -43 4q-32 0 -69 -8q-227 -61 -363 -504l-12 -39h-80h-82v-76v-78h62q59 0 59 -6v-4q-4 -10 -68 -250q-63 -241 -61 -243z" />
<glyph unicode="&#xa4;" horiz-adv-x="987" d="M86 274l8 -8q6 -8 17.5 -21.5t23.5 -25.5l47 -49l60 59l59 58l39 -19q72 -37 160 -37q90 0 162 37l38 19l60 -58l59 -59l49 53l52 53l-60 56l-59 57l16 31q41 82 41 165.5t-41 168.5l-14 32l59 58l58 59l-52 51l-53 52l-57 -58l-58 -57l-43 20q-79 37 -156 38 q-80 0 -159 -40l-43 -20l-55 57q-6 6 -12.5 13.5t-11.5 12.5l-10 10l-9 9l-7 7l-6 6h-2q-4 0 -51 -48l-49 -53q0 -6 55 -61l58 -58l-19 -34q-39 -79 -39 -159.5t39 -162.5l19 -39l-58 -55q-55 -56 -55 -60zM291 543q-6 26 -7 50q0 77 63 142q66 68 148 68q21 0 44 -4 q104 -23 151 -115q24 -47 24 -95q0 -46 -22 -91q-43 -88 -130 -115q-32 -10 -63 -10q-53 0 -104 28q-79 46 -104 142z" />
<glyph unicode="&#xa5;" horiz-adv-x="1136" d="M127 1235q0 -8 166 -299l168 -295h-144l-141 -2v-66v-65h176h176v-57v-60h-176h-176v-59v-58h176h176v-137v-137h78h80v137v137h170h172v58v59h-172h-170v60v57h170h172v65v66h-141q-137 0 -137 6l20 39l66 113l82 143q164 291 163 295q0 2 -90 2h-92l-102 -190 q-115 -209 -150 -279l-45 -88l-22 43q-20 41 -152 281l-131 235h-86q-84 0 -84 -4z" />
<glyph unicode="&#xa6;" horiz-adv-x="153" d="M10 -47v-354h68h67v354v352h-67h-68v-352zM10 590h68h67v295v295h-67h-68v-295v-295z" />
<glyph unicode="&#xa7;" horiz-adv-x="587" d="M0 496q8 -98 46 -172t134 -174q135 -143 177 -218q28 -50 29 -92q0 -21 -7 -41q-16 -43 -65 -68q-26 -14 -44 -14q-17 0 -28 11q-12 12 -11 43q0 6 1 11q0 45 -31 69q-23 17 -49 17q-14 0 -30 -5q-44 -14 -63 -66q-9 -24 -8 -46q0 -50 45 -92q59 -55 153 -55q9 0 19 1 q156 6 225 134q33 62 33 128q0 71 -39 147l-20 41l18 19q57 63 81 118.5t24 137.5q0 91 -41 166q-43 78 -162 196.5t-151 184.5q-25 50 -26 92q0 20 6 38q17 56 83 70q12 2 22 2q52 0 52 -53q0 -47 34 -68q19 -11 39 -11q16 0 33 7q39 16 51 64q4 16 5 32q0 63 -74 109 q-59 36 -125 37q-38 0 -78 -12q-125 -35 -173 -157q-21 -53 -21 -105q0 -70 36 -140l13 -22l-21 -21q-45 -47 -70 -114q-22 -58 -23 -112q0 -9 1 -17zM147 586q6 18 21.5 44.5t19.5 26.5l13 -14q14 -12 41 -39l51 -49q82 -84 101.5 -107.5t35.5 -54.5q23 -44 23 -89 q0 -40 -19 -81q-6 -12 -15 -27.5t-17.5 -24.5t-10.5 -9q-4 4 -81 87t-99 109q-74 91 -74 170q-1 30 10 58z" />
<glyph unicode="&#xa8;" horiz-adv-x="1644" d="M585 1099q-5 -14 -5 -28q0 -20 10 -39q20 -43 72.5 -43t72.5 43q9 20 9 38q0 31 -25 57q-25 27 -56 28q-16 0 -34 -8q-33 -14 -44 -48zM906 1085q-1 -6 -1 -12q0 -35 26 -61q22 -23 53 -23q10 0 22 2q43 10 56 50q5 15 5 30q0 24 -14 46q-23 36 -68 36q-8 0 -33 -6 q-41 -19 -46 -62z" />
<glyph unicode="&#xa9;" horiz-adv-x="1513" d="M120 579v-19q0 -177 91 -330q96 -161 264 -242q100 -47 206 -61q40 -5 79 -5q62 0 121 13q94 22 183 68t153.5 116.5t112.5 158t60 189.5q4 39 4 79q0 65 -12 132q-47 248 -256 399q-88 63 -202 94q-91 24 -178 25q-23 0 -46 -2q-139 -14 -263 -87t-206 -189 q-106 -152 -111 -339zM366 904q130 144 334 177q13 2 34.5 2t49.5 -2q57 -4 90 -12q184 -45 297 -188q111 -141 111 -323v-7q-2 -213 -159 -366q-155 -151 -366 -150h-5q-215 2 -368 158q-151 154 -151 367q1 197 133 344zM423 545q3 -115 58 -209q53 -90 160 -126 q57 -19 115 -19q50 0 100 14q109 31 166 119q12 18 30 59q16 37 15 42q0 2 -53 17q-53 14 -58 9q-31 -100 -122 -140q-40 -17 -80 -16q-52 0 -103 29q-72 41 -97 140q-12 45 -12 90q0 54 17 106q31 97 105 133q50 24 97 24q29 0 58 -9q76 -24 121 -99l7 -10.5t6 -6.5t5 -2 l9 2q6 2 19 5t24 5q39 10 42 15.5t-12 36.5q-68 143 -221 157q-34 4 -61 4q-18 0 -33 -2q-84 -8 -153.5 -50t-102.5 -105q-46 -93 -46 -200v-13z" />
<glyph unicode="&#xaa;" horiz-adv-x="534" d="M51 1067q0 -63 4 -63l31 26q68 63 132 63h6q67 -3 75 -73q2 -14 -6 -18.5t-55 -18.5q-194 -61 -195 -156q0 -29 18 -61q27 -49 96 -58q14 -2 28 -2q53 0 104 27q14 8 20 0q14 -27 61 -27q2 0 3 -1q44 0 94 24l27 14v37q0 33 -3.5 36t-29.5 -13q-31 -18 -35 -8t-4 110 q-2 150 -20.5 202t-82.5 73q-25 10 -78 12h-21q-39 0 -60 -6q-51 -14 -86 -41l-23 -17v-61zM178 870q8 14 51 36t68 26q2 0 2 -60q0 -47 -8 -60t-47 -24q-10 -3 -20 -2q-26 0 -44 21q-13 15 -13 32q0 14 11 31z" />
<glyph unicode="&#xab;" horiz-adv-x="763" d="M2 393q-2 -2 117 -188.5t133 -200.5q4 -4 82 -4l78 2l-127 193q-125 195 -123 198l16 25l50 77l61 91q123 186 123 190q0 2 -78 2h-78l-125 -190zM356 389q0 -8 123 -199l125 -190h80h80l-62 90l-127 195l-67 102l63 98q94 145 129 193q63 96 63.5 98t-79.5 2h-78 l-125 -190q-125 -187 -125 -199z" />
<glyph unicode="&#xad;" horiz-adv-x="892" d="M49 586h334h336v-187v-184h76h73v258v256h-409h-410v-72v-71z" />
<glyph unicode="&#xae;" horiz-adv-x="1423" d="M103 399q75 -287 331 -411q145 -61 288 -65h13q135 0 255 62q126 65 215 163t129 239q23 80 23 162q0 63 -14 129q-51 250 -256 399q-88 63 -202 95q-87 24 -170 24q-27 0 -53 -2q-139 -14 -263.5 -87t-205.5 -189q-113 -159 -113 -344q0 -85 23 -175zM327 904 q130 144 335 177q13 2 34 2t49 -2q57 -4 91 -12q184 -45 295.5 -188.5t111.5 -329.5q-2 -213 -159 -366q-155 -151 -368 -150h-5q-213 2 -366 158q-151 154 -150 367q0 197 132 344zM461 215h59h58v145v144h43q78 0 121.5 -40t123.5 -188l35 -61h72q68 0 67 4q0 2 -4 6 q-2 4 -53 88q-94 152 -141 187q-41 27 -11 26q29 0 82 35q70 47 78 136q1 11 1 21q0 75 -52 126q-43 39 -91 47t-220 12l-168 2v-344v-346zM578 602v103v100h71q66 0 111 -4q111 -14 110 -95q0 -58 -47 -80q-49 -24 -178 -24h-67z" />
<glyph unicode="&#xaf;" horiz-adv-x="1257" d="M119 1262h510h508v55v57h-508h-510v-57v-55z" />
<glyph unicode="&#xb0;" horiz-adv-x="620" d="M100 1126q-25 -52 -25 -104q0 -62 36 -123q59 -99 184 -109q12 -1 23 -1q109 0 174 81q49 61 53 136v16q0 64 -28 115q-32 57 -95 93q-49 28 -108 28q-17 0 -33 -3q-126 -14 -181 -129zM174 1024q2 74 64 114q36 23 73 23q27 0 56 -12q55 -25 74 -81q8 -23 8 -45 q0 -33 -17 -65q-31 -61 -94 -72q-14 -2 -27 -3q-47 0 -87 31q-50 40 -50 110z" />
<glyph unicode="&#xb1;" horiz-adv-x="821" d="M2 0h410h409v72v71h-409h-410v-71v-72zM2 557h168h170v-170v-172h72h71v172v170h168h170v74v71h-170h-168v168v170h-71h-72v-170v-168h-170h-168v-71v-74z" />
<glyph unicode="&#xb2;" horiz-adv-x="440" d="M-14 579.5q0 -8.5 235 -8.5h234v50v49l-127 2l-125 2l43 51q96 113 125.5 164t29.5 110q0 102 -87 159q-58 37 -126 37q-35 0 -73 -9q-25 -6 -68 -29l-41 -20v-72v-70q2 0 25 23q65 73 141 73h2q78 -1 98 -77q2 -9 3 -21q0 -109 -242 -358q-47 -47 -47 -55.5z" />
<glyph unicode="&#xb3;" horiz-adv-x="565" d="M88 600l27 -10q72 -27 136 -28q61 0 115 25q112 50 111 167q0 80 -65 127l-21 16l19 12q55 41 55 113q0 10 -1 21q-9 87 -83 122q-58 29 -128 29q-38 0 -79 -8q-51 -10 -58 -18.5t-7 -49.5q-2 -26 -2.5 -38.5t2.5 -12.5l40 14q48 16 89 16q26 0 49 -6q55 -17 55 -67 q0 -73 -109 -86l-26 -2v-47q0 -47 4 -47q51 0 96 -23q41 -19 41 -71q0 -44 -35 -66q-28 -18 -65 -18q-8 0 -17 1q-47 5 -137 44q-4 2 -4 -13q-2 -12 -2 -41v-55z" />
<glyph unicode="&#xb4;" horiz-adv-x="354" d="M35 944q0 -4 49 -4h49l94 127q94 123 95 129q-39 2 -86 2q-66 0 -78.5 -2t-16.5 -12q-2 -2 -10 -21l-21 -49l-26 -57z" />
<glyph unicode="&#xb5;" horiz-adv-x="794" d="M68 240v-539h77h76v182v183l29 -29q62 -58 147 -58q8 0 17 1q96 6 153 77l19 23v-41v-39h71h70v389v389h-78h-76l-2 -254q0 -227 -6 -276q-18 -78 -79 -117q-43 -27 -88 -27q-19 0 -40 5q-68 16 -104 81q-20 35 -24.5 81t-6.5 257l-2 250h-76h-77v-538z" />
<glyph unicode="&#xb6;" horiz-adv-x="1345" d="M200 801q28 -135 128 -199q35 -25 94 -45t96 -22q10 0 11 -54.5t1 -384.5v-440h70h70v715v714h92h92v-714v-715h76h74v715v714h61h59v76v78l-284 -2q-279 0 -324 -4q-207 -18 -285 -178q-41 -81 -40 -170q0 -41 9 -84z" />
<glyph unicode="&#xb7;" horiz-adv-x="372" d="M125 618q-1 -8 -1 -15q0 -53 50 -79q25 -12 47 -12q37 0 66 34q25 29 25 60q0 28 -19 56q-14 20 -43 31q-19 7 -36 8q-9 0 -17 -3q-64 -14 -72 -80z" />
<glyph unicode="&#xb8;" horiz-adv-x="393" d="M61 -193v-51q0 -43 6.5 -49t49.5 -6q96 0 153 40q62 43 62 118q0 73 -68 104q-18 8 -20 12.5t2 18.5l4 18h-51q-51 0 -54 -6l-2 -8q-4 -8 -10 -23.5t-10 -27.5l-19 -53l31 -3q55 -6 64 -28q12 -29 -21 -46q-27 -14 -68 -14h-20z" />
<glyph unicode="&#xb9;" horiz-adv-x="124" d="M0 571h63h64v310v307h-64h-63v-307v-310z" />
<glyph unicode="&#xba;" horiz-adv-x="1744" d="M1346 954q0 -92 66.5 -158.5t159.5 -77.5q19 -2 39 -3q75 0 156 35q106 53 125 169q3 21 4 40q0 90 -69 159q-47 45 -136 66q-45 10 -84.5 10t-74.5 -10q-88 -23 -137 -83.5t-49 -146.5zM1468 967q10 78 78 112q35 18 72 18q35 0 72 -16q83 -38 83 -128q0 -93 -87 -126 q-33 -12 -64 -12q-47 0 -90 28q-64 41 -64 108q-1 8 0 16z" />
<glyph unicode="&#xbb;" horiz-adv-x="1607" d="M487 2q0 -2 78 -2h78l127 193l127 194l-129 195l-129 196h-76q-76 0 -76 -4q0 -2 125 -194l127 -193l-127 -192zM840 2q0 -2 75 -2l78 2l125 188q125 186 125 197q0 8 -127 199l-125 192h-76q-76 0 -75.5 -4t123.5 -194l60 -93l50 -75l14 -25q0 -2 -124 -194 q-123 -187 -123 -191z" />
<glyph unicode="&#xbc;" horiz-adv-x="4950" d="M1944 571h63h64v310v307h-64h-63v-307v-310zM2134 -45q-2 -3 8 -5h4q5 0 12 -1q13 0 33 2l60 2l375 588l325 520q47 78 47 100v33h-41h-43l-389 -616q-391 -615 -391 -623zM2660 197h148h145v-99v-98h23h22v301q0 301 -2 301l-168 -178q-125 -133 -146.5 -158.5 t-21.5 -44.5v-24zM2828 285l62 67l61 68l2 -68q0 -68 -2 -67q0 -2 -15.5 -2t-45.5 2h-62z" />
<glyph unicode="&#xbd;" horiz-adv-x="1789" d="M113 1133l18 26q25 35 0 35q-14 0 -16 -4t-2 -27v-30zM113 0h39h36v98v99h39h39v43v43h-39h-39v170v168h-30q-31 0 -37 -9q-8 -6 -8 -311v-301zM481 571h62h61v310v307h-61h-62v-307v-310zM618 -45q-3 -5 31 -5q11 0 27 1h61l369 584l184 291l152 238q53 83 57 91l25 39 h-64h-61l-389 -619q-392 -614 -392 -620zM1212 8q0 -8 232 -8h231v49v49h-125h-127l19 23q109 127 138.5 171t39.5 99q5 23 5 45q0 67 -48 119q-62 66 -168 66h-6q-10 0 -21.5 -1.5t-18.5 -1.5h-9q-55 -16 -97 -38l-32 -19v-69q0 -70 4 -70q12 12 26 24q69 73 142 73h2 q74 -1 96 -73q4 -13 4 -28q0 -47 -39 -111q-51 -84 -192 -233q-56 -56 -56 -66z" />
<glyph unicode="&#xbe;" horiz-adv-x="1320" d="M61 600l35 -12q70 -24 132 -24q67 0 124 28q88 41 102 138q2 15 2 28q0 77 -65 123l-22 16l14 10q60 41 60 114q0 12 -2 25q-11 91 -93 125q-58 24 -118 24q-38 0 -78 -9q-51 -10 -58.5 -18.5t-7.5 -49.5q-4 -51 0 -51l41 14q48 16 88 16q26 0 49 -6q55 -17 56 -67 q0 -38 -36 -63t-87 -25q-8 0 -10.5 -6t-2.5 -41v-47l21 -2q78 -10 107 -44q16 -18 16 -41q0 -20 -13 -44q-25 -47 -86 -48q-52 0 -131 35q-6 2 -14 5.5t-14 5.5l-4 2q-4 0 -5 -56v-55zM363 -51h61h59l379 600l333 526q48 78 48 94v25h-47q-37 0 -44 -2t-15 -16 q-2 -4 -52 -81l-148 -235l-183 -291q-375 -596 -383 -604zM913 221v-24h146h147v-99v-98h19h18v297l-2 297l-164 -174q-121 -131 -141.5 -156t-22.5 -43zM1079 283l62 67l63 68q2 0 2 -68v-67h-63h-64z" />
<glyph unicode="&#xbf;" horiz-adv-x="1138" d="M172 1174q0 -25 14 -3q16 23 -2 23q-8 0 -10 -3t-2 -17zM172 297v-297h43h41v98v99h41h41v43v43h-41h-41v170v168h-31q-31 0 -41 -13q-8 -10 -10 -49t-2 -262zM717 -78q0 -94 53 -157.5t150 -86.5q33 -7 51 -7q14 0 20 4q14 9 62 89l53 91q-8 0 -37 -13q-34 -12 -64 -11 q-27 0 -50 9q-48 20 -58 76q-2 9 -2 20q0 72 92 228q57 96 73.5 138t16.5 97q0 109 -90 158l-18 10l2 -22q1 -7 1 -14q0 -68 -85 -205l-62 -101q-108 -178 -108 -303zM853 735q19 -45 71 -59q15 -4 28 -4q29 0 57 17q40 26 48 71q1 9 1 17q0 42 -33 73q-31 29 -72 29 q-11 0 -23 -2q-51 -8 -74 -53q-12 -24 -12 -47q0 -21 9 -42z" />
<glyph unicode="&#xc0;" horiz-adv-x="1517" d="M229 6q-2 -4 4 -4q10 -2 80 -2l86 2l72 170l74 172h252h252l75 -172l78 -172h88h86l-262 592l-264 590l-59 2h-62l-248 -584q-246 -578 -252 -594zM616 508l172 414l93 -207l44 -102l36 -81l12 -26q2 -4 -30 -5t-148 -1q-179 2 -179 8zM1188 1513l94 -124l94 -123h47 q45 2 45 6q-6 16 -57 127l-55 119h-84q-23 0 -43.5 -1t-30.5 -1z" />
<glyph unicode="&#xc1;" horiz-adv-x="1384" d="M76 4l24 -4h60h88l71 172l74 172h252l252 2l76 -172l78 -172l86 -2q84 2 84 6q-8 25 -263 594l-260 584h-59q-45 0 -54.5 -2t-13.5 -15q-2 -4 -33 -78l-98 -229l-118 -280q-246 -570 -246 -576zM463 502l86 211l28 65l23 58q10 25 19.5 44t13.5 29l4 11q6 -6 94 -209 l67 -150q26 -59 23 -59q-2 -2 -180 -2zM1061 1266h49h47l82 108l41 56l36 49q13 18 17 22l13 17h-86q-63 0 -76 -2.5t-17 -12.5q-2 -4 -8 -19.5t-17.5 -41t-21.5 -45.5q-37 -78 -51 -113z" />
<glyph unicode="&#xc2;" horiz-adv-x="2023" d="M395 0h86h88l74 172l74 174h250h250l77 -174l78 -172h88h86l-14 35l-264 590l-246 557l-61 2h-60l-217 -506l-252 -592zM786 502l78 196l41 98q23 52 34 80.5t13 32.5q4 10 17 -12l84 -184l94 -211l-180 -2q-179 0 -181 2zM1288 1268l45 -2h45l72 73l74 76l73 -76l74 -73 h47q45 0 45 2q0 8 -80 131l-79 127h-80h-80l-33 -56l-78 -129z" />
<glyph unicode="&#xc3;" horiz-adv-x="1368" d="M0 0h86h88l74 172l74 174h249h252l78 -174l78 -172h86h88l-16 35l-263 590l-247 557l-62 2h-59l-215 -506l-254 -592zM391 502l80 196q82 203 86 211q4 10 16 -12l84 -184l95 -211l-179 -2q-180 0 -182 2zM862 1292h35q25 0 30 2t9 17q8 33 25.5 43t51.5 3t101 -32 q72 -27 110 -28h3q36 0 67 20q59 37 72 158l2 24h-33q-25 0 -30 -3t-11 -21q-14 -39 -42 -44q-4 -1 -10 -1q-29 0 -89 22q-104 37 -149 39h-6q-42 0 -78 -29q-43 -35 -54 -145z" />
<glyph unicode="&#xc4;" horiz-adv-x="1368" d="M0 4l23 -4h61l88 2l74 170l71 172h252h252l76 -172l78 -170l86 -2q86 0 86 4l-262 592l-262 588h-60h-28h-23l-10 -2q-2 -6 -251 -587t-251 -591zM387 504l10 26l35 81l43 104q82 199 90 198q2 -4 94 -208l43 -100q23 -52 35 -77l11 -26q0 -2 -183 -2q-178 0 -178 4z M892 1382q-4 -12 -4 -24q0 -16 7 -31q20 -41 60 -48q8 -1 16 -1q30 0 53 22q21 21 21 52q0 11 -3 22q-8 39 -46 56q-18 8 -34 7q-19 0 -36 -10q-25 -16 -34 -45zM1215 1382q-4 -12 -3 -24q0 -16 7 -31q20 -41 60 -48q8 -1 16 -1q30 0 54 22q22 21 22 52q0 10 -3 22 q-8 39 -46 55q-18 8 -35 8q-19 0 -38 -10q-25 -16 -34 -45z" />
<glyph unicode="&#xc5;" horiz-adv-x="1288" d="M0 0h86h88l74 172l74 174h249h252l78 -174l78 -172h86h88l-16 35l-263 590l-247 557l-62 2h-59l-215 -506l-254 -592zM391 502l80 196q82 203 86 211q4 10 16 -12l84 -184l95 -211l-179 -2q-180 0 -182 2zM975 1440l-2 -24q0 -91 88 -134q37 -18 72 -18q43 0 84 26 q74 47 73 137q0 76 -62 124q-44 34 -92 34q-21 0 -42 -6q-107 -30 -119 -139zM1036 1430q0 52 45 75q22 11 45 12q26 0 54 -16q48 -26 48 -79v-3q-1 -55 -52 -80q-22 -11 -44 -11q-25 0 -50 15q-46 29 -46 87z" />
<glyph unicode="&#xc6;" horiz-adv-x="1480" d="M0 8q-2 -4 6 -6t84 -2h92l154 258l153 258h158l158 2v-260v-258h338h338v76v76h-250h-250v184v182h236h233v78v80h-233h-236v174v176h242h241v78v76h-387h-387l-344 -582q-346 -584 -346 -590zM586 680q2 6 109.5 187.5t109.5 181.5v-187v-186h-111q-108 0 -108 4z" />
<glyph unicode="&#xc7;" horiz-adv-x="1060" d="M4 518q23 -219 178 -366q127 -119 303 -156l39 -8l-14 -47q-16 -39 -16 -47l34 -5q51 -2 62 -32q10 -23 -18 -38q-24 -14 -68 -14h-12h-43v-49q0 -43 9 -49q7 -5 42 -4h26q141 8 183 96q13 29 12 57q0 22 -7 43q-17 48 -65 66q-20 8 -20 14q0 7 41 7q76 0 188.5 26.5 t181.5 61.5l21 10v96q0 94 -2 94l-6 -4l-15 -7l-18 -9q-190 -107 -372 -107q-55 0 -108 10q-232 42 -321 242q-40 92 -40 185q0 73 25 145q56 166 210 244q107 53 231 53q154 0 334 -82q49 -23 63 -29l5 27v64l-3 94l-38 14q-197 78 -371 78q-41 0 -80 -4q-133 -14 -260 -87 t-193 -175q-102 -159 -101 -340q-1 -34 3 -68z" />
<glyph unicode="&#xc8;" horiz-adv-x="1003" d="M0 0h344h346v76v76h-258h-256v180v180h242h239v80v78h-239h-242v178v178h248h248v78v76h-336h-336v-590v-590zM711 1518l39 -52l98 -127l59 -77h49q49 0 50 4l-7 16q-8 16 -23 50l-28 63l-57 123h-90h-90z" />
<glyph unicode="&#xc9;" horiz-adv-x="1040" d="M2 0h344h346v76v76h-260h-258v180v180h240h241v80v78h-241h-240v178v178h250h250v78v76h-336h-336v-590v-590zM715 1266l14 -4h35h49l94 124q96 125 97 130q-41 2 -89 2h-88l-55 -123z" />
<glyph unicode="&#xca;" horiz-adv-x="1302" d="M90 0h342h342v76v76h-256h-258v180v180h242h241v80v78h-241h-242v178v178h252h250v78v76h-336h-336v-590v-590zM739 1266q0 -4 45 -4h47l72 73l72 76l74 -76l75 -73h50q47 0 47 6l-13 18l-29 49q-19 33 -40 64l-78 127h-84h-84l-76 -127q-78 -129 -78 -133z" />
<glyph unicode="&#xcb;" horiz-adv-x="1386" d="M209 0h342h342v76v76h-256h-256v180v180h240h241v80v78h-241h-240v178v178h250h250v78v76h-336h-336v-590v-590zM826 1386q-5 -14 -5 -28q0 -24 15 -46q23 -36 65 -36q37 0 59.5 21.5t22.5 58.5q0 43 -30 66q-21 16 -48 17q-12 0 -24 -3q-42 -11 -55 -50zM1151 1386 q-4 -14 -4 -27q0 -24 14 -47q23 -36 66 -36q37 0 59.5 22.5t22.5 57.5q0 43 -31 66q-21 16 -48 17q-11 0 -24 -3q-43 -11 -55 -50z" />
<glyph unicode="&#xcc;" horiz-adv-x="954" d="M143 0h86h86v590v590h-86h-86v-590v-590zM612 1509q16 -16 99 -129l92 -118h49q49 0 49 2l-8 16q-6 16 -22 50l-27 63l-58 125h-90q-84 -5 -84 -9z" />
<glyph unicode="&#xcd;" horiz-adv-x="1046" d="M158 0h86h84v590v590h-84h-86v-590v-590zM698 1264q0 -2 50 -2h49l94 124q96 125 96 130q-41 2 -88 2h-88l-8 -19q-2 -4 -10 -22l-23 -50l-25 -55z" />
<glyph unicode="&#xce;" horiz-adv-x="1130" d="M170 0h86h86v590v590h-86h-86v-590v-590zM580 1264q0 -2 47 -2h47l74 73l71 74l76 -74l76 -73h47q49 0 49 2t-82 133l-82 129h-82q-82 0 -90 -10l-44 -74l-73 -121z" />
<glyph unicode="&#xcf;" horiz-adv-x="1296" d="M10 0h86h86v590v590h-86h-86v-590v-590zM417 1377q-2 -10 -3 -20q0 -30 21 -54q23 -28 59 -28q7 0 14 1q41 6 59 43q11 22 12 42q0 27 -21 51q-24 28 -56 28q-16 0 -33 -6q-43 -15 -52 -57zM741 1377q-2 -10 -2 -19q0 -30 21 -55q22 -28 58 -28q7 0 13 1q43 6 62 43 q10 20 10 39q0 29 -22 54q-25 28 -56 28q-15 0 -32 -6q-44 -15 -52 -57z" />
<glyph unicode="&#xd0;" horiz-adv-x="1650" d="M504 530h69h70v-266v-266l285 2q248 2 315.5 11t153.5 52q197 98 280 291q51 117 51 238q0 78 -21 158q-54 203 -234 325q-90 61 -200 81t-378 22l-252 2v-269v-268h-70h-69v-55v-58zM815 152v190v188h166h166v58v55h-166h-166v193v190h109q100 0 186 -4 q346 -18 426 -332q11 -47 11 -95q0 -90 -40 -183q-61 -143 -180 -203q-59 -31 -129 -41t-223 -14z" />
<glyph unicode="&#xd1;" horiz-adv-x="1230" d="M-33 0h78h80v451q2 444 8 444q2 -2 52 -60l150 -172l191 -221l383 -442h74h74v588v588h-82h-80l-2 -453v-455l-393 455l-394 453h-69h-70v-588v-588zM829 1292h35q29 2 34 4t9 19q12 43 49 45h4q38 0 123 -35q66 -27 115 -27q37 0 63 16q60 36 72 156l4 29h-32 q-27 0 -31 -2t-8 -18q-10 -33 -26.5 -42.5t-50.5 -4t-106 31.5q-69 26 -117 26q-36 0 -60 -14q-56 -34 -72 -161z" />
<glyph unicode="&#xd2;" horiz-adv-x="1169" d="M-46 535q17 -219 171 -373q113 -115 289 -155q82 -19 163 -18q94 0 188 24q175 46 290 165q159 165 158 406q0 253 -169 428q-88 90 -246 142q-121 40 -227 40q-33 0 -65 -4q-141 -18 -261 -86t-184 -164q-110 -164 -109 -352q0 -26 2 -53zM128 623q9 133 91 241 q70 94 200 141q82 29 163 29q47 0 94 -10q154 -31 248 -134.5t116 -262.5q3 -22 3 -44q0 -83 -42 -176q-53 -118 -141 -178q-113 -78 -249 -86q-16 -1 -32 -1q-118 0 -221 54q-117 60 -176 173q-55 106 -55 220q0 17 1 34zM975 1518l14 -17q27 -39 96 -127l82 -108h50h47 l-58 125l-57 125h-86z" />
<glyph unicode="&#xd3;" horiz-adv-x="1384" d="M2 678q-8 -49 -8 -97q0 -130 60 -257q83 -174 239 -254q159 -82 326 -82q20 0 40 1q188 11 357 122q150 100 212 288q32 97 32 191q0 90 -29 178q-111 338 -481 412q-35 8 -105 11q-30 1 -52 1q-30 0 -46 -2q-227 -33 -366.5 -164t-178.5 -348zM170 600q4 96 49 191 q96 201 356 237q29 5 58 5q21 0 41 -3q109 -12 203 -68.5t143 -140.5q65 -111 65 -229q0 -70 -23 -142q-62 -194 -251 -270q-92 -38 -176 -38h-21q-94 5 -177 38t-143.5 99.5t-93.5 145.5q-30 70 -30 154v21zM1020 1266h47h49l90 118l92 127q2 2 -6 5q-14 2 -73 2h-86 l-11 -21q-2 -6 -10 -24l-21 -50l-24 -53z" />
<glyph unicode="&#xd4;" horiz-adv-x="1726" d="M176 629q-3 -28 -3 -57q0 -135 73 -270q88 -163 233 -236q156 -78 321 -79q21 0 43 2q187 11 353 122q139 94 204 270q39 106 39 210q0 69 -18 138q-53 211 -216 334t-392 127q-36 2 -57.5 2t-28.5 -2q-242 -35 -383 -179t-168 -382zM353 639q13 125 96 231 q96 129 305 158q30 5 59 5q21 0 41 -3q129 -14 227.5 -85t144.5 -170q38 -81 37 -177q0 -21 -1 -43q-10 -121 -82 -229q-59 -88 -179 -141q-99 -44 -198 -43l-39 1q-133 12 -233.5 87t-145.5 180q-35 81 -35 173q0 28 3 56zM1096 1268l45 -2h47l69 71l70 74l31 -27 q10 -8 38 -34l40 -39l45 -45h45l45 4q0 2 -80 131l-78 125h-82q-59 0 -70.5 -2t-17.5 -13l-78 -129z" />
<glyph unicode="&#xd5;" horiz-adv-x="1619" d="M92 629q-3 -29 -3 -57q0 -135 72 -270q87 -163 232 -236q155 -79 320 -80q22 0 45 2q188 12 354 123q139 94 204 270q39 106 39 210q0 69 -18 138q-53 211 -216 334t-392 127q-36 2 -57.5 2t-28.5 -2q-242 -35 -384 -179t-167 -382zM269 639q13 125 96 231 q96 129 305 158q30 5 59 5q21 0 41 -3q129 -14 227.5 -85t143.5 -170q37 -82 37 -180q0 -20 -1 -40q-9 -121 -83 -229q-57 -88 -176 -141q-99 -44 -199 -43l-39 1q-133 12 -233.5 87t-145.5 180q-35 81 -35 173q0 28 3 56zM1026 1292h35q33 0 37 6q4 4 4 19q4 14 18 29 q18 18 49 14t105 -33q70 -27 120 -27q36 0 62 14q61 34 74 156l4 29h-33q-27 0 -31 -2t-8 -18q-8 -33 -25.5 -42.5t-51 -3t-105.5 30.5q-68 26 -116 26q-36 0 -61 -14q-58 -34 -73 -159z" />
<glyph unicode="&#xd6;" horiz-adv-x="1583" d="M86 578q0 -168 84 -307.5t229 -211.5q143 -72 301 -71q27 0 54 2q186 14 350 121q141 92 206 269q38 104 38 207q0 72 -19 144q-47 182 -172 296t-319 153q-35 8 -106 11q-30 1 -52 1q-29 0 -43 -2q-258 -39 -404.5 -201.5t-146.5 -410.5zM330 829q90 156 305 195 q46 7 89 7q53 0 101 -11q160 -41 255 -160q94 -118 95 -258v-3q-1 -142 -96 -286q-57 -76 -158.5 -123t-209.5 -47q-131 0 -236.5 63.5t-161.5 162.5q-54 97 -54 218q0 128 71 242zM1021 1336q17 -58 81 -58q37 0 57 29q16 22 16 48q1 8 -1 16q-6 36 -37 54q-21 13 -43 13 q-19 0 -37 -11q-40 -25 -40 -63q0 -14 4 -28zM1347 1382q-4 -12 -4 -24q0 -16 7 -31q23 -49 69 -49q7 0 16 1q63 10 62 78q0 46 -37 68q-20 13 -41 13q-19 0 -39 -11q-24 -16 -33 -45z" />
<glyph unicode="&#xd7;" horiz-adv-x="833" d="M45 346l53 -51q49 -53 55.5 -53t133.5 131l131 129l129 -129q131 -131 133 -131q4 0 57 53l51 51l-131 131l-131 133l131 131l131 131l-53 56l-55 53l-131 -131l-131 -131l-133 131l-131 131l-54 -53l-55 -56l133 -129l133 -131l-133 -133z" />
<glyph unicode="&#xd8;" horiz-adv-x="1417" d="M82 504q23 -190 147 -328l27 -29l-39 -47q-39 -45 -39 -51q0 -2 39 -34.5t43 -32.5l43 49l41 49l27 -14q135 -78 308 -80h10q168 0 316 68q153 71 232 192q106 161 106 346q0 20 -2 40q-12 208 -149 365q-27 31 -27 35t35 47q37 45 37 47q0 4 -39 38t-43 34l-41 -49 q-41 -51 -43 -51l-37 18q-153 77 -315 77q-96 0 -195 -27q-266 -73 -377 -294q-70 -142 -70 -291q0 -38 5 -77zM283 444q-25 78 -25 152q0 98 43 188q76 160 246 220q88 29 165 29q31 0 60 -5q113 -16 170 -53q14 -10 10 -14q-27 -35 -303 -355.5t-278 -320.5q-10 0 -43 59 t-45 100zM459 213l291 342q291 340 294 340q4 -2 31 -37q87 -122 87 -263q0 -51 -11 -105q-43 -202 -217 -287q-114 -56 -228 -57q-110 0 -219 53z" />
<glyph unicode="&#xd9;" horiz-adv-x="1308" d="M72 840q0 -373 10 -470.5t55 -176.5q72 -121 248 -177q97 -30 194 -30l158 20q238 61 314 250q25 61 27.5 119.5t4.5 400.5l2 400h-84h-81l-2 -381q-2 -315 -6.5 -385t-26.5 -117q-66 -133 -256 -155q-31 -3 -59 -3q-150 0 -246 94q-59 57 -70.5 141.5t-11.5 450.5v355 h-84h-86v-336zM958 1511q0 -2 13.5 -18t37.5 -48l44 -61l92 -118h47l47 2l-57 127l-56 121h-86q-82 -1 -82 -5z" />
<glyph unicode="&#xda;" horiz-adv-x="1662" d="M223 844q0 -371 10.5 -471.5t57.5 -179.5q70 -121 246 -177q97 -30 194 -30l158 20q240 61 313 250q25 63 29 124.5t6 395.5l2 400h-84h-84l-2 -381q-2 -324 -6 -390.5t-27 -111.5q-66 -133 -256 -155q-31 -3 -59 -3q-150 0 -246 94q-57 57 -68.5 141.5t-11.5 450.5v355 h-86h-86v-332zM1159 1274q-1 -2 -1 -3q0 -4 7 -5h37h47l94 123q92 125 93 127q-37 2 -84 2h-84l-54 -119q-51 -115 -55 -125z" />
<glyph unicode="&#xdb;" horiz-adv-x="1447" d="M80 1176l2 -406q2 -348 8 -413.5t41 -139.5q86 -172 329 -218q68 -13 132 -13q166 0 309 86q115 68 162 200q18 55 21 113.5t6 384.5l2 406h-84h-84v-385q-2 -315 -6.5 -384t-26.5 -114q-45 -92 -161 -133q-70 -25 -143 -25q-48 0 -97 10q-124 27 -187 113 q-37 47 -44 122t-9 415l-2 381h-84h-84zM893 1268l47 -2h45l72 73l71 76l74 -76l76 -73h45q47 0 47 2t-80 131l-80 127h-80h-79l-78 -129z" />
<glyph unicode="&#xdc;" horiz-adv-x="1570" d="M135 850q0 -428 15 -520q39 -213 251 -297q120 -48 241 -48q90 0 181 26q213 62 283 227q31 72 37 152.5t6 416.5v369h-82h-84l-2 -383q-2 -324 -6 -388.5t-27 -111.5q-66 -133 -256 -155q-31 -3 -59 -3q-150 0 -246 94q-57 57 -68.5 140.5t-11.5 455.5v351h-86h-86v-326 zM959 1336q17 -58 81 -58q37 0 58 29q16 23 16 50q0 7 -1 14q-5 36 -38 54q-21 13 -42 13q-19 0 -38 -11q-40 -25 -40 -63q0 -14 4 -28zM1284 1336q16 -58 80 -58q37 0 57 29q16 23 17 50q0 7 -1 14q-5 36 -38 54q-20 13 -41 13l-37 -11q-41 -25 -41 -65q0 -12 4 -26z" />
<glyph unicode="&#xdd;" horiz-adv-x="1458" d="M125 1174q0 -6 215 -277l213 -272v-314v-311h88h88v311v314l215 272q213 272 213 277q-45 2 -100 2h-101l-157 -201q-156 -201 -160 -201l-158 201l-153 201h-101zM1055 1266h47h49l90 118l44 61q24 32 37 48t13 18l-14 5q-18 2 -68 2h-86l-18 -41l-55 -127z" />
<glyph unicode="&#xde;" horiz-adv-x="897" d="M78 0h88h88v125v127h74q160 0 248 20.5t145 71.5q102 92 102 235q0 24 -3 49q-19 177 -156 246q-59 31 -112.5 40.5t-170.5 11.5l-127 2v127v125h-88h-88v-590v-590zM254 410v180v180h102q102 0 133 -8q94 -18 138 -98q17 -37 17 -77q0 -25 -7 -51q-18 -67 -72 -98 q-55 -29 -203 -28h-108z" />
<glyph unicode="&#xdf;" horiz-adv-x="856" d="M74 0h80h77l2 451q2 381 5.5 440t25.5 104q25 45 74 64q37 13 70 13q66 0 116 -51q52 -53 52 -123q0 -32 -11 -69q-31 -104 -155 -112l-39 -2v-72q0 -59 5 -67.5t36 -8.5q96 0 154.5 -60.5t58.5 -160.5q0 -121 -77 -178q-45 -33 -100 -34q-39 0 -83 18q-4 2 -5 -9 q-2 -8 -2 -69v-78l19 -2q47 -7 89 -7q234 0 300 224q19 67 19 130q0 70 -24 133q-46 120 -161 165l-25 10l33 23q104 70 122 200q3 23 3 45q0 103 -67 181q-49 57 -148 82q-56 14 -113 14q-43 0 -86 -8q-102 -18 -157.5 -74.5t-77.5 -167.5q-6 -31 -8 -491z" />
<glyph unicode="&#xe0;" horiz-adv-x="1021" d="M8 121q33 -106 138 -129q25 -5 52 -6q83 0 173 55q20 12 24 13t8 -7q25 -53 92 -60q10 -1 19 -1q58 0 121 37l31 18v49q0 49 -2 49q-12 -6 -25 -14q-41 -25 -62 -25h-6q-12 4 -15 45t-3 220q-2 197 -6 236.5t-31 80.5q-37 57 -121 88q-60 22 -121 22q-24 0 -49 -4 q-98 -14 -168 -65q-35 -25 -40 -38q-4 -10 -3 -50v-37v-86l33 29q80 74 160 95q30 8 56 8q44 0 77 -22q53 -36 59 -120l2 -33l-75 -27q-131 -45 -176.5 -66.5t-83.5 -56.5q-68 -62 -68 -137q0 -29 10 -61zM160 201q0 74 94 118q25 12 81 35t62 23q2 0 2 -111v-110l-18 -15 q-59 -45 -114 -44q-18 0 -36 4q-71 20 -71 100zM735 1194q0 -6 96 -129l95 -123l49 -2q49 0 49 4q0 2 -2 6q0 2 -8 20l-23 50l-26 59l-56 117h-88q-37 2 -58 2q-32 0 -28 -4z" />
<glyph unicode="&#xe1;" horiz-adv-x="1216" d="M174 121q35 -106 139 -129q25 -5 51 -6q82 0 175 55q27 16 30 6q25 -53 93 -60q10 -1 19 -1q59 0 122 37l31 18v49l-3 49q-4 0 -24 -14q-41 -25 -64 -25h-6q-12 4 -14 41t-4 224q-2 197 -6 236.5t-31 80.5q-37 57 -120 88q-59 22 -121 22q-25 0 -50 -4q-98 -14 -168 -65 q-35 -25 -39 -37t-4 -88l2 -86l31 29q82 74 161 95q30 8 55 8q43 0 77 -22q53 -36 59 -120l2 -33l-75 -27q-131 -45 -176.5 -66.5t-84.5 -56.5q-66 -62 -66 -139q0 -28 9 -59zM326 201q0 74 94 118q25 12 81 35t62 23q4 0 4 -111v-110l-20 -15q-57 -45 -113 -44q-18 0 -36 4 q-72 20 -72 100zM901 940h51h49l84 113q84 115 97 127l12 18h-90h-88l-37 -80q-16 -43 -57 -129z" />
<glyph unicode="&#xe2;" horiz-adv-x="1374" d="M164 160q8 -125 122 -162q36 -12 73 -12q82 0 171 55l9.5 5t8.5 5t6 3t5 3h2q20 -57 82 -69q15 -3 32 -3q48 0 103 27l49 25v51q2 43 -1 47t-25 -10q-33 -20 -56.5 -22.5t-25.5 14.5q-4 12 -4 245q-2 197 -6 237t-33 83q-39 59 -124 89q-57 20 -118 20q-29 0 -59 -5 q-96 -12 -170 -73l-27 -23l-2 -88v-90l29 27q120 103 219 103q7 0 14 -1q117 -10 117 -135l2 -39l-115 -39q-162 -57 -223 -116q-56 -53 -56 -135q0 -8 1 -17zM324 174q-4 15 -4 29q0 67 88 112q18 10 78.5 36t68.5 26q4 0 4 -111q0 -94 -5 -110.5t-46 -36.5 q-42 -22 -80 -22q-19 0 -36 5q-52 17 -68 72zM799 944l47 -2l49 -2l70 74l71 73l74 -73l74 -74l49 2l51 2l-82 131l-82 131h-82h-82l-79 -131z" />
<glyph unicode="&#xe3;" horiz-adv-x="1259" d="M80 160q10 -125 123 -162q36 -12 73 -12q81 0 173 55l28 16q23 -57 83 -69q15 -3 31 -3q48 0 103 27l49 25l2 51q0 43 -2 47t-24 -10q-33 -20 -56.5 -22.5t-27.5 14.5q0 2 -1 34.5t-2 94t-1 116.5q-2 203 -6 240t-33 80q-39 59 -124 89q-57 20 -118 20q-29 0 -59 -5 q-92 -12 -170 -73l-27 -23v-88l-2 -90l31 27q116 103 214 103q9 0 17 -1q119 -10 119 -135v-39l-113 -39q-164 -57 -225 -116q-56 -53 -56 -135q0 -8 1 -17zM242 174q-5 16 -5 31q0 64 87 110q123 61 147 62q4 0 4 -111q0 -94 -5 -110.5t-44 -36.5q-44 -22 -81 -22 q-19 0 -37 5q-52 17 -66 72zM702 973h37q29 2 35 4t10 18q10 35 38 40q5 1 12 1q28 0 77 -18q117 -43 158 -43q123 0 143 178l2 27h-34h-35l-10 -27q-14 -39 -41 -43q-3 -1 -8 0q-29 0 -95 25q-97 35 -155 35q-30 0 -51 -10q-58 -28 -78 -163z" />
<glyph unicode="&#xe4;" horiz-adv-x="1245" d="M94 512l31 29q104 98 210 101h6q100 0 128 -91q10 -40 10 -61.5t-10 -24.5q-8 -4 -107 -37q-182 -59 -237 -127q-49 -60 -49 -125q0 -40 19 -82q50 -109 175 -108q90 0 181 55q25 16 30 4q27 -51 90 -58q10 -1 20 -1q55 0 116 32l41 23v49q0 49 -3 49q-18 -10 -40 -20 l-13 -6q-41 -23 -49 -9q-10 18 -12 213v43q-4 205 -6 239t-23 69q-49 86 -156 110q-51 15 -98 16q-22 0 -43 -3q-117 -23 -190 -82l-21 -19v-88v-90zM239 169q-3 11 -3 22q0 37 28 81q12 16 98.5 59.5t110.5 45.5q4 0 4 -111q0 -94 -6 -110.5t-47 -36.5t-78 -20q-21 0 -41 6 q-55 18 -66 64zM717 1053q10 -45 50 -60q16 -6 30 -5q23 0 44 13q34 23 33 68q0 47 -37 71q-20 13 -42 12q-18 0 -37 -9q-45 -24 -45 -65q0 -12 4 -25zM1040 1053q12 -45 52 -60q15 -6 29 -5q23 0 44 13q35 23 35 68q-2 47 -40 71q-20 13 -41 12q-18 0 -38 -9 q-44 -23 -44 -66q0 -11 3 -24z" />
<glyph unicode="&#xe5;" horiz-adv-x="1153" d="M74 160q8 -125 122 -162q36 -12 73 -12q82 0 171 55l31 16q20 -57 82 -69q15 -3 31 -3q48 0 104 27l49 25v51q2 47 -4 49q-4 0 -20 -12q-40 -26 -62 -26q-18 0 -22 18l-4 245q-2 197 -6.5 237t-32.5 83q-39 59 -124 89q-57 20 -118 20q-29 0 -59 -5q-92 -12 -170 -73 l-27 -23l-2 -88v-90l31 27q116 103 214 103q9 0 17 -1q115 -10 119 -135v-39l-115 -39q-162 -57 -223 -116q-56 -53 -56 -135q0 -8 1 -17zM233 174q-4 15 -3 29q0 67 87 112q18 10 80 36t68 26q4 0 4 -111q0 -94 -5 -110.5t-46 -36.5q-42 -22 -80 -22q-19 0 -36 5 q-53 17 -69 72zM791 1089q4 -56 47 -100.5t112 -44.5q123 0 156 117q7 24 7 46q0 55 -43 102q-50 55 -115 55q-14 0 -29 -2q-70 -12 -105 -65q-31 -47 -31 -97q1 -5 1 -11zM868 1145q16 33 54 42q12 3 24 3l49 -12q41 -20 48 -62q2 -9 2 -17q0 -31 -21 -58q-27 -34 -72 -33 q-55 0 -82 45q-14 23 -13 47q-1 22 11 45z" />
<glyph unicode="&#xe6;" horiz-adv-x="1140" d="M81 124q22 -77 83 -110q55 -29 118 -29q115 0 259 95l28 18l23 -22q93 -93 244 -93q46 0 98 9q31 6 95.5 34.5t66.5 36.5q2 4 2 82l-2 74l-21 -12q-109 -76 -208 -79h-8q-94 0 -159 65q-35 35 -57 96t-22 121q0 8 239 8h240l-4 49q-8 150 -88 237t-209 87 q-100 0 -199 -76l-27 -21l-24 23q-47 43 -124 62q-47 12 -95 12q-30 0 -60 -5q-72 -10 -147 -57l-35 -20v-97q0 -88 8 -90q4 0 27 23q37 41 107 71q62 27 108 28q6 0 12 -1q57 -6 82 -37t29 -100l2 -41l-37 -10q-154 -45 -229.5 -87t-104.5 -100q-20 -41 -20 -85 q0 -29 9 -59zM243 258q37 51 163 102l55 21v-119v-37q0 -85 -8 -92q-49 -37 -107 -37h-6q-61 2 -88 43q-25 38 -25 70q0 26 16 49zM643 524q-4 4 11.5 31t29.5 41q51 58 112 58q31 0 64 -15q49 -27 70 -84l10 -31l-147 -2q-148 0 -150 2z" />
<glyph unicode="&#xe7;" horiz-adv-x="696" d="M45 401q-1 -14 0 -26q0 -191 111 -287q33 -29 92 -60.5t80 -33.5q2 0 -1 -11.5t-10 -31.5q-20 -55 -14 -60h21q51 0 65 -26.5t-11.5 -44t-84.5 -17.5l-41 2v-49q0 -43 9 -49q7 -5 42 -4h27q141 8 182 96q14 31 14 60q0 17 -5 33q-13 44 -58 67q-37 18 -23 23q8 4 41 6 q68 2 154 26l37 13v79q-2 76 -8 76q-110 -47 -203 -47q-72 0 -131 29q-106 51 -124 187q-3 23 -3 45q0 107 71 179q68 69 160 69q86 0 193 -60q20 -12 22 -13q4 0 4 31q0 20 -2 53v84l-39 17q-92 37 -183 37q-30 0 -60 -5q-96 -12 -189 -79q-127 -97 -135 -308z" />
<glyph unicode="&#xe8;" horiz-adv-x="1157" d="M74 434q-2 -21 -2 -42q0 -110 46 -206q54 -115 154 -161q81 -39 189 -39q17 0 35 1q129 7 231 66l35 21v78q0 78 -4 77q-10 -6 -21 -14q-111 -76 -239 -79h-11q-121 0 -188 69q-25 25 -47.5 77t-22.5 83q0 8 273 8h272l-2 43q-14 195 -121 295q-86 81 -210 80 q-31 0 -64 -5q-59 -8 -121.5 -42.5t-95.5 -77.5q-76 -99 -86 -232zM233 471q0 18 19.5 59t38.5 62q31 37 89 52q30 8 58 8q26 0 51 -7q102 -31 125 -160l2 -18h-190q-193 0 -193 4zM829 1190q2 -2 16 -20l37 -49l46 -60l92 -121h49q47 2 47 8l-8 19l-22 50q-13 32 -27 60 l-55 121h-91q-84 -4 -84 -8z" />
<glyph unicode="&#xe9;" horiz-adv-x="1173" d="M75 280q40 -165 169 -247q61 -39 172 -46l43 -2q85 0 157 23q27 8 78 34t54 32q2 2 2 22t-2 58v75l-31 -20q-47 -27 -78 -39q-90 -35 -166 -35q-62 0 -115 24q-117 52 -137 197l-2 17h273h272l-2 47q-12 184 -107 278q-51 51 -130 76q-56 17 -110 17q-23 0 -46 -3 q-86 -14 -155 -63t-105 -125q-48 -101 -48 -206q0 -56 14 -114zM223 467l4 20q20 90 95 137q48 30 100 30q28 0 57 -9q92 -27 119 -131q10 -35 4 -39q-10 -8 -188 -8h-191zM817 944q0 -4 49 -4h49l95 127q96 125 96 129q-41 2 -88 2q-66 0 -78 -2t-16 -12q-2 -2 -10.5 -21.5 l-21.5 -48.5l-26 -55q-49 -113 -49 -115z" />
<glyph unicode="&#xea;" horiz-adv-x="1376" d="M146 229q62 -174 219 -223q70 -23 145 -23q79 0 164 25q27 8 78 34t53 32q2 2 2 80l-2 75l-29 -18q-76 -49 -172 -68q-43 -8 -80 -8q-45 0 -82 12q-137 45 -163 209l-5 17h275h272l-2 47q-23 299 -248 358q-56 14 -102 14q-23 0 -43 -4q-195 -33 -266 -204 q-42 -99 -42 -196q0 -80 28 -159zM287 475q-4 8 10 45q29 80 98 115q39 20 82 20q32 0 66 -12q51 -16 84.5 -63.5t36.5 -104.5q0 -8 -193 -8q-174 0 -184 8zM776 946q0 -4 23.5 -5t50.5 1t29 6l10 10q8 10 25 29l32 33l66 65l73 -71l74 -74h49q49 0 49 4l-81 133l-80 129 h-82q-59 0 -70.5 -2t-19.5 -14q-18 -27 -82 -133.5t-66 -110.5z" />
<glyph unicode="&#xeb;" horiz-adv-x="1349" d="M138 245q60 -187 222 -239q68 -21 145 -21q72 0 150 19q27 6 85.5 34t60.5 36q2 2 2 80l-2 75l-29 -18q-70 -45 -161 -66q-51 -11 -91 -11q-33 0 -59 7q-160 39 -187 215l-2 17h273h274l-4 45q-16 250 -172 330q-81 43 -167 43q-28 0 -56 -5q-80 -10 -148.5 -59 t-103.5 -117q-54 -107 -54 -216q0 -74 24 -149zM283 475q-4 8 10 45q31 86 107 119q36 15 74 15q42 0 85 -19q41 -20 70.5 -66.5t29.5 -93.5q0 -8 -192 -8q-174 0 -184 8zM774 1095q-4 -13 -4 -26q0 -20 10 -39q22 -43 66 -43q9 0 18 2q57 10 68 68q1 9 1 16q0 40 -34 64 q-23 16 -47 16q-19 0 -39 -10q-29 -14 -39 -48zM1096 1071q0 -47 37 -70q22 -13 44 -13q16 0 32 6q40 15 48 63q1 9 2 16q0 40 -34 64q-23 16 -48 16q-20 0 -40 -10q-41 -23 -41 -72z" />
<glyph unicode="&#xec;" horiz-adv-x="858" d="M74 0h78h79v389v389h-79h-78v-389v-389zM528 1194l13 -18q14 -16 38 -50l46 -61l96 -123l39 -2h39v27q0 23 -47 127l-47 102h-89q-35 2 -56 2q-32 0 -32 -4z" />
<glyph unicode="&#xed;" horiz-adv-x="1992" d="M170 965q0 -25 12 -25q10 0 2 23q-8 18 -10 20l-4 -10v-8zM1090 0h79h78v389v389h-78h-79v-389v-389zM1640 944q0 -4 50 -4l51 2l57 76l57 78v51v51h-51h-51l-55 -125q-58 -127 -58 -129z" />
<glyph unicode="&#xee;" horiz-adv-x="1699" d="M145 1147l5 -45q6 6 36.5 48t30.5 44q0 4 -35 4h-37v-51zM1425 0h78h80v389v389h-80h-78v-389v-389z" />
<glyph unicode="&#xef;" horiz-adv-x="2160" d="M-168 944l47 -2l49 -2l70 74l72 73l73 -73l74 -74l49 2l51 2l-81 131l-82 131h-82h-82l-78 -131zM727 0h80h78v389v389h-78h-80v-389v-389zM1126 1042q20 -54 69 -54q12 0 26 3q51 10 61 65q2 10 2 19q0 40 -37 64q-23 16 -45 16q-18 0 -35 -10q-48 -25 -47 -68 q-1 -17 6 -35zM1446 1072q0 -43 39 -71q14 -10 21 -10q6 0 7 6q2 12 3 74q0 80 -9 80h-1q-4 0 -15 -6q-45 -24 -45 -73z" />
<glyph unicode="&#xf0;" horiz-adv-x="1341" d="M397 1073q0 -68 4.5 -78t24.5 -6q43 10 57 48q6 17 7 33q0 21 -11 41q-18 36 -61 40l-21 2v-80zM734 292q28 -126 126 -208q115 -99 271 -99q41 0 84 7q210 33 292 194q60 121 60 260q0 71 -16 147q-46 224 -208 384l-57 57l64 31q61 31 61 33t-20.5 47t-22.5 47l-96 -41 l-94 -45l-43 22q-106 51 -158 62q-10 4 -43 -35q-46 -59 -46 -72q0 -2 1 -4q2 -2 22 -6q43 -8 99 -37l6 -6q-6 -6 -82 -39q-82 -39 -84 -41q-2 -4 12 -44q19 -52 24 -52q10 0 126 53l125 58l30 -27q88 -68 144 -166l10 -16l-21 10q-62 26 -140 26q-25 0 -52 -2 q-111 -11 -195 -63q-111 -68 -158 -188q-31 -77 -31 -156q0 -45 10 -91zM881 415q14 77 58 135t121 85q42 14 84 14q36 0 73 -10q127 -35 174 -146q21 -49 20 -101q0 -65 -33 -132q-41 -86 -136 -119q-48 -16 -95.5 -16t-95.5 16q-96 33 -142 119q-32 58 -32 116q0 20 4 39z " />
<glyph unicode="&#xf1;" horiz-adv-x="897" d="M-86 0h82h80v276v277l26 29q70 72 161 75q5 0 10 1q83 0 112 -66q18 -41 22.5 -89t6.5 -251l2 -252h78h77v240q0 291 -16 358q-20 100 -111 155q-64 38 -133 38q-29 0 -59 -7q-86 -18 -156 -84l-20 -18v49v47h-80h-82v-389v-389zM543 983q-2 -8 2 -9t32.5 -1t35 2t8.5 14 q8 31 24.5 41t48 4t94.5 -28q91 -33 131 -33h5q109 12 127 182l2 25h-35h-35l-8 -27q-14 -39 -41 -43q-3 -1 -8 0q-29 0 -95 25q-98 36 -156 36q-27 0 -45 -8q-58 -25 -81 -143q0 -6 -2 -14.5t-3 -14.5t-1 -8z" />
<glyph unicode="&#xf2;" horiz-adv-x="827" d="M63 54q108 -71 231 -71q73 0 150 25q131 43 204 146q68 96 68 215v17q-5 130 -89 247q-51 72 -160 113q-84 32 -163 33q-23 0 -46 -3q-168 -20 -269 -131q-99 -108 -100 -266q0 -210 174 -325zM52 344q-3 22 -3 43q0 100 70 174q43 47 119 65q35 8 66 8q37 0 71 -11 q113 -37 151 -123q30 -60 30 -120q0 -23 -4 -45q-15 -83 -72.5 -132t-137.5 -68q-22 -5 -46 -5q-59 0 -122 34q-105 53 -122 180zM659 1192q2 -2 99 -129l94 -123h49q49 0 49 4l-8 17q-6 16 -21 50l-28 62l-57 125h-91q-86 0 -86 -6z" />
<glyph unicode="&#xf3;" horiz-adv-x="1265" d="M143 180q74 -133 228 -177q67 -19 132 -19q86 0 170 32q148 57 210 197q35 79 34 162q0 24 -3 49q-13 109 -80 201q-57 80 -167 121q-82 31 -167 32q-29 0 -58 -4q-106 -14 -188 -73.5t-123 -141.5q-40 -80 -40 -179q0 -106 52 -200zM250 400q10 75 50 133.5t112 86.5 q41 16 84 15q32 0 65 -8q125 -31 174 -138q23 -50 23 -102q0 -58 -29 -119q-39 -84 -128 -117q-49 -19 -99 -19q-41 0 -81 12q-91 28 -136 108q-37 60 -37 121q0 13 2 27zM897 946q0 -6 49 -6h49l92 123q94 123 97 129l-15 4q-18 2 -71 2q-66 0 -78 -1t-16 -11 q-107 -232 -107 -240z" />
<glyph unicode="&#xf4;" horiz-adv-x="1583" d="M201 457q-6 -33 -6 -66q0 -90 41 -186q84 -172 281 -211q48 -9 95 -10q144 0 269 92q133 98 138 290v14q0 181 -124 294q-59 53 -157 83q-72 22 -137 22q-22 0 -44 -3q-139 -18 -237.5 -108t-118.5 -211zM385 258q-33 60 -33 122q0 68 39 138q37 68 117 98q46 18 93 18 q34 0 69 -9q98 -25 141 -90q49 -82 49 -162q0 -10 -1 -21q-7 -90 -77.5 -154.5t-175.5 -64.5q-151 0 -221 125zM905 944l47 -2l49 -2l72 74l70 73l74 -73l73 -74l51 2l50 2l-82 131l-82 131h-82h-80l-80 -131z" />
<glyph unicode="&#xf5;" horiz-adv-x="1431" d="M139 205q84 -172 281 -211q48 -9 94 -10q143 0 270 92q133 98 138 290v11q0 183 -125 297q-59 53 -156 83q-72 22 -136 22q-22 0 -44 -3q-215 -29 -316 -206q-52 -91 -51 -185q-1 -89 45 -180zM288 258q-34 60 -34 123q0 67 39 137q39 68 119 98q46 18 92 18q34 0 69 -9 q94 -25 142 -90q52 -76 52 -152q0 -58 -30 -116q-70 -134 -227 -134q-151 0 -222 125zM836 975q4 -2 32 -2q29 2 33 4t8 14q4 16 16.5 29.5t24.5 15.5q2 0 6 1q26 0 111 -29q97 -35 137 -35h4q111 12 129 178l4 29h-36q-27 0 -33 -2t-8 -19q-10 -45 -41 -49h-8 q-33 0 -107 27q-93 35 -148 34q-23 0 -40 -6q-57 -20 -80 -127q-7 -34 -8 -50q1 -11 4 -13z" />
<glyph unicode="&#xf6;" horiz-adv-x="1363" d="M130 551q-40 -83 -40 -168q0 -107 64 -215q80 -137 254 -172q49 -10 97 -10q121 0 232 63q147 84 176 264q6 37 6 72q0 137 -90 250q-61 76 -170 115q-79 28 -156 28q-28 0 -57 -4q-225 -35 -316 -223zM285 256q-35 60 -35 123.5t35 130.5q37 70 112 102q51 22 104 22 q27 0 54 -5q45 -8 91 -37t69 -64q48 -72 48 -144q0 -60 -33 -120q-72 -131 -226 -131h-4q-145 2 -215 123zM799 1042q20 -56 68 -55q10 0 22 2q63 14 63 80q0 49 -38 73q-19 12 -40 12q-20 0 -40 -11q-42 -23 -42 -64q0 -17 7 -37zM1117 1074q0 -36 26 -63q22 -23 52 -24 q8 0 17 2q66 14 66 80q0 49 -39 73q-20 12 -41 12q-20 0 -41 -11q-40 -22 -40 -69z" />
<glyph unicode="&#xf7;" horiz-adv-x="944" d="M63 535h410h410v75v74h-410h-410v-74v-75zM387 352q0 -55 43 -80q23 -13 48 -13q20 0 41 9q46 20 52 76q1 7 1 14q0 38 -29 65q-26 24 -60 24q-11 0 -22 -3q-74 -14 -74 -92zM388 888q-4 -13 -4 -27q0 -24 13 -46q27 -45 83.5 -45t78.5 45q13 26 14 50q0 34 -28 62 t-62 28q-23 0 -49 -13q-35 -16 -46 -54z" />
<glyph unicode="&#xf8;" horiz-adv-x="958" d="M84 -12l29 -25q31 -27 32.5 -26.5t51.5 53.5l47 53l32 -14q93 -43 194 -44q56 0 116 14q164 38 241 155q70 106 70 226v19q-6 131 -90 246q-18 25 -17 33t33 43l35 43l-14 14q-8 10 -31 29l-16 12l-39 -47l-39 -47l-35 18q-96 49 -198 49q-65 0 -133 -20 q-173 -51 -244 -199q-43 -95 -44 -188q0 -73 27 -145q23 -59 64 -117l22 -29l-47 -53zM233 299q-15 44 -15 88q0 72 42 141q41 66 121 100q50 21 98 21q29 0 58 -8q18 -4 55 -18l26 -13l-167 -196q-168 -197 -172 -197q-4 -2 -20 26.5t-26 55.5zM514 362l168 195l12 -14 q16 -23 25 -41q29 -57 29 -114q0 -70 -45 -140q-81 -127 -226 -127q-23 0 -54.5 7t-54.5 17q-22 9 -22 16q0 2 17.5 23l63.5 74.5z" />
<glyph unicode="&#xf9;" horiz-adv-x="1181" d="M80 778l2 -276q2 -266 12 -327.5t64 -115.5q74 -74 181 -74q6 0 11 1q115 4 207 88l18 16v-45v-45h80h78v389v389h-78h-80v-278v-281l-22 -24q-70 -72 -162 -77q-6 0 -13 -1q-82 0 -114 63q-16 31 -19 78t-5 260l-2 260h-80h-78zM817 1192l14 -16q12 -18 37 -52l47 -61 l95 -123h49q47 2 47 8q0 2 -8 20l-23 49q-14 32 -28 60l-54 121h-90q-86 0 -86 -6z" />
<glyph unicode="&#xfa;" horiz-adv-x="1269" d="M121 778l2 -276q2 -262 13 -325.5t65 -117.5q74 -74 181 -74q6 0 11 1q115 4 205 88l18 16v-45v-45h80h78v389v389h-78h-80v-278v-281l-22 -24q-70 -72 -162 -77q-6 0 -13 -1q-82 0 -114 63q-16 33 -19 83t-5 255l-2 260h-78h-80zM860 944q0 -4 49 -4h49l97 127l94 129 q-39 2 -88 2h-88l-8 -20l-56 -125z" />
<glyph unicode="&#xfb;" horiz-adv-x="1290" d="M82 778l2 -268q4 -246 10 -308.5t37 -107.5q68 -100 195 -107q9 -1 18 -1q116 0 215 84l25 20v-45v-45h78h79v389v389h-79h-78v-278v-279l-33 -31q-51 -53 -115 -68q-22 -5 -43 -6q-39 0 -76 19q-29 14 -42 29.5t-21 66t-10 117t-2 207.5v223h-80h-80zM727 944 q0 -4 47 -4h47l70 74l72 71l73 -71l72 -74h51l51 2q0 2 -82 133l-81 131h-82h-82l-78 -129q-78 -129 -78 -133z" />
<glyph unicode="&#xfc;" horiz-adv-x="1492" d="M182 778l2 -278q2 -281 11 -320q23 -100 102 -152q66 -43 145 -43q17 0 35 2q100 11 182 87l19 16v-45v-45h80h78v389v389h-78h-80v-278v-279l-23 -26q-68 -72 -160 -77q-7 0 -13 -1q-83 0 -115 63q-16 33 -19.5 78t-5.5 258l-2 262h-78h-80zM825 1094q-3 -12 -2 -23 q0 -22 11 -43q23 -39 71.5 -39t69.5 41q11 22 11 42q0 30 -25.5 56t-56.5 26q-20 0 -42 -11q-29 -14 -37 -49zM1150 1095q-3 -12 -3 -24q0 -21 10 -41q23 -41 72 -41t69 41q11 22 12 42q0 30 -26 56t-55 26q-20 0 -41 -11q-29 -14 -38 -48z" />
<glyph unicode="&#xfd;" horiz-adv-x="2048" />
<glyph unicode="&#xfe;" horiz-adv-x="2048" />
<glyph unicode="&#xff;" horiz-adv-x="2048" />
<glyph unicode="&#x152;" horiz-adv-x="2048" />
<glyph unicode="&#x153;" horiz-adv-x="2048" />
<glyph unicode="&#x178;" horiz-adv-x="1044" d="M-83 1426q-5 -14 -5 -27q0 -20 10 -39q20 -43 72.5 -43t73.5 43q8 20 8 37q0 31 -25 58t-56 27q-16 0 -34 -7q-33 -15 -44 -49zM0 1180q0 -6 219 -281l217 -278v-310v-311h88h88v311v312l217 276q215 274 215 279q0 4 -37 3q-25 0 -67 -1h-102l-158 -201 q-154 -199 -158 -199q-2 0 -157 201l-156 201h-105zM239 1413q-1 -6 -1 -12q0 -35 25 -62q22 -23 53 -23q10 0 22 3q43 10 56 50q5 15 5 29q0 24 -14 47q-23 36 -68 36q-8 0 -32 -6q-41 -19 -46 -62z" />
<glyph unicode="&#x2c6;" horiz-adv-x="579" d="M47 1405h49h47l70 74q68 72 74 71q2 0 78 -71l73 -74l47 2l47 2l-77 123q-80 129 -84 133q-7 9 -62 9q-11 0 -23 -1q-77 -2 -83 -12q-2 -2 -13 -20l-30 -52l-37 -61z" />
<glyph unicode="&#x2dc;" horiz-adv-x="577" d="M35 1438h39q39 0 39 6q0 10 6 24q13 31 54 31q30 0 75 -16q98 -37 135 -43q12 -2 24 -2q23 0 42 8q41 16 68.5 69.5t27.5 110.5q0 14 -4 16.5t-29 2.5q-27 0 -32 -3.5t-11 -23.5q-12 -41 -41 -44h-6q-30 0 -100 25q-98 37 -140 39q-3 0 -5 1l-77 -29q-43 -33 -63 -154z " />
<glyph unicode="&#x2013;" horiz-adv-x="1024" d="M70 299v170h886v-170h-886z" />
<glyph unicode="&#x2014;" horiz-adv-x="2048" d="M70 299v170h1910v-170h-1910z" />
<glyph unicode="&#x2018;" horiz-adv-x="577" d="M104 1196q0 -6 97 -129l94 -125h51q47 0 47 4q0 2 -2 6q-8 27 -57 127l-53 119h-91z" />
<glyph unicode="&#x2019;" horiz-adv-x="329" d="M78 1128q0 -176 33 -319q2 -10 51 -10q51 0 53 10q37 170 37 328v102h-86h-88v-111z" />
<glyph unicode="&#x201c;" horiz-adv-x="612" d="M80 1130q0 -111 18 -221l19 -110h51h49l21 125q18 133 18 221v94h-88h-88v-109zM358 1135q0 -106 21 -222l18 -114h49l50 2l20 117q18 113 19 219v102h-89h-88v-104z" />
<glyph unicode="&#x201d;" horiz-adv-x="612" d="M80 1130q0 -111 18 -221l19 -110h51h49l21 125q18 133 18 221v94h-88h-88v-109zM358 1135q0 -106 21 -222l18 -114h49l50 2l20 117q18 113 19 219v102h-89h-88v-104z" />
<glyph unicode="&#x2026;" horiz-adv-x="1148" d="M92 55q20 -66 94 -68h7q68 0 94 62q9 21 9 41q0 36 -31 68q-33 34 -73 33q-18 0 -38 -7q-39 -16 -57 -52q-10 -21 -10 -44q0 -16 5 -33zM475 55q20 -66 94 -68h7q68 0 94 62q9 21 9 41q0 36 -31 68q-33 34 -73 33q-18 0 -38 -7q-39 -16 -57 -52q-10 -21 -10 -44 q0 -16 5 -33zM858 55q20 -66 94 -68h7q68 0 94 62q9 21 9 41q0 36 -31 68q-33 34 -73 33q-18 0 -38 -7q-39 -16 -57 -52q-10 -21 -10 -44q0 -16 5 -33z" />
<glyph unicode="&#x2039;" horiz-adv-x="1015" d="M94 539l406 -172l199 -86l157 -68q53 -23 55 -23h2q5 0 6 10q1 11 1 66l-2 78l-314 131l-155 65l-123 51q-41 17 -43 17t1 2t11 6.5t21.5 9.5t31.5 13l43 18l56 24l68 29l83 33l322 134v77l-2 78q-4 0 -412 -172l-408 -174l-2 -74z" />
<glyph unicode="&#x203a;" horiz-adv-x="1015" d="M94 1032l2 -80l2 -78l316 -131q297 -119 321 -131q2 0 -39 -17l-119 -50l-159 -66l-322 -133v-78q2 -76 6 -75q6 2 414 174l404 172v73v72l-21 10l-400 169l-386 163z" />
<glyph unicode="&#x2122;" horiz-adv-x="2404" d="M31 1028h202h203v-514v-514h86h88v514v514h205h207v76v78h-496h-495v-78v-76zM1178 0h86h86v455l2 452l180 -223q135 -168 159.5 -195.5t39.5 -27.5q12 0 36.5 27.5t157.5 195.5l178 223l2 -452v-455h88h88v592v590h-81h-82l-195 -242l-170.5 -212t-30.5 -19 q-2 2 -194 241l-187 230h-81l-82 2v-590v-592z" />
<glyph unicode="&#xe000;" horiz-adv-x="780" d="M0 780h780v-780h-780v780z" />
<glyph unicode="&#xfb01;" horiz-adv-x="819" d="M14 637h56h53v-318v-319h80h78v319v318h69h70v72v71h-70h-69l2 54q8 100 24 135q16 39 66 58q30 12 62 12q20 0 40 -5q6 0 13.5 -1t11.5 -2t8 -3h4q4 0 4 76v76l-24 6q-33 8 -84.5 8t-71.5 -8q-102 -33 -151.5 -116t-59.5 -234l-2 -56h-53h-56v-71v-72zM536 1024 q-1 -7 -1 -14q0 -45 40 -74q24 -17 50 -17q24 0 50 16q45 27 45 74q0 7 -1 15q-6 43 -46 68q-24 15 -48 14q-16 0 -31 -6q-51 -21 -58 -76zM545 0h82h80v391v389h-80h-82v-389v-391z" />
<glyph unicode="&#xfb02;" horiz-adv-x="821" d="M14 637h56h53v-318v-319h80h78v319v318h69h70v72v71h-70h-69l2 54q8 100 24 135q16 39 66 58q30 12 62 12q20 0 40 -5q6 0 13.5 -1t11.5 -2t8 -3h4q4 0 4 76v76l-24 6q-33 8 -84.5 8t-71.5 -8q-102 -33 -151.5 -116t-59.5 -234l-2 -56h-53h-56v-71v-72zM549 0h80h78v592 v590h-78h-80v-590v-592z" />
<glyph unicode="&#xfb03;" horiz-adv-x="1253" d="M14 637h56h53v-318v-319h80h78v319v318h69h70v72v71h-70h-69l2 54q8 100 24 135q16 39 66 58q30 12 62 12q20 0 40 -5q6 0 13.5 -1t11.5 -2t8 -3h4q4 0 4 76v76l-24 6q-33 8 -84.5 8t-71.5 -8q-102 -33 -151.5 -116t-59.5 -234l-2 -56h-53h-56v-71v-72zM449 637h55h53 v-318v-319h80h78v319v318h69h70v72v71h-70h-69l2 54q8 100 24 135q16 39 66 58q30 12 62 12q20 0 40 -5q6 0 13.5 -1t11.5 -2t8 -3h4q4 0 4 76v76l-24 6q-33 8 -84 8t-72 -8q-102 -33 -151.5 -116t-59.5 -234l-2 -56h-53h-55v-71v-72zM970 1024q-1 -7 -1 -14q0 -45 41 -74 q24 -17 49 -17q24 0 50 16q45 27 45 74q0 7 -1 15q-6 43 -46 68q-24 15 -48 14q-16 0 -31 -6q-51 -21 -58 -76zM979 0h82h80v391v389h-80h-82v-389v-391z" />
<glyph unicode="&#xfb04;" horiz-adv-x="1255" d="M14 637h56h53v-318v-319h80h78v319v318h69h70v72v71h-70h-69l2 54q8 100 24 135q16 39 66 58q30 12 62 12q20 0 40 -5q6 0 13.5 -1t11.5 -2t8 -3h4q4 0 4 76v76l-24 6q-33 8 -84.5 8t-71.5 -8q-102 -33 -151.5 -116t-59.5 -234l-2 -56h-53h-56v-71v-72zM449 637h55h53 v-318v-319h80h78v319v318h69h70v72v71h-70h-69l2 54q8 100 24 135q16 39 66 58q30 12 62 12q20 0 40 -5q6 0 13.5 -1t11.5 -2t8 -3h4q4 0 4 76v76l-24 6q-33 8 -84 8t-72 -8q-102 -33 -151.5 -116t-59.5 -234l-2 -56h-53h-55v-71v-72zM983 0h80h78v592v590h-78h-80v-590 v-592z" />
</font>
</defs>
</svg>
